<svg width="809" height="1250" viewBox="0 0 809 1250" fill="none" xmlns="http://www.w3.org/2000/svg">
<path opacity="0.04" fill-rule="evenodd" clip-rule="evenodd" d="M305.02 432.785C305.02 457.619 325.151 477.75 349.984 477.75H447.408C472.242 477.75 492.373 457.619 492.373 432.785V370.957C492.373 346.124 512.505 325.992 537.338 325.992H616.025C640.858 325.992 660.989 305.861 660.989 281.027V213.582C660.989 188.749 681.121 168.617 705.954 168.617H764.035C788.869 168.617 809 148.486 809 123.652V63.6993C809 38.8659 788.869 18.7344 764.035 18.7344H704.082C679.249 18.7344 659.117 38.8659 659.117 63.6993V112.409C659.117 137.243 638.986 157.374 614.152 157.374H537.336C512.503 157.374 492.371 177.505 492.371 202.339V245.432C492.371 270.265 472.24 290.396 447.406 290.396H353.732C328.898 290.396 308.767 270.265 308.767 245.432V191.101C308.767 166.267 288.635 146.136 263.802 146.136H203.848C179.014 146.136 158.883 126.004 158.883 101.171V44.9649C158.883 20.1315 138.751 3.05176e-05 113.918 3.05176e-05H53.9649C29.1315 3.05176e-05 9 20.1315 9 44.9649V104.918C9 129.751 29.1315 149.883 53.9649 149.883H95.1836C120.017 149.883 140.148 170.014 140.148 194.848V269.789C140.148 294.623 160.28 314.754 185.113 314.754H260.055C284.888 314.754 305.02 334.885 305.02 359.719V432.785Z" fill="#F1F1F1"/>
<path opacity="0.04" fill-rule="evenodd" clip-rule="evenodd" d="M299.02 881.785C299.02 906.619 319.151 926.75 343.984 926.75H441.408C466.242 926.75 486.373 906.619 486.373 881.785V819.957C486.373 795.124 506.505 774.992 531.338 774.992H610.025C634.858 774.992 654.989 754.861 654.989 730.027V662.582C654.989 637.749 675.121 617.617 699.954 617.617H758.035C782.869 617.617 803 597.486 803 572.652V512.699C803 487.866 782.869 467.734 758.035 467.734H698.082C673.249 467.734 653.117 487.866 653.117 512.699V561.409C653.117 586.243 632.986 606.374 608.152 606.374H531.336C506.503 606.374 486.371 626.505 486.371 651.339V694.432C486.371 719.265 466.24 739.396 441.406 739.396H347.732C322.898 739.396 302.767 719.265 302.767 694.432V640.101C302.767 615.267 282.635 595.136 257.802 595.136H197.848C173.014 595.136 152.883 575.004 152.883 550.171V493.965C152.883 469.131 132.751 449 107.918 449H47.9649C23.1315 449 3 469.132 3 493.965V553.918C3 578.751 23.1315 598.883 47.9649 598.883H89.1836C114.017 598.883 134.148 619.014 134.148 643.848V718.789C134.148 743.623 154.28 763.754 179.113 763.754H254.055C278.888 763.754 299.02 783.885 299.02 808.719V881.785Z" fill="#F1F1F1"/>
<path opacity="0.04" fill-rule="evenodd" clip-rule="evenodd" d="M296.02 1204.79C296.02 1229.62 316.151 1249.75 340.984 1249.75H438.408C463.242 1249.75 483.373 1229.62 483.373 1204.79V1142.96C483.373 1118.12 503.505 1097.99 528.338 1097.99H607.025C631.858 1097.99 651.989 1077.86 651.989 1053.03V985.582C651.989 960.749 672.121 940.617 696.954 940.617H755.035C779.869 940.617 800 920.486 800 895.652V835.699C800 810.866 779.869 790.734 755.035 790.734H695.082C670.249 790.734 650.117 810.866 650.117 835.699V884.409C650.117 909.243 629.986 929.374 605.152 929.374H528.336C503.503 929.374 483.371 949.505 483.371 974.339V1017.43C483.371 1042.27 463.24 1062.4 438.406 1062.4H344.732C319.898 1062.4 299.767 1042.27 299.767 1017.43V963.101C299.767 938.267 279.635 918.136 254.802 918.136H194.848C170.014 918.136 149.883 898.004 149.883 873.171V816.965C149.883 792.131 129.751 772 104.918 772H44.9649C20.1315 772 0 792.132 0 816.965V876.918C0 901.751 20.1315 921.883 44.9649 921.883H86.1836C111.017 921.883 131.148 942.014 131.148 966.848V1041.79C131.148 1066.62 151.28 1086.75 176.113 1086.75H251.055C275.888 1086.75 296.02 1106.89 296.02 1131.72V1204.79Z" fill="#F1F1F1"/>
</svg>
