<svg width="141" height="191" viewBox="0 0 141 191" fill="none" xmlns="http://www.w3.org/2000/svg">
<path d="M242.319 27.0047C237.241 41.0624 229.289 55.0173 219.079 68.1493C198.641 94.4476 169.141 117.592 135.163 131.684C133.071 132.541 130.996 133.364 128.921 134.152C104.171 143.444 80.6212 146.496 60.4386 143.993C40.2742 141.49 23.4765 133.432 12.266 120.335C6.64249 113.751 2.45673 105.865 0.0180664 96.7449C0.12726 98.0478 0.218255 99.3164 0.327449 100.619C0.81882 106.448 1.47398 112.208 2.23834 117.934C3.0027 123.763 3.93084 129.523 5.02278 135.147C5.53235 137.821 6.07832 140.495 6.66069 143.101C6.95187 144.404 7.24305 145.741 7.55243 147.01C7.89821 148.45 8.38959 149.89 8.31679 151.536C8.31679 151.639 8.29859 151.742 8.28039 151.844C8.97195 152.839 9.66351 153.833 10.3733 154.759C24.4411 173.48 41.3297 182.154 58.2001 186.68C76.9815 191.721 96.1086 192.269 114.963 188.36C133.744 184.486 152.307 176.394 170.051 164.119C187.486 152.05 204.338 136.141 219.643 116.22C232.874 99.0079 245.395 77.0297 251.018 48.0228C250.945 47.1999 250.872 46.4112 250.854 45.5541C250.8 44.0111 250.781 42.4682 250.745 40.9253C250.672 37.8394 250.6 34.7879 250.472 31.702C250.217 25.5646 249.853 19.4272 249.398 13.3241C249.089 9.07246 248.707 4.85513 248.27 0.603516C247.524 9.27818 245.486 18.09 242.319 26.8675V27.0047Z" fill="#3F3F3F"/>
</svg>
