<svg width="173" height="140" viewBox="0 0 173 140" fill="none" xmlns="http://www.w3.org/2000/svg">
<path fill-rule="evenodd" clip-rule="evenodd" d="M48.2222 21.7394V22.383C48.2222 22.5633 48.2938 22.7362 48.4213 22.8637C48.5488 22.9911 48.7217 23.0628 48.902 23.0628C49.0823 23.0628 49.2552 22.9911 49.3827 22.8637C49.5102 22.7362 49.5818 22.5633 49.5818 22.383V21.7032C49.5725 21.5244 49.4949 21.3561 49.365 21.2329C49.2351 21.1098 49.0628 21.0413 48.8839 21.0415C48.7942 21.0426 48.7057 21.0617 48.6235 21.0977C48.5414 21.1336 48.4673 21.1857 48.4056 21.2507C48.3439 21.3158 48.2959 21.3926 48.2644 21.4765C48.2329 21.5604 48.2185 21.6498 48.2222 21.7394ZM47.9593 19.8451C48.9564 19.6094 49.7721 18.9387 48.3219 19.0293C47.9627 19.0794 47.608 19.1582 47.2614 19.265C45.9018 19.8269 47.0801 20.0535 47.9593 19.8451ZM131.121 26.1536C130.703 27.0299 130.004 27.7414 129.136 28.1748C129.102 28.1868 129.074 28.2102 129.055 28.2409C129.037 28.2716 129.03 28.3077 129.035 28.3431C129.041 28.3784 129.058 28.4108 129.085 28.4347C129.111 28.4586 129.145 28.4724 129.181 28.4739C129.475 28.5256 129.776 28.5042 130.059 28.4115C130.342 28.3189 130.598 28.1579 130.804 27.9429C131.01 27.7278 131.16 27.4653 131.241 27.1785C131.321 26.8917 131.33 26.5895 131.266 26.2986C131.266 26.2601 131.251 26.2232 131.223 26.196C131.196 26.1688 131.159 26.1536 131.121 26.1536ZM127.513 18.9659C127.339 18.9213 127.154 18.9465 126.999 19.0363C126.843 19.1261 126.728 19.2732 126.68 19.4463C126.597 19.7413 126.582 20.0509 126.634 20.3526C126.634 20.5329 126.706 20.7058 126.833 20.8333C126.961 20.9608 127.134 21.0324 127.314 21.0324C127.494 21.0324 127.667 20.9608 127.795 20.8333C127.922 20.7058 127.994 20.5329 127.994 20.3526C127.994 19.7 128.139 19.1381 127.513 18.9659ZM96.3426 108.019C95.6084 107.647 81.5684 108.563 81.2149 110.14C81.1424 110.484 81.369 111.808 81.7678 112.025C82.5563 112.442 96.0616 111.681 96.8048 110.212C97.0161 109.855 97.0859 109.432 97.0003 109.026C96.9147 108.62 96.68 108.26 96.3426 108.019ZM81.94 111.645C81.6605 111.205 81.5098 110.697 81.5049 110.176C81.6862 109.36 89.1639 108.916 89.9888 108.862C89.9691 109.594 90.1577 110.317 90.5326 110.947C89.4993 111.11 82.4294 111.907 81.94 111.672V111.645ZM96.1432 109.832C95.4271 110.339 91.7925 110.802 90.9223 110.91C90.9985 110.193 90.8463 109.47 90.4873 108.844C91.5659 108.771 95.0192 108.581 96.0435 108.672C96.3154 108.871 96.3244 109.487 96.1432 109.85V109.832ZM72.5226 110.167C72.4981 110.152 72.4698 110.144 72.441 110.144C72.4122 110.144 72.3839 110.152 72.3594 110.167C72.3594 110.076 55.0473 119.829 54.5216 120.863C54.4982 120.912 54.4861 120.966 54.4861 121.021C54.4861 121.076 54.4982 121.13 54.5216 121.18C55.0745 122.766 73.1389 139.099 73.8912 139.471C74.1088 139.58 74.3807 139.389 75.2327 138.936C77.0455 137.966 92.5176 129.7 94.1128 128.367C94.557 127.914 94.8289 123.835 94.5842 123.373C94.3394 122.911 72.5226 110.258 72.5226 110.167ZM74.0906 138.718C72.16 137.187 56.8692 123.409 55.1742 121.071C56.7513 119.584 72.0059 110.747 72.4682 110.475C74.8067 111.898 91.6384 122.141 93.7956 123.591C92.6555 123.92 91.5709 124.418 90.5779 125.068C90.0613 125.567 91.3483 126.491 93.1339 128.222C90.4057 129.981 76.8733 137.232 74.0906 138.718ZM93.6506 127.706C93.5599 127.615 91.3755 125.485 91.2758 125.404C92.1564 124.854 93.0639 124.349 93.995 123.89C93.9979 125.171 93.8765 126.449 93.6325 127.706H93.6506Z" fill="black"/>
<path fill-rule="evenodd" clip-rule="evenodd" d="M86.1186 126.037C85.4841 126.309 77.7435 128.874 75.5591 129.762C74.9172 130.082 74.2175 130.27 73.5016 130.315C73.3747 130.315 74.1089 128.901 79.6651 124.569C80.2452 124.115 81.3601 123.254 81.4779 122.547C82.0127 120.209 75.677 123.708 70.012 125.919C69.4262 126.234 68.7868 126.437 68.1267 126.517C68.0633 126.146 69.3413 124.976 69.4229 124.886C72.8037 121.152 77.0909 119.611 76.8009 118.233C76.3568 116.076 68.4893 120.272 66.8306 120.952C65.4347 121.541 63.205 122.248 63.341 122.248C63.0419 122.366 63.341 122.575 63.3954 122.547C63.4497 122.52 66.323 121.641 67.0209 121.333C68.0633 120.934 75.0334 117.571 76.1936 118.36C76.6559 118.686 71.7251 121.342 68.9425 124.415C68.453 124.94 67.1297 126.01 67.5376 126.88C67.6124 127.014 67.7257 127.123 67.8631 127.193C68.0004 127.262 68.1553 127.289 68.308 127.27C69.6585 127.27 78.8675 122.656 80.7618 122.511C80.327 123.085 79.8075 123.589 79.221 124.007C77.8704 125.076 73.9548 128.267 73.0484 129.735C72.5771 130.496 72.9669 130.95 73.5832 130.959C74.399 130.959 75.396 130.406 77.8523 129.481C86.1821 126.273 86.4449 126.418 86.309 126.119C86.302 126.101 86.2915 126.084 86.2781 126.07C86.2647 126.056 86.2486 126.045 86.2309 126.038C86.2132 126.03 86.1941 126.026 86.1748 126.026C86.1556 126.026 86.1364 126.03 86.1186 126.037Z" fill="black"/>
<path fill-rule="evenodd" clip-rule="evenodd" d="M172.887 91.4768C172.77 81.9959 171.918 62.6444 170.041 53.2633C169.053 48.2872 166.914 41.4802 162.935 38.19C161.249 36.8032 158.766 35.4708 154.261 32.9782C154.315 32.8604 147.146 29.9599 146.81 30.9207C146.532 29.2676 146.141 27.6353 145.641 26.0352C146.312 25.8177 146.013 23.8599 146.294 22.7541C146.575 21.6483 147.635 20.8597 148.179 19.9533C149.403 17.9321 149.611 14.4062 149.385 12.0587C149.167 9.87426 145.977 4.99787 143.874 4.20025C141.771 3.40262 139.614 3.42981 137.393 2.98568C135.58 2.61406 134.239 1.60796 132.208 1.35417C130.178 1.10038 128.964 2.26057 127.223 2.26057C125.483 2.26057 123.525 0.910041 121.703 0.801274C120.714 0.785917 119.752 1.13026 118.997 1.77037C118.242 2.41048 117.744 3.30286 117.597 4.28182C117.378 5.74097 117.551 7.23237 118.099 8.60245C118.647 9.97254 119.55 11.1718 120.715 12.0768C122.135 12.9746 123.729 13.5586 125.392 13.7899C125.284 18.4215 125.773 17.1798 125.229 17.5877C124.685 17.9955 124.858 20.8507 125.048 21.6392C125.13 21.9565 125.211 22.0743 125.601 22.2012C125.383 23.1076 123.852 25.0654 125.229 25.5458C125.411 25.6092 126.136 25.7361 126.208 25.7633C126.394 26.6229 126.667 27.4611 127.024 28.265C127.376 29.0731 127.889 29.8006 128.533 30.4023C129.177 31.0041 129.937 31.4674 130.767 31.7636C132.073 32.2712 133.106 32.4072 133.867 32.67C133.972 33.0449 134.027 33.4319 134.03 33.8212C130.794 34.6719 127.744 36.1198 125.039 38.0903C120.135 42.0693 113.165 58.5747 111.343 60.3875C110.636 61.0854 93.9859 64.3122 91.5296 65.98C91.0492 66.3063 91.0311 66.5872 91.0945 67.1673C90.4963 67.2761 87.9765 67.7474 87.6956 68.2822C87.6126 68.6707 87.6345 69.0742 87.759 69.4514C85.5162 69.0326 83.2532 68.7301 80.9792 68.5451C80.563 68.5548 80.1536 68.6517 79.7773 68.8298C79.401 69.0077 79.0663 69.2628 78.7948 69.5783C78.0334 70.4847 78.6498 70.3307 77.8431 70.2038C76.13 69.959 69.9937 72.0165 69.2233 72.3791C69.2233 72.0528 69.2233 71.8262 68.8788 71.6449C67.8672 71.3518 66.8103 71.2473 65.7609 71.3367C65.1264 71.7627 67.5736 71.6177 68.5888 72.1434C68.5888 72.8414 68.6794 80.0019 68.5888 81.4068C68.5888 81.6606 68.5888 81.6243 68.3985 81.6515C67.4921 81.7784 66.1869 81.6515 65.788 81.9415C65.9331 78.7873 65.788 71.0648 65.353 70.6116C65.0901 70.3397 60.25 69.7596 54.9839 69.1251C55.0025 65.315 54.7907 61.5073 54.3494 57.7227C53.3795 49.3114 51.3492 39.3955 45.0045 34.365C45.3721 34.5151 45.7768 34.5499 46.1646 34.4647C46.6827 34.2591 47.2402 34.1724 47.7962 34.2109C48.7026 34.4556 48.8204 35.1173 51.0864 33.5946C51.2314 33.4949 51.6121 33.522 51.9112 33.2229C52.9354 32.1987 52.4188 30.8119 52.4188 29.7786C52.5689 29.0762 52.6177 28.3559 52.5638 27.6396C52.536 27.5328 52.4839 27.4339 52.4116 27.3505C52.3393 27.2672 52.2487 27.2017 52.1468 27.1592C52.1468 26.8601 52.4641 26.3253 52.0109 25.7452C52.6635 25.4008 53.3705 25.002 53.0079 24.295C52.3153 23.1873 51.744 22.0082 51.3039 20.7782C51.0229 19.7268 51.4036 18.3853 51.3855 17.2523C51.3855 16.4728 51.467 15.5392 51.3855 14.6872C52.0846 14.1991 52.6188 13.51 52.9173 12.7113C52.9834 12.3884 52.9692 12.0543 52.876 11.7382C52.7827 11.4221 52.6133 11.1338 52.3825 10.8985C52.0834 10.7081 52.0199 10.8985 52.029 10.3365C52.0618 10.1393 52.0529 9.93743 52.003 9.74386C51.953 9.55029 51.8631 9.36931 51.739 9.21259C51.3583 8.84097 50.4881 8.4331 50.2162 8.05241C49.754 7.37262 49.482 6.69283 48.6119 6.42091C47.9956 6.2215 47.4155 6.61125 46.9985 6.47529C46.4275 6.29401 45.8384 5.67767 45.1857 6.33027C45.04 6.40927 44.8802 6.45874 44.7153 6.47585C44.5504 6.49296 44.3838 6.47737 44.225 6.42997C43.6811 5.96771 43.5452 5.17009 42.6207 4.99787C42.0949 4.90723 41.0617 5.16102 40.6628 4.99787C40.0095 4.51695 39.2887 4.13517 38.5238 3.86488C37.6686 3.78344 36.8058 3.85714 35.9768 4.08242C35.3967 4.20025 34.6535 4.1368 34.0462 4.22744C32.7863 4.42684 32.4237 5.51452 31.5899 6.04022C30.756 6.56593 29.3511 6.57499 28.5534 7.7533C27.8827 8.75034 28.0277 9.82894 27.7649 10.826C27.6561 11.252 27.076 11.7324 26.8585 12.1674C26.3509 13.1735 26.7407 14.1887 26.7316 15.0588C26.7225 15.929 26.1152 16.7266 26.2875 17.778C26.4274 18.3031 26.6574 18.7999 26.9673 19.2464C26.971 19.3933 26.9527 19.5399 26.9129 19.6814C26.6364 20.3947 26.5795 21.1744 26.7497 21.9202C26.8981 22.6353 27.2434 23.2946 27.7468 23.8236C28.3812 24.3765 28.7075 24.2315 29.1698 25.0201C29.3642 25.4371 29.6565 25.8009 30.0218 26.0806C30.6925 26.5338 31.5174 26.144 31.9162 26.3434C32.1643 26.4744 32.4349 26.5575 32.7138 26.5881C32.4907 26.7009 32.2979 26.8657 32.1518 27.0685C27.221 27.6939 20.7132 31.2923 16.7432 36.214C15.1751 38.2353 12.5375 41.1539 11.5495 43.4924C6.23806 55.493 8.83034 74.3097 6.69126 80.1197L1.39793 93.924C1.14414 94.5857 0.491533 97.8759 0.727195 99.0089C1.10788 100.695 2.87535 98.5829 3.95395 97.3865C3.28322 99.7703 3.29229 100.396 2.93879 109.777C2.83003 112.714 2.73032 115.913 2.685 118.605C2.6824 118.624 2.68399 118.644 2.68965 118.663C2.69531 118.681 2.70491 118.699 2.7178 118.713C2.73069 118.728 2.74658 118.739 2.76438 118.747C2.78218 118.755 2.80147 118.759 2.82096 118.759C3.07475 118.759 2.9116 119.049 3.28322 111.562C3.54608 106.296 3.84519 101.384 3.87238 100.985C4.00655 99.4356 4.34798 97.9113 4.88754 96.4529C7.4188 94.5618 10.2672 93.1376 13.2989 92.2472C16.6729 91.3446 20.2358 91.4359 23.5592 92.5101C24.4656 92.8092 26.9038 93.4165 27.774 93.0086C29.5867 92.1022 34.2547 89.102 35.0251 87.2802C35.4058 86.3738 35.7139 85.6396 36.0131 84.9598C37.3998 85.0867 39.1039 85.4402 40.6175 85.4583C42.3125 85.4583 43.4002 85.1864 45.2764 83.5277C52.174 83.6818 59.7787 83.4733 63.4042 83.3374C65.8243 84.2438 73.2567 86.8995 75.0604 88.6851C75.7674 89.374 76.1844 91.2955 76.4382 93.4346C76.7723 95.9914 76.8604 98.5744 76.701 101.148C71.734 102.1 65.4074 103.604 60.5128 104.819C60.2388 104.743 59.9523 104.721 59.6699 104.755C58.3738 104.891 58.981 105.417 58.555 104.103C58.5754 104.108 58.5967 104.107 58.617 104.102C58.6372 104.096 58.6558 104.086 58.671 104.072C58.6863 104.057 58.6978 104.039 58.7044 104.02C58.7111 104 58.7127 103.978 58.7091 103.958C58.6958 102.216 58.4921 100.48 58.1018 98.7823C58.0384 98.5285 57.5943 98.4016 57.3223 98.3201C54.3856 97.468 43.0467 96.326 40.5541 96.9695C38.9316 97.3955 27.7014 103.196 27.1939 104.429C26.6863 105.662 25.3086 113.076 25.0548 114.445C19.1813 116.158 14.5497 117.572 12.2837 118.342C12.2649 118.348 12.2476 118.358 12.2327 118.371C12.2179 118.384 12.2059 118.4 12.1974 118.418C12.1889 118.436 12.1841 118.455 12.1834 118.475C12.1826 118.495 12.1859 118.514 12.1931 118.533C12.3018 118.868 15.2748 117.327 45.7296 109.324C46.0356 110.105 46.4278 110.85 46.8988 111.544C45.9924 111.762 44.9682 112.161 44.6691 112.995C44.6159 113.171 44.6071 113.357 44.6435 113.537C44.6799 113.718 44.7603 113.886 44.8776 114.028C45.6212 114.86 46.6125 115.432 47.7055 115.659C49.6221 116.14 51.6135 116.244 53.5699 115.968C55.4484 115.804 57.2994 115.408 59.0807 114.789C61.0204 113.973 60.8935 112.759 60.1503 112.206C59.3844 111.756 58.5428 111.448 57.6668 111.3C58.4916 109.804 57.7212 110.466 58.9538 110.167C59.6514 110 60.2886 109.642 60.7938 109.133C61.5915 108.318 62.1262 106.305 61.3649 105.336C65.1898 104.429 80.5713 100.622 84.3328 100.903C91.158 101.402 140.783 121.805 152.53 125.738C152.548 125.744 152.568 125.747 152.587 125.745C152.606 125.743 152.625 125.738 152.642 125.729C152.66 125.72 152.675 125.708 152.688 125.694C152.7 125.679 152.71 125.662 152.716 125.643C152.722 125.625 152.724 125.605 152.722 125.586C152.721 125.567 152.715 125.548 152.707 125.531C152.698 125.513 152.686 125.498 152.671 125.485C152.656 125.473 152.639 125.463 152.62 125.457C149.548 124.388 142.695 121.66 134.493 118.379C134.891 117.418 135.943 114.318 136.759 113.248C137.094 112.813 137.076 112.777 140.067 112.949C147.907 113.402 154.814 113.194 162.337 110.792C166.932 109.315 169.189 105.907 170.495 101.347C170.757 101.429 171.473 101.665 171.727 101.719C171.8 101.737 171.875 101.737 171.948 101.719C172.02 101.702 172.087 101.668 172.144 101.619C173.041 100.704 172.887 93.2624 172.887 91.4768ZM48.911 29.1532C48.6657 29.2426 48.4009 29.2645 48.1442 29.2167C47.8875 29.1689 47.6484 29.053 47.4517 28.8813C47.2561 28.7247 47.1029 28.5215 47.0063 28.2902C46.9097 28.059 46.8727 27.8072 46.8988 27.558C46.8868 27.5207 46.8901 27.4802 46.9079 27.4454C46.9258 27.4105 46.9567 27.3842 46.994 27.3722C47.0313 27.3601 47.0718 27.3634 47.1066 27.3813C47.1415 27.3991 47.1678 27.4301 47.1798 27.4673C47.6273 28.111 48.2593 28.604 48.9926 28.8813C49.0159 28.9006 49.0331 28.9264 49.0419 28.9554C49.0506 28.9844 49.0507 29.0153 49.042 29.0443C49.0333 29.0733 49.0162 29.0991 48.9929 29.1185C48.9696 29.1379 48.9411 29.15 48.911 29.1532ZM40.4 21.2132C40.431 20.947 40.5379 20.6952 40.7082 20.4881C40.9076 20.2887 41.5149 20.4156 41.9409 20.1256C42.2595 19.8738 42.5012 19.5378 42.6388 19.1557C43.1464 18.1496 43.9531 18.9291 45.077 17.2704C45.3639 16.804 45.5864 16.3009 45.7387 15.7749C46.3731 15.4758 47.1979 15.9108 47.9956 14.5966C48.2584 14.1524 48.4306 13.6902 48.902 13.5633C49.2555 13.944 49.6089 15.3761 51.041 14.8232C51.041 15.3126 50.9323 17.7871 50.9051 17.9865C50.7876 18.5838 50.7239 19.1905 50.7147 19.7993C50.7147 21.612 51.5486 22.6091 52.4731 24.5034C52.6182 24.8025 51.8568 25.0926 51.4761 25.3011C50.9391 25.1032 50.3833 24.9605 49.8174 24.8751C48.059 24.4491 46.6541 25.3645 45.1404 25.7815C44.8839 25.7831 44.6281 25.7526 44.3791 25.6908C43.808 25.6364 43.2098 26.2165 42.4031 26.3253C42.1928 26.3666 41.9749 26.3437 41.7777 26.2597C41.5806 26.1756 41.4132 26.0343 41.2973 25.854C41.1996 25.522 41.1298 25.1824 41.0889 24.8388C41.0073 24.5125 40.9076 24.1862 40.8351 23.869C40.69 23.2164 41.116 22.9626 40.6175 22.0562C40.2731 21.4398 40.2822 21.7118 40.4 21.2132ZM40.7444 39.7036C41.3547 38.5454 41.8525 37.3314 42.2309 36.0781C42.7385 39.2323 43.0104 40.8276 43.1373 41.6252C42.4756 41.0723 42.4122 40.8638 40.7444 39.6674V39.7036ZM43.4636 43.3927C43.9077 46.1118 43.808 45.4955 43.8896 46.0575C43.6731 45.6496 43.4083 45.2692 43.101 44.9245C43.2025 44.3257 43.248 43.7188 43.237 43.1117L43.4636 43.3927ZM40.1825 45.0242C39.6412 44.4614 39.147 43.8551 38.705 43.2114C39.1532 42.1633 39.6585 41.1405 40.2187 40.1478C42.1221 41.6071 41.9771 41.5889 42.4484 42.1781C42.5176 42.95 42.5176 43.7266 42.4484 44.4985L40.1825 45.0242ZM40.3003 45.6133C41.3789 48.0153 41.814 51.9581 42.0406 54.5866C40.9091 51.2758 39.3877 48.1114 37.5086 45.1601C37.8761 44.6579 38.2034 44.1276 38.4875 43.5739C38.8608 44.2692 39.3075 44.9225 39.8199 45.5227C39.8854 45.5639 39.9591 45.5901 40.0359 45.5995C40.1127 45.6089 40.1906 45.6012 40.264 45.5771L40.3003 45.6133ZM34.9163 26.2165C34.9901 26.2394 35.066 26.2546 35.1429 26.2618C35.354 26.2524 35.5563 26.1748 35.7197 26.0409C35.883 25.9069 35.9987 25.7237 36.0493 25.5186C36.1943 25.428 36.3031 25.3283 36.294 25.156C36.285 24.9838 34.3362 22.319 36.8197 20.9504C37.0388 20.9266 37.2589 20.9835 37.4391 21.1102C37.6192 21.237 37.7471 21.4251 37.7986 21.6392C37.9159 22.1227 38.1636 22.5648 38.5147 22.9173C38.5421 23.4966 38.6179 24.0727 38.7413 24.6394C38.8138 24.9748 38.56 25.4098 38.5056 25.8721C38.3787 26.7785 39.2579 27.7755 39.5752 28.5913C40.0012 29.688 39.7111 30.8663 40.7263 31.8362C41.7415 32.806 41.5511 32.0084 41.9046 34.1837C41.4817 35.8933 40.8991 37.5593 40.1643 39.1598C39.1401 37.7096 33.9555 29.2439 32.9132 27.3133C33.3029 27.0776 34.5175 26.3887 34.8801 26.1803L34.9163 26.2165ZM32.1971 27.422C32.8588 28.9629 39.4483 39.4045 39.4483 39.4952C39.131 40.5013 37.3092 44.6707 36.4481 45.1239C34.5538 43.7733 29.3601 29.5702 28.9885 28.2831C30.0111 27.845 31.0868 27.5433 32.1881 27.3858L32.1971 27.422ZM41.5511 67.4393C40.5541 67.122 37.3364 56.2 34.4631 50.1543C32.741 46.5288 29.3601 40.5375 25.6711 38.9423C21.683 37.2292 14.2687 41.3351 13.4801 46.6647C12.9986 50.1796 13.2831 53.7571 14.314 57.1517C18.5922 70.0859 24.384 80.4007 36.7563 83.3555C37.0463 82.7754 36.0221 83.2558 44.1615 83.4733C43.7626 83.7836 43.3381 84.0595 42.8926 84.2982C41.3698 85.123 38.4784 84.4613 36.3394 84.2256L36.6113 83.6365C23.8674 80.7904 17.9033 70.0406 13.6342 57.3511C12.5561 53.8542 12.2469 50.1655 12.7278 46.5378C13.5436 40.7732 21.2207 36.64 25.4717 38.0721C26.5556 38.476 27.5479 39.0923 28.3903 39.8849C27.9861 36.2529 27.886 32.5934 28.0912 28.9448C28.2577 28.7968 28.4367 28.6634 28.626 28.5459C29.4055 31.2651 33.8468 44.2628 36.1037 45.704C36.2468 45.7886 36.4144 45.8221 36.5791 45.799C36.7437 45.776 36.8957 45.6977 37.0101 45.5771C39.0495 49.0848 40.9529 52.6741 41.7143 56.4538C42.145 58.5398 42.255 60.6793 42.0406 62.7985C40.7535 57.4689 37.1914 49.7646 33.1398 46.0756C37.282 53.227 40.3003 64.6657 41.6508 66.9226C42.1911 67.0715 42.7429 67.1746 43.3005 67.2308C43.0648 61.7924 42.8835 50.4535 40.5813 45.5317C40.8623 45.5317 42.8473 45.1057 42.8473 45.1057C43.2052 45.5356 43.5096 46.0073 43.7536 46.5107C44.1253 47.2267 43.9984 46.6829 44.5603 50.4897C47.2795 68.0647 47.1254 67.974 47.4789 68.1644C45.7024 67.9378 42.5753 67.7474 41.5511 67.4393ZM47.5696 63.8137C44.0346 43.7462 43.9984 43.1842 42.5119 34.8091C42.6297 34.4103 42.7204 34.084 42.7838 33.8483C43.3458 34.5644 46.4094 38.4891 46.7447 39.3501C46.2462 39.7943 44.4516 40.5556 44.9954 41.1629C45.2401 41.4439 47.2614 43.1932 47.8959 43.8277C48.2403 45.287 47.6965 61.2758 47.5696 63.8137ZM25.4173 114.327C25.6711 113.176 27.3298 105.689 27.7921 104.638C28.1274 103.858 39.0585 98.0572 40.7807 97.6221C43.2642 96.9695 56.7876 98.311 57.7302 98.9183C58.1558 100.499 58.405 102.123 58.4735 103.758C56.9507 101.946 45.1676 102.426 45.0407 104.982C45.0382 105.066 45.0558 105.149 45.0921 105.225C45.1284 105.301 45.1822 105.366 45.2492 105.417C45.2433 106.513 45.368 107.605 45.6208 108.671C38.6597 110.547 31.6986 112.505 25.4173 114.327ZM59.9781 112.913C60.4403 114.409 55.011 115.052 53.443 115.233C51.5811 115.499 49.6855 115.403 47.8596 114.952C47.062 114.735 45.5846 114.155 45.3036 113.43C45.1676 113.085 45.6118 112.759 45.9381 112.587C46.3515 112.371 46.7898 112.206 47.2433 112.097C47.737 112.778 48.3992 113.318 49.1648 113.665C50.0712 114.064 53.9415 113.783 55.283 113.493C55.8721 113.366 56.4975 113.194 57.3858 111.771C57.9296 111.852 59.824 112.414 59.9781 112.913ZM55.6455 112.596C54.9657 113.004 50.1618 113.33 49.4277 113.031C46.9985 112.061 45.6752 108.272 45.5755 105.598C47.5502 106.033 49.5769 106.182 51.5939 106.043C53.1076 105.843 56.6879 105.227 58.0021 104.565C58.7907 107.538 57.1229 111.735 55.6455 112.596ZM60.7122 107.919C60.4669 108.404 60.1222 108.832 59.7006 109.176C59.279 109.519 58.7899 109.771 58.265 109.913C58.7392 108.641 58.9638 107.29 58.9267 105.934C58.9982 105.784 59.1021 105.652 59.2308 105.547C59.3595 105.442 59.5099 105.367 59.6711 105.327C59.8323 105.287 60.0003 105.283 60.1631 105.316C60.3259 105.349 60.4794 105.418 60.6125 105.517C61.2923 105.961 60.9932 107.148 60.7122 107.919ZM154.071 33.2411C160.198 36.6219 162.917 38.0359 164.875 40.9998C163.643 39.9408 162.076 39.353 160.452 39.3411C154.642 39.1417 151.787 47.7433 150.3 53.3086C147.835 62.5901 149.348 74.3369 149.212 76.0591C147.644 77.5183 139.614 81.6877 136.024 83.6365C136.523 81.5337 138.299 73.4214 139.46 70.2219C141.019 65.9256 145.505 55.919 145.804 53.7437C145.886 53.1001 145.759 53.0185 143.856 51.7859C144.59 51.7859 146.575 51.5864 147.191 51.4686C147.454 51.4686 147.59 51.3508 147.69 50.7979C148.025 48.8763 148.678 33.0417 148.732 31.3558C148.669 31.3195 153.291 32.7969 154.098 33.2411H154.071ZM147.082 31.0748C147.495 31.045 147.91 31.0911 148.306 31.2107C147.853 37.7821 147.4 49.3386 146.974 50.816C146.493 50.9067 144.789 51.0245 144.128 51.0698C142.714 51.1514 142.677 51.0698 142.532 51.2692C142.387 51.4686 142.587 51.7405 142.85 51.9218C143.312 52.2481 144.853 53.2179 145.07 53.4717C144.861 54.5509 144.539 55.6051 144.109 56.6169C138.988 70.2128 139.296 66.0343 135.852 80.9445C136.082 73.8022 136.742 66.6801 137.828 59.6171C138.553 55.7287 139.432 52.0759 142.36 43.7552C143.511 40.5375 145.895 34.3741 145.986 34.4103C146.44 33.3271 146.816 32.2123 147.11 31.0748H147.082ZM131.338 86.7001C131.511 87.3708 131.511 87.2802 131.456 87.2893L131.175 87.2349C131.175 87.1442 130.686 78.0441 130.921 74.2825C131.347 67.6205 131.891 60.3966 132.399 53.4355C132.644 50.0637 133.568 42.8216 133.541 43.0935L134.447 42.4228C134.823 43.1732 135.25 43.897 135.725 44.5891C135.907 44.8338 136.151 45.142 136.441 45.1692C136.242 46.8098 133.224 67.0495 132.335 79.9837C131.846 87.0264 132.335 85.5308 131.619 86.1744C131.534 86.2318 131.466 86.3106 131.421 86.403C131.377 86.4953 131.358 86.5979 131.366 86.7001H131.338ZM136.722 45.1783C137.411 45.1783 138.154 43.728 139.061 43.1117C139.414 43.4833 140.484 45.2598 141.191 45.4955C138.191 53.7255 134.982 65.2005 134.991 84.1441C134.221 84.561 133.178 85.1592 132.408 85.6034C132.861 77.89 136.142 52.5744 136.75 45.1783H136.722ZM146.239 32.9963C145.949 33.9027 141.644 44.299 141.345 44.7794C140.878 44.3212 140.461 43.8137 140.103 43.2658C139.342 42.2415 139.079 41.9062 137.783 43.3655C139.704 39.7399 143.457 36.0599 145.034 34.229C146.539 32.5069 146.339 32.6519 146.239 32.9963ZM125.936 13.9621C126.612 14.1704 127.336 14.1704 128.012 13.9621C128.529 13.7322 129.1 13.6506 129.662 13.7264C130.454 14.0916 131.268 14.4064 132.1 14.6691C133.128 14.66 134.155 14.5782 135.172 14.4244C135.639 14.6421 136.033 14.9877 136.311 15.4209C136.588 15.8541 136.737 16.3571 136.74 16.8716C135.051 17.1169 133.421 17.6666 131.928 18.4941C131.836 18.1965 131.654 17.9346 131.407 17.7447C131.161 17.5547 130.861 17.446 130.55 17.4336C129.064 17.2547 127.562 17.2365 126.072 17.3792C125.94 16.221 125.895 15.0545 125.936 13.8896V13.9621ZM125.583 21.6936C125.356 21.2948 124.912 18.204 125.365 17.8686C125.438 17.9593 125.121 17.6783 126.843 17.6964C128.056 17.7347 129.267 17.8437 130.468 18.0227C131.284 18.1678 131.42 18.5394 131.375 19.3279C131.375 20.7872 131.42 20.6422 131.375 21.0954C131.375 21.2223 131.32 21.5577 131.221 21.6302C129.356 21.9676 127.446 21.9645 125.583 21.6211V21.6936ZM133.913 31.9087C131.429 31.2017 129.154 31.111 127.622 27.9568C126.634 25.9265 127.178 25.3373 126.281 25.0745C125.948 25.0348 125.62 24.9619 125.302 24.8569C125.302 24.2496 126.063 22.9807 126.208 22.3372C127.713 22.5171 129.235 22.5171 130.74 22.3372C131.647 22.2012 132.127 22.0471 131.982 20.2071V18.8022C133.405 18.3672 136.423 17.6511 136.786 17.5514C136.788 18.0445 136.855 18.5351 136.985 19.0107C137.127 19.3097 137.371 19.5478 137.674 19.6814C137.722 19.703 137.775 19.713 137.828 19.7108C137.881 19.7086 137.933 19.6943 137.979 19.6688C138.026 19.6434 138.066 19.6076 138.096 19.5642C138.126 19.5208 138.146 19.471 138.154 19.4186C138.363 18.5756 138.526 17.8233 138.59 17.4608C138.59 17.6602 138.671 16.8263 139.269 16.5C140.176 16.0287 141.581 17.0801 141.68 18.5666C141.735 19.2917 141.01 20.606 140.466 22.1196C140.139 23.026 142.115 23.4158 142.804 23.7511C143.058 24.3403 142.904 25.002 143.248 25.3554C143.765 25.6741 144.332 25.9039 144.925 26.0352C145.55 28.0387 146.005 30.0914 146.285 32.1715C143.983 34.5916 143.466 35.1717 142.85 35.7971C140.442 38.085 138.4 40.7293 136.795 43.6374C136.151 39.8577 134.928 36.5222 134.792 35.4255C134.683 34.5735 134.864 33.0688 134.465 32.2622C134.405 32.1662 134.324 32.0847 134.228 32.0236C134.133 31.9625 134.025 31.9232 133.913 31.9087ZM134.175 34.9813C134.61 36.5947 135.771 41.8337 136.106 43.9365C135.553 43.1026 134.873 41.7249 134.873 41.7249C134.85 41.6757 134.815 41.6325 134.773 41.5985C134.73 41.5644 134.681 41.5404 134.627 41.5282C134.574 41.516 134.519 41.5159 134.466 41.528C134.413 41.5401 134.363 41.564 134.32 41.598L133.659 42.1056C133.913 39.749 134.166 37.347 134.203 34.9813H134.175ZM133.913 34.1746C133.831 40.8457 132.499 46.7916 131.955 53.4355C130.142 75.769 130.142 74.6723 130.323 82.576C129.344 75.4336 127.976 61.5386 127.223 54.0065C127.758 53.5986 130.341 51.6318 130.631 51.0335C130.767 50.7435 130.631 50.4444 129.979 50.4444C128.844 50.5299 127.705 50.5299 126.571 50.4444C127.26 47.6346 131.202 37.3833 132.254 34.6641C132.789 34.51 133.233 34.3559 133.913 34.1746ZM91.7743 66.6598C93.1792 65.1823 110.809 61.738 111.769 60.8045C113.12 59.4449 116.836 51.0064 120.625 44.6072C123.842 39.1689 125.592 37.1567 131.855 34.8454C130.35 38.5706 127.414 45.858 126.09 50.1C126.009 50.3628 125.891 50.6529 126.09 50.8251C126.589 51.3145 128.674 51.0245 129.87 51.0426C129.027 51.8856 126.707 53.5986 126.707 53.5986C126.662 53.6316 126.627 53.6758 126.604 53.7267C126.582 53.7776 126.574 53.8335 126.58 53.8887C126.96 58.0943 129.299 83.1924 130.314 86.8361L128.683 86.4191C127.628 85.9013 126.483 85.5935 125.311 85.5127C127.377 75.2342 126.634 72.361 126.888 66.7595C126.888 66.1794 124.441 54.5232 124.423 54.4325C124.423 54.3941 124.407 54.3572 124.38 54.33C124.353 54.3028 124.316 54.2875 124.278 54.2875C124.239 54.2875 124.202 54.3028 124.175 54.33C124.148 54.3572 124.133 54.3941 124.133 54.4325C124.287 58.4025 125.411 62.1822 126.181 66.5147C123.281 69.2339 120.244 72.9954 115.304 74.2191C112.25 74.9895 97.9469 78.1075 96.0434 78.2435C94.4844 76.5032 91.5296 67.8199 91.7743 66.6598ZM90.0522 67.8653C90.0522 67.8653 91.1398 67.6024 91.1217 67.4302C91.9681 70.6151 93.0342 73.7375 94.3122 76.7751C93.4882 77.03 92.6458 77.2209 91.7924 77.3461C91.2758 77.3461 91.6384 77.7993 90.3785 74.8082C89.6021 72.9487 88.9363 71.045 88.3844 69.107C88.2303 68.4816 87.9675 68.5451 90.0522 67.8653ZM79.4383 69.7777C80.1544 68.9892 80.671 68.8714 87.8315 69.7777C88.4683 71.939 89.2403 74.0581 90.1428 76.1225C88.6693 77.2712 86.9803 78.1126 85.1758 78.5969C85.1214 78.2072 84.9945 78.325 85.3027 78.3522C85.563 78.3596 85.8216 78.3084 86.0595 78.2025C86.2974 78.0966 86.5085 77.9387 86.6772 77.7404C86.846 77.5421 86.968 77.3084 87.0345 77.0567C87.1009 76.8049 87.11 76.5414 87.0611 76.2856C86.9886 75.3793 84.3963 73.494 83.6621 72.9773C84.0979 73.067 84.5502 73.0325 84.9673 72.8776C85.0046 72.8656 85.0355 72.8393 85.0534 72.8044C85.0712 72.7696 85.0745 72.7291 85.0625 72.6918C85.0505 72.6545 85.0241 72.6236 84.9893 72.6057C84.9544 72.5879 84.9139 72.5846 84.8767 72.5966C83.3539 72.9954 81.8131 71.1827 81.6137 71.1283C80.9157 70.9561 81.3508 72.5785 79.8009 73.5483C79.5743 73.6934 78.7041 73.3671 78.6498 72.9229C78.5357 72.3731 78.5473 71.8047 78.6839 71.26C78.8204 70.7154 79.0783 70.2087 79.4383 69.7777ZM69.3049 72.6329C70.465 72.2159 76.3747 70.385 78.0787 70.8201C77.8869 71.5442 77.8438 72.2996 77.9518 73.0408C78.0094 73.2762 78.1171 73.4965 78.2675 73.6865C78.418 73.8766 78.6076 74.032 78.8235 74.1421C79.0395 74.2522 79.2766 74.3145 79.5188 74.3246C79.761 74.3348 80.0025 74.2926 80.2269 74.2009C80.8586 73.7797 81.3334 73.1615 81.5774 72.4425C82.3841 72.932 86.3904 75.5877 86.336 76.5304C86.336 77.1648 86.0006 77.6996 85.3661 77.6452C84.8305 77.4533 84.3241 77.1879 83.8615 76.8567C83.396 76.4849 82.9054 76.1457 82.3932 75.8415C82.3117 75.7992 82.2175 75.7886 82.1287 75.8116C82.0398 75.8347 81.9627 75.8897 81.912 75.9663C81.8614 76.0428 81.8409 76.1353 81.8544 76.2261C81.8679 76.3169 81.9145 76.3994 81.9853 76.4579C81.9853 76.4579 82.6651 76.9654 83.4174 77.4549C84.5504 78.3613 84.9401 79.1952 83.5352 79.6212C83.3153 79.6865 83.0842 79.7057 82.8565 79.6776C82.6288 79.6495 82.4094 79.5748 82.2119 79.458C81.9809 79.0019 81.6745 78.5882 81.3055 78.2344C81.1408 77.8109 80.8457 77.4509 80.4627 77.2065C80.0797 76.962 79.6289 76.8458 79.1755 76.8748C78.7041 76.9292 78.6679 77.1648 78.7132 76.9473C78.9307 75.8687 77.553 75.2161 76.5922 75.3974C75.0423 75.7056 74.1812 77.754 73.6737 79.2495C73.3655 79.9022 74.5801 79.177 69.2777 81.0623C69.4271 78.4299 69.4271 75.7911 69.2777 73.1586C69.2323 72.5332 69.2142 72.6782 69.3049 72.6329ZM73.9275 79.3493C74.426 78.2797 75.5227 76.2766 76.692 76.0953C77.1451 76.0137 78.0606 76.3219 77.9609 76.7842C77.7646 78.0116 77.1986 79.1499 76.3385 80.0472C76.4472 80.2285 73.6102 80.2828 73.9275 79.3493ZM79.0576 77.618C79.2752 77.4005 80.5441 77.8446 80.5804 78.5244C80.6438 79.6574 79.5652 81.0079 78.6316 81.6334C78.3325 81.8418 77.1542 80.8811 76.8823 80.4913C77.5297 79.4771 78.2571 78.5163 79.0576 77.618ZM80.5894 80.6363C80.6529 80.5457 81.5593 78.5335 81.7134 80.2013C81.7768 80.8539 80.807 81.1983 80.1725 81.1077C80.32 80.9583 80.4591 80.8009 80.5894 80.6363ZM100.748 92.4194C96.9317 95.3833 96.3879 99.2808 97.0133 103.931C90.8861 101.755 86.2091 100.305 84.3872 100.151C81.9214 100.202 79.4674 100.505 77.0636 101.057C77.3083 98.6192 77.1995 90.0628 75.4683 88.3044C73.7371 86.546 67.4558 84.1441 65.0901 83.2377H65.6249C65.8334 83.1289 65.4889 82.1772 66.2775 82.1228C67.2292 82.0684 68.5616 82.431 68.9967 82.0503C69.1266 81.8529 69.2017 81.6246 69.2142 81.3886C70.2112 81.0714 72.5588 80.3553 73.7462 80.0472C74.1454 80.364 74.6127 80.5838 75.1113 80.6892C75.6099 80.7946 76.1262 80.7827 76.6194 80.6545C76.8914 81.2617 78.1603 82.5941 78.9489 82.1591C79.1676 82.0327 79.3766 81.8903 79.5743 81.7331C80.1476 81.892 80.7564 81.8666 81.3146 81.6606C81.6099 81.5801 81.8734 81.4109 82.0695 81.1758C82.2657 80.9408 82.385 80.6513 82.4113 80.3463C82.8859 80.4826 83.3919 80.4608 83.853 80.2842C84.3141 80.1076 84.7052 79.7858 84.9673 79.3674C86.9546 78.9208 88.8142 78.0282 90.4057 76.757C90.5779 77.1286 90.741 77.4458 90.877 77.6634C90.922 77.7398 90.9854 77.8039 91.0613 77.8498C91.1373 77.8957 91.2234 77.9219 91.3121 77.9262C92.2185 78.0169 94.3575 77.0198 94.4482 77.0198C94.7587 77.6676 95.1451 78.2761 95.5993 78.8326C95.7625 78.9958 96.0344 78.9504 96.2882 78.9232C98.9167 78.606 111.969 75.7962 115.458 74.9261C119.99 73.7931 122.945 70.6116 126.054 67.5843C125.882 72.787 126.562 75.3249 124.504 85.5399C120.226 86.0719 115.987 86.8833 111.815 87.969C108.162 89.0114 103.811 90.0447 100.748 92.4285V92.4194ZM113.972 110.303L113.655 110.176C113.582 105.571 114.724 101.329 118.096 98.1841C118.394 98.26 118.697 98.3175 119.002 98.3563C115.531 101.329 114.162 105.662 113.972 110.303ZM128.284 95.193C125.565 96.7882 126.362 97.6493 123.87 97.9122C121.873 98.0493 119.867 97.8936 117.915 97.4499C116.338 96.9423 117.171 96.335 118.821 96.1538C119.102 96.1991 121.314 96.2172 122.356 96.1538C122.441 96.1402 122.519 96.0967 122.575 96.031C122.631 95.9654 122.661 95.882 122.661 95.7957C122.661 95.7095 122.631 95.6261 122.575 95.5604C122.519 95.4948 122.441 95.4513 122.356 95.4377C121.18 95.3365 119.999 95.3184 118.821 95.3833C118.071 95.3725 117.324 95.2844 116.591 95.1205C116.518 95.0016 116.476 94.8666 116.468 94.7274C116.46 94.5882 116.487 94.4492 116.546 94.3229C117.498 93.7518 121.984 93.9694 122.728 93.9422C122.815 93.9284 122.895 93.8838 122.952 93.8165C123.01 93.7492 123.041 93.6636 123.041 93.5751C123.041 93.4865 123.01 93.4009 122.952 93.3336C122.895 93.2663 122.815 93.2218 122.728 93.208C121.24 93.2394 119.753 93.1607 118.277 92.9723C117.643 92.8636 116.165 92.5463 116.274 91.9028C116.474 90.7426 118.857 91.7396 120.534 91.6218C121.717 91.6041 122.888 91.3834 123.997 90.9692C124.08 90.944 124.149 90.8868 124.19 90.8103C124.231 90.7338 124.239 90.6443 124.214 90.5613C124.189 90.4784 124.132 90.4089 124.055 90.3681C123.979 90.3273 123.889 90.3186 123.806 90.3438C122.672 90.6164 121.522 90.8162 120.362 90.942C120.288 90.9268 120.223 90.8852 120.178 90.8251C120.133 90.7651 120.111 90.6906 120.117 90.6157C120.13 90.4463 120.173 90.2806 120.244 90.1263C120.711 89.5167 121.339 89.0491 122.057 88.7757C124.631 87.7062 126.589 88.7757 129.535 88.9661C129.904 90.6421 130.373 92.2947 130.94 93.915C130.036 94.2761 129.161 94.7033 128.32 95.193H128.284ZM131.746 94.0872C131.429 93.0177 130.251 89.1383 130.133 88.2319C130.601 88.0034 131.093 87.83 131.601 87.7153C132.018 89.2652 132.789 91.9572 133.287 93.4618C132.801 93.705 132.298 93.914 131.782 94.0872H131.746ZM134.311 94.0872C133.831 92.9995 132.408 87.9328 132.082 86.6638C133.641 85.3858 147.635 78.5063 149.72 76.4125C150.373 75.7599 148.17 63.4783 150.753 53.372C152.131 47.9337 154.832 39.3864 160.406 39.5767C164.231 39.7036 166.416 42.6222 167.658 46.2659C169.933 52.9732 169.026 62.2819 169.026 62.1912C169.026 69.7959 166.307 81.2255 160.869 86.6638C156.763 90.7789 136.867 94.5495 134.348 94.1144L134.311 94.0872ZM171.682 100.976C170.621 100.695 165.754 98.9001 163.697 98.7279C153.01 97.8215 153.672 95.7912 147.064 92.8908C150.69 91.9844 158.748 89.8815 161.422 87.2349C167.068 81.6334 169.679 70.0859 169.652 62.2728C169.861 59.5365 169.861 56.7881 169.652 54.0518C171.655 65.418 172.887 97.5315 171.682 100.976Z" fill="#2C2C2C"/>
<path fill-rule="evenodd" clip-rule="evenodd" d="M45.3655 42.1898L42.3926 42.5342C43.2989 43.3865 44.1242 44.3211 44.858 45.3259L45.6828 42.6067C45.7079 42.558 45.7188 42.5031 45.714 42.4485C45.7093 42.3938 45.6891 42.3417 45.6559 42.298C45.6227 42.2544 45.5778 42.221 45.5264 42.2019C45.475 42.1827 45.4192 42.1785 45.3655 42.1898ZM131.346 124.907C130.598 124.434 129.773 124.096 128.908 123.91C130.965 120.566 130.594 116.659 130.05 116.315C129.538 115.793 128.856 115.471 128.128 115.408C125.409 114.837 118.82 114.792 117.079 116.242C116.699 116.559 116.472 117.076 116.844 117.42C116.667 119.569 117.117 121.722 118.14 123.62C117.233 123.792 116.182 124.137 115.838 124.952C115.778 125.128 115.762 125.315 115.79 125.498C115.819 125.681 115.891 125.855 116.001 126.004C116.697 126.867 117.649 127.486 118.72 127.771C120.612 128.347 122.596 128.553 124.566 128.379C126.448 128.302 128.314 127.998 130.122 127.472C132.125 126.729 132.107 125.505 131.346 124.907ZM117.161 117.583C119.109 118.116 121.124 118.366 123.143 118.327C125.345 118.176 127.519 117.75 129.615 117.058C129.796 118.305 129.73 119.575 129.418 120.796C129.107 122.017 128.558 123.165 127.802 124.173C127.619 124.493 127.356 124.76 127.037 124.946C126.719 125.132 126.358 125.231 125.989 125.233C124.72 125.397 121.258 125.487 120.551 125.17C118.258 124.11 117.125 120.257 117.161 117.583ZM124.53 127.554C122.659 127.731 120.771 127.54 118.974 126.992C118.16 126.77 117.411 126.357 116.789 125.786C116.644 125.632 116.409 125.324 116.481 125.134C116.717 124.536 117.868 124.227 118.502 124.119C118.957 124.811 119.581 125.376 120.315 125.759C121.222 126.221 126.243 126.167 127.177 125.687C127.758 125.331 128.251 124.848 128.618 124.273C129.152 124.427 131.02 125.061 131.147 125.569C131.554 127.128 126.161 127.499 124.53 127.599V127.554Z" fill="black"/>
</svg>
