<svg width="182" height="182" viewBox="0 0 182 182" fill="none" xmlns="http://www.w3.org/2000/svg">
<path d="M61.1518 103.178C61.4152 103.732 61.7421 104.431 62.3868 104.522C63.8035 104.522 65.8648 103.432 65.2655 101.907C64.9469 101.097 64.5831 100.305 64.1758 99.5364C63.9487 98.7373 63.6218 97.9836 62.8136 97.8837C62.0665 97.9331 61.3529 98.2122 60.7705 98.6828C59.0723 99.5364 60.0167 100.744 61.1518 103.178ZM60.162 99.7089C60.38 99.0279 61.7421 98.4376 62.6865 98.3831C63.2949 98.4649 63.4947 99.3639 63.8125 99.9178C64.2847 100.717 65.4653 102.106 64.8841 102.996C64.6073 103.375 64.243 103.681 63.8224 103.888C63.4018 104.095 62.9373 104.197 62.4686 104.186C61.8783 104.013 61.6604 103.278 61.3516 102.551C61.0429 101.825 59.8715 100.644 60.162 99.7089ZM69.9149 98.138C69.3155 96.5942 68.5255 94.6055 67.0998 95.5227C66.1917 95.9313 65.3563 96.2128 65.0748 96.8666C64.9875 97.176 64.974 97.5014 65.0356 97.8169C65.0971 98.1324 65.2318 98.429 65.4289 98.6828C65.9919 99.7362 66.5822 102.833 68.5891 101.77C70.4234 100.917 71.2134 100.617 69.9149 98.138ZM67.1906 101.189C66.7756 100.569 66.4169 99.9122 66.1191 99.2277C65.4653 97.92 64.3029 96.9121 66.4732 96.2946C68.353 95.2957 68.2894 96.0221 69.3065 98.1107C69.6243 98.7827 70.0692 99.0733 70.2145 100.063C70.2963 100.653 69.7242 100.971 69.0885 101.144C69.0976 100.853 67.9716 102.143 67.2179 101.189H67.1906ZM74.764 94.2695C74.1738 93.0436 73.9558 92.8711 73.4019 92.7349C72.7845 92.7442 72.1851 92.944 71.6856 93.3069C69.8695 94.3058 70.4234 94.887 71.1226 96.5761C72.5392 99.9905 73.0568 99.8997 75.2998 98.3922C75.4616 98.3158 75.6064 98.2076 75.7255 98.0741C75.8447 97.9405 75.9358 97.7844 75.9934 97.615C76.051 97.4456 76.0739 97.2663 76.0609 97.0878C76.0478 96.9093 75.999 96.7353 75.9173 96.5761C75.5974 95.7766 75.2116 95.0051 74.764 94.2695ZM74.6551 98.3014C72.403 99.3094 72.9842 99.1369 71.4223 96.3944C71.1135 95.786 70.6232 95.4228 70.7231 94.4875C70.8411 94.0153 71.5131 93.6974 71.9217 93.5794C74.0103 92.6713 73.7379 93.307 75.091 95.6952C75.4957 96.1805 75.7372 96.7811 75.7811 97.4115C75.654 98.1289 74.3826 98.3014 74.6551 98.3014ZM82.5554 87.8857C81.4566 88.6394 82.0741 89.8653 82.7733 91.0004C83.4998 92.6713 84.081 94.3603 85.7337 93.3069C87.3592 92.4897 88.0856 92.3989 87.3683 90.7007C87.068 89.9095 86.7036 89.1442 86.2785 88.4124C85.3523 86.3692 84.4805 86.8141 82.5554 87.8857ZM83.5452 87.8312C84.1355 87.5134 84.753 87.2046 85.2433 87.5497C85.7208 88.0636 86.0639 88.6875 86.2422 89.3659C86.7326 90.4465 88.2945 92.0901 86.5782 92.6077C85.0436 93.4159 84.2354 93.6611 83.6088 91.963C83.2637 91.2274 82.2012 89.5656 82.2648 88.6848C82.5826 88.2217 82.846 88.2035 83.5452 87.8312ZM87.8677 86.8232C88.9574 89.1388 89.4841 91.745 91.3729 90.5464C92.5625 89.947 93.8429 89.4022 93.1891 88.1399C92.8519 87.3264 92.4699 86.5321 92.0449 85.7608C91.4546 84.5349 91.2276 84.3532 90.6737 84.2261C90.0563 84.2354 89.4569 84.4352 88.9574 84.7982L88.5306 85.0252C88.3663 85.0966 88.2183 85.2005 88.0953 85.3307C87.9723 85.4608 87.8769 85.6146 87.815 85.7826C87.753 85.9506 87.7258 86.1294 87.7348 86.3083C87.7439 86.4872 87.7891 86.6623 87.8677 86.8232ZM90.9552 84.7165C91.4287 85.2318 91.7686 85.8554 91.945 86.5326C92.6896 87.7949 93.6794 89.2569 92.2901 89.7654C90.0562 90.9187 90.1016 90.619 89.1572 88.6122C88.1674 86.9322 87.2411 85.8879 88.9846 85.1524C88.9846 85.3067 90.2832 84.2897 90.9552 84.7165ZM77.7426 94.1696C76.9253 92.8257 77.2522 92.6713 76.0717 91.1185C76.4531 92.8075 76.7073 92.6077 77.3612 94.1061C77.7051 95.0497 78.1657 95.9466 78.7324 96.7758C78.8595 96.6396 79.0048 96.6487 78.5326 95.7043C78.3039 95.1756 78.04 94.6629 77.7426 94.1696ZM80.2035 91.4C79.9117 90.7146 79.5463 90.063 79.1138 89.4567C79.2445 90.2003 79.5224 90.9104 79.931 91.5453C80.6575 92.8257 80.9209 94.097 81.7926 95.1776C82.2467 94.7599 80.9572 93.2252 80.2035 91.4ZM25.1372 120.268C24.102 118.334 24.3563 118.188 23.3937 117.235C23.521 117.906 23.7803 118.545 24.1565 119.115C24.8829 120.386 25.1554 121.666 26.018 122.747C26.2905 122.502 25.1917 120.368 25.1372 120.268ZM28.7968 121.349C29.0511 121.103 28.8785 121.049 28.706 120.613C28.3519 119.825 27.9579 119.055 27.5255 118.307C27.1698 117.395 26.7064 116.529 26.1452 115.728C26.5538 117.498 26.799 117.244 27.4437 118.742C27.78 119.666 28.2348 120.542 28.7968 121.349ZM33.655 115.473C33.4358 114.702 33.0585 113.984 32.5472 113.367C31.9024 112.831 31.2668 113.158 30.6493 113.457C29.16 114.184 28.9784 114.365 28.9148 114.919C28.9349 115.592 29.1493 116.245 29.5323 116.799C30.8309 119.26 30.5494 120.431 33.1647 119.151C33.4978 119.088 33.8052 118.929 34.0489 118.694C34.2926 118.458 34.4619 118.156 34.5359 117.825C34.3975 116.992 34.0983 116.193 33.655 115.473ZM34.1727 118.252C33.5279 118.96 33.0739 118.897 32.3565 119.278C31.6391 119.66 31.2849 119.124 30.8854 118.543C29.6504 116.054 28.8785 115.446 29.5051 114.674C29.6106 114.548 29.7408 114.446 29.8876 114.372C30.0344 114.299 30.1948 114.256 30.3587 114.247C31.6573 113.575 32.1749 113.339 32.8287 114.511C33.8003 116.745 34.4996 117.289 34.1727 118.252ZM39.0037 113.394C38.6132 111.832 37.5961 109.907 36.2794 110.779C35.3713 111.187 34.5359 111.469 34.2544 112.122C34.1658 112.431 34.1509 112.756 34.2108 113.072C34.2708 113.387 34.4039 113.684 34.5995 113.939C35.1715 115.001 35.7618 118.089 37.7596 117.035C39.494 116.272 39.5758 116.127 39.6847 115.7C39.7378 115.29 39.7046 114.872 39.5873 114.475C39.4701 114.078 39.2713 113.71 39.0037 113.394ZM38.1773 116.436C36.6608 117.226 36.4519 116.681 36.3611 116.518C36.0876 116.182 35.8698 115.805 35.7164 115.401C34.9264 113.43 33.2464 112.222 35.6528 111.523C37.7687 110.397 37.469 111.523 38.8039 113.893C39.1052 114.314 39.2957 114.805 39.3578 115.319C39.4305 115.809 39.0672 115.982 38.1773 116.436ZM40.2387 108.699C39.922 108.864 39.6806 109.145 39.5641 109.482C39.4476 109.82 39.4648 110.19 39.6121 110.515C40.6564 112.604 41.1649 115.491 43.1627 114.22C44.6429 113.457 45.0606 113.312 45.0606 112.767C45.2331 111.859 43.6258 109.071 43.6712 109.135C42.7904 107.246 41.9731 107.818 40.2387 108.699ZM41.5281 108.572C42.9538 107.836 43.1627 109.162 44.1616 110.96C44.7155 111.868 45.2967 112.776 44.2978 113.303C43.9837 113.48 43.6592 113.637 43.3261 113.775C41.4555 114.574 41.964 113.712 40.6019 111.632C40.3113 111.042 39.8119 110.66 39.9117 109.725C40.0298 109.198 40.4838 109.117 41.5281 108.572ZM52.1891 107.155C52.8065 108.427 53.0245 108.717 53.5603 108.79C54.9496 108.79 55.6489 107.8 55.6489 108.081C56.7113 107.319 57.0836 107.173 55.3129 103.813C54.7589 102.606 54.5501 102.333 53.9507 102.179C53.2038 102.236 52.4915 102.518 51.9076 102.987C49.9642 103.941 51.5625 105.503 52.1891 107.155ZM53.7782 102.615C54.3775 102.706 54.5864 103.596 54.9042 104.168C55.2221 104.74 55.6852 105.53 56.0847 106.329C56.4026 106.937 56.0393 107.637 55.7851 107.682C53.2878 109.008 53.2334 108.59 52.4706 106.837C52.3616 106.592 52.2708 106.592 51.4081 104.849C50.6362 103.414 52.6613 102.697 53.7782 102.615ZM45.7871 108.381C46.1321 108.98 47.1492 111.105 47.7485 112.068C48.1844 111.632 47.013 110.143 46.3137 108.581C46.0037 107.819 45.561 107.118 45.0061 106.511C45.1341 107.181 45.4 107.818 45.7871 108.381ZM49.1379 107.155C49.4398 107.66 49.7009 108.189 49.9188 108.735C50.2003 109.289 50.6635 110.088 50.8814 110.424C51.3173 109.998 50.1368 108.463 49.4466 106.937C49.1285 106.16 48.6768 105.443 48.1118 104.821C48.3026 105.657 48.6508 106.449 49.1379 107.155ZM58.1189 102.796C57.8661 102.026 57.4406 101.324 56.8748 100.744C57.1835 102.197 57.5468 102.261 58.137 103.623C58.2278 103.841 59.2903 106.511 59.5809 106.211C59.8715 105.911 58.0734 102.706 58.1189 102.796ZM55.8759 93.2797C56.5025 94.3149 57.2108 95.8405 57.1654 95.7406C57.2383 95.9054 57.3464 96.0522 57.482 96.1708C57.6177 96.2894 57.7777 96.3768 57.9508 96.427C58.1238 96.4772 58.3058 96.4889 58.4838 96.4613C58.6619 96.4337 58.8318 96.3675 58.9815 96.2673C60.0167 95.6044 61.9328 95.6589 60.5525 93.0981C60.211 92.2213 59.8042 91.3714 59.3357 90.5555C58.5002 89.1752 56.9747 90.3466 56.6114 90.4556C56.2274 90.6188 55.8835 90.8636 55.6035 91.173C55.0858 92.1718 55.776 92.8801 55.8759 93.2797ZM57.3288 90.5555C59.0269 89.9016 58.7727 90.837 60.2256 93.2797C61.4969 95.3955 60.2256 95.0959 60.2256 95.5227C60.0985 95.3955 60.2256 95.5227 59.9895 95.5227C57.3651 96.6305 57.8101 96.0675 56.1574 93.1707C55.7124 92.2627 55.5217 91.8359 55.8123 91.3546C56.2513 90.9776 56.7697 90.7045 57.3288 90.5555ZM61.4243 90.4102C61.7706 91.3202 62.1646 92.2114 62.6048 93.0799C62.677 93.2456 62.7857 93.3927 62.9228 93.5104C63.0599 93.6281 63.2219 93.7133 63.3965 93.7596C63.5712 93.8059 63.7541 93.8121 63.9315 93.7777C64.1089 93.7434 64.2762 93.6694 64.421 93.5612C65.102 93.1798 65.9829 93.0254 66.4097 92.3444C66.5335 92.0471 66.576 91.7222 66.5329 91.4031C66.4899 91.084 66.3627 90.782 66.1645 90.5282C65.5924 89.4294 65.5016 88.93 64.9476 87.9039C64.0396 86.2965 62.1144 87.9583 62.2234 87.8494C61.7768 87.979 61.3786 88.2381 61.0792 88.594C60.8522 89.048 60.9612 89.4839 61.4243 90.4102ZM62.3324 88.0491C63.4675 87.6223 63.8852 87.3136 64.5572 88.5032C65.8285 91.3637 67.572 92.4352 64.3937 93.2343C63.1406 93.6974 63.0316 93.0618 62.2416 91.5907C60.6615 88.6212 61.2245 88.7756 62.3596 88.0855L62.3324 88.0491ZM72.9025 84.9435C74.1556 87.4498 74.1919 87.7858 74.8458 88.0855C75.8007 88.0755 76.7198 87.7208 77.4338 87.0866C77.6939 86.7903 77.8506 86.4174 77.88 86.0242C77.9095 85.631 77.8103 85.2389 77.5973 84.9072C77.3612 84.771 77.452 84.3532 76.2987 82.1829C75.5359 80.8208 73.5745 81.7107 72.5574 82.8731C72.1942 83.545 72.6573 84.1081 72.9025 84.9435ZM72.9025 82.8731C73.1749 82.4826 74.7186 81.965 74.6369 82.0195C75.9445 81.5291 76.0989 83.1182 77.0797 84.5984C77.3981 85.0262 77.57 85.5453 77.57 86.0786C77.4792 86.8868 76.7709 87.1411 75.9355 87.4226C74.7822 88.1036 74.2464 86.7324 73.7651 85.8334C73.2839 84.9344 72.2486 83.545 72.8843 82.8731H72.9025ZM68.2077 89.4748C68.47 90.1294 68.8281 90.7415 69.2701 91.291C69.6878 90.8733 68.5164 89.3568 67.8263 87.8221C67.504 87.0417 67.0494 86.3228 66.4823 85.6972C67.0726 87.813 67.6265 87.9765 68.2077 89.4748ZM71.2134 87.7949C71.5097 88.4588 71.8557 89.0993 72.2486 89.7109C72.6845 89.2751 71.5222 87.7858 70.8139 86.2239C70.4955 85.4435 70.0438 84.7245 69.479 84.099C70.1419 86.4237 70.7231 86.3692 71.2134 87.7949ZM79.2591 82.192C79.7801 83.3127 80.3622 84.404 81.0026 85.4611C81.4385 85.0161 80.2852 83.5814 79.5587 81.9741C79.2555 81.1895 78.8124 80.4665 78.2511 79.8401C78.4342 80.6811 78.7763 81.4794 79.2591 82.192ZM83.4181 81.7289C83.728 82.3877 84.0767 83.0275 84.4624 83.6449C84.8892 83.2272 83.7359 81.6653 83.0458 80.1488C82.7201 79.3941 82.2687 78.7002 81.7109 78.0965C82.401 80.5302 82.9277 80.285 83.4181 81.7289ZM86.7871 80.167C87.0951 80.8296 87.4438 81.4726 87.8314 82.0921C88.2673 81.6562 87.1049 80.176 86.3966 78.6051C86.0783 77.8247 85.6266 77.1057 85.0617 76.4801C85.7428 78.7867 86.3149 78.7685 86.7871 80.167ZM24.2019 113.448C24.4364 113.371 24.6422 113.224 24.7928 113.028C24.9433 112.833 25.0317 112.596 25.0464 112.349C24.7092 110.762 24.0169 109.272 23.0214 107.991C22.7485 107.787 22.4173 107.677 22.077 107.677C21.7366 107.677 21.4054 107.787 21.1326 107.991C19.3164 108.817 19.4435 109.253 19.3981 109.435C19.2801 110.343 20.7421 113.321 21.2143 113.893C21.8863 114.629 22.9487 114.093 24.2019 113.448ZM21.8499 113.603C21.3777 113.23 21.0508 112.322 20.1881 110.815C19.8522 110.243 19.5434 109.652 19.8976 109.126C20.3516 108.427 22.5673 107.537 23.1757 108.98C24.1928 111.396 25.1645 112.013 24.5833 112.876C24.0021 113.739 22.3585 113.993 21.8499 113.603ZM25.0646 108.635C26.4539 111.024 26.345 112.667 28.7514 111.178C29.16 111.006 29.8229 110.76 30.0136 110.27C30.1238 109.96 30.1566 109.627 30.1091 109.301C30.0616 108.975 29.9353 108.665 29.7412 108.399C28.8331 106.583 28.37 103.777 25.9363 105.675C24.4743 106.701 24.3018 106.347 25.0646 108.635ZM26.4358 105.829L26.7718 105.702C27.4801 105.43 27.8342 105.702 28.2247 106.447C29.6413 109.553 31.2214 110.215 28.0885 111.114C26.8353 111.587 26.7173 110.942 25.9272 109.471C24.8012 107.391 23.993 106.547 26.4358 105.829ZM31.7027 108.336C31.8011 108.548 31.9553 108.729 32.1489 108.86C32.3424 108.991 32.568 109.068 32.8014 109.08C33.2736 109.08 33.4553 108.899 34.6176 108.272C35.6074 108.272 35.9434 106.883 35.1897 105.947C34.2181 104.131 33.8639 101.407 31.3848 103.223C31.0034 103.505 29.7049 103.895 30.168 105.039C30.5994 106.174 31.1123 107.275 31.7027 108.336ZM31.8843 103.142L32.2203 103.014C32.9286 102.751 33.2827 103.069 33.6732 103.759C35.0081 106.683 36.0978 107.137 34.7175 107.991H34.545C32.0568 108.98 32.5563 108.899 30.8037 105.648C30.1044 104.367 29.9047 103.75 31.8843 103.142ZM36.5518 103.196C36.8565 103.698 37.1206 104.223 37.3419 104.767C37.6325 105.348 38.0683 106.102 38.3044 106.465C38.7312 106.029 37.5598 104.522 36.8606 102.978C36.5403 102.199 36.0888 101.48 35.5257 100.853C35.7204 101.691 36.0683 102.485 36.5518 103.196ZM40.3385 103.051C40.6457 103.716 40.9976 104.359 41.3919 104.976C41.8278 104.54 40.6564 103.042 39.9572 101.489C39.6394 100.709 39.1842 99.9921 38.6132 99.373C39.2761 101.798 39.8209 101.552 40.3385 103.051ZM59.1631 109.371C57.8101 110.279 58.5002 111.015 59.0814 112.413C60.3255 115.419 60.5979 115.909 63.3313 114.229C63.4864 114.146 63.6222 114.03 63.7297 113.89C63.8372 113.751 63.9141 113.59 63.9552 113.419C63.9963 113.247 64.0008 113.069 63.9684 112.896C63.936 112.722 63.8674 112.558 63.7671 112.413C63.4669 111.622 63.1025 110.856 62.6774 110.125C61.6785 108.063 61.2245 108.354 59.1631 109.371ZM60.3164 109.244C61.733 108.463 61.9056 109.879 62.9499 111.623C63.9942 113.367 63.749 113.739 62.514 114.266C60.1257 115.292 60.9248 114.656 59.3538 112.304C59.0633 111.714 58.5638 111.314 58.6909 110.37C58.8635 109.88 59.2449 109.734 60.3164 109.244ZM67.7809 107.319C67.5448 106.783 67.2723 106.184 66.5731 106.002C65.9155 105.988 65.2733 106.203 64.7569 106.61C63.6672 107.319 63.3494 107.618 63.6582 108.427C64.1758 109.734 64.9386 111.205 64.8932 111.151C65.211 111.832 65.6469 112.685 66.3915 112.586C67.0627 112.408 67.7007 112.123 68.2803 111.741C68.4442 111.684 68.5943 111.593 68.7209 111.474C68.8474 111.355 68.9477 111.211 69.0153 111.051C69.0829 110.891 69.1162 110.719 69.1132 110.545C69.1102 110.371 69.0708 110.2 68.9977 110.043C68.6475 109.111 68.2412 108.201 67.7809 107.319ZM68.3984 111.469C66.6548 112.377 66.0101 112.858 65.2836 111.051C64.8205 109.88 62.9317 107.755 64.5481 107.074C65.1098 106.669 65.7735 106.43 66.4641 106.383C67.0635 106.474 67.2633 107.346 67.5811 107.918C68.6708 109.834 69.4517 110.788 68.3893 111.469H68.3984ZM85.4794 100.626C83.7813 96.2128 82.8732 97.8111 81.611 98.1925C81.227 98.3557 80.883 98.6005 80.603 98.9098C80.4503 99.1955 80.3843 99.5197 80.4134 99.8423C80.4424 100.165 80.5652 100.472 80.7665 100.726C82.3375 103.859 82.283 105.103 85.1525 103.55C86.4602 103.132 86.2876 101.707 85.4794 100.626ZM84.3262 103.659L84.0628 103.741C83.2546 104.031 82.846 103.895 82.4918 103.187C80.939 100.463 80.5485 99.7544 80.9118 99.2186C81.3257 98.8172 81.8401 98.5348 82.401 98.4013L82.737 98.2742C83.4544 97.9745 83.8267 98.3468 84.19 99.0006C85.434 101.707 87.114 102.815 84.3262 103.659ZM33.1465 128.668C33.0441 127.96 32.7934 127.283 32.411 126.679C31.403 124.654 31.2759 123.437 29.2327 124.427C27.4801 125.272 26.8172 125.635 28.1066 127.76C28.7151 128.922 29.0147 130.439 29.9773 130.647C30.9399 130.856 33.0739 129.394 33.1465 128.668ZM29.2962 129.267C28.0431 126.788 27.6254 126.543 27.7525 125.862C27.8796 125.181 30.3496 123.501 31.2577 125.235C32.1658 127.242 32.8287 128.014 32.8832 128.613C32.974 129.521 30.4404 130.938 29.3235 129.24L29.2962 129.267ZM32.974 124.681C33.9729 126.361 34.436 128.686 36.0796 127.687C37.1148 127.024 39.0218 127.07 37.6325 124.509C37.287 123.635 36.8772 122.788 36.4065 121.975C35.4985 120.677 34.0637 121.83 33.6823 121.975C32.3565 122.72 32.1658 123.092 32.974 124.681ZM34.4632 121.957C36.1704 121.303 35.9253 122.275 37.36 124.681C37.7868 125.399 38.0865 125.889 37.8504 126.37C37.7034 126.642 37.4555 126.844 37.1602 126.933C34.7811 127.932 34.9354 127.496 33.9184 125.671C32.7651 123.592 32.0659 122.593 34.4632 121.975V121.957ZM41.9731 119.423C41.065 117.816 39.1399 119.478 39.2942 119.369C39.059 119.385 38.8321 119.462 38.6363 119.594C38.4404 119.725 38.2826 119.906 38.1787 120.117C38.0747 120.329 38.0282 120.564 38.0439 120.799C38.0596 121.035 38.1369 121.262 38.2681 121.458C38.6086 122.538 39.0685 123.576 39.6393 124.554C39.7146 124.717 39.824 124.861 39.9599 124.978C40.0959 125.095 40.2553 125.181 40.4274 125.231C40.5996 125.281 40.7804 125.293 40.9578 125.268C41.1351 125.242 41.3048 125.178 41.4555 125.081C41.8732 124.799 43.2081 124.273 43.2717 124.173C43.5005 123.868 43.6196 123.495 43.6097 123.114C43.5998 122.734 43.4615 122.367 43.2172 122.075C42.745 121.294 42.5452 120.486 41.9731 119.423ZM43.1809 123.791C42.8244 124.146 42.3982 124.423 41.9293 124.604C41.4603 124.785 40.9589 124.867 40.4566 124.845C39.9935 124.654 39.7029 123.882 38.6858 122.012C38.2954 121.285 38.0956 120.949 38.2409 120.313C38.2409 119.996 39.149 119.587 39.2942 119.587C41.4736 118.797 40.838 119.187 42.6088 122.148C42.9992 122.747 43.4896 123.21 43.1809 123.791ZM53.424 119.169C54.5773 118.624 55.6216 117.98 54.9678 116.845C54.6451 116.036 54.269 115.251 53.8418 114.493C53.2515 113.276 53.0336 113.094 52.4796 112.958C51.8614 112.97 51.2621 113.173 50.7634 113.539C48.9472 114.52 49.6373 115.473 49.7009 115.582C51.1175 118.425 51.2356 120.495 53.424 119.169ZM50.3275 116.236C50.1583 116.032 50.0317 115.795 49.9553 115.541C49.8789 115.287 49.8541 115.02 49.8825 114.756C50.0187 114.266 50.5727 114.039 51.0812 113.848C53.1062 112.994 52.7702 113.63 54.1596 116.045C55.2311 117.862 54.9769 118.161 53.7237 118.697C51.4717 119.696 52.1437 119.287 50.3275 116.236ZM45.1242 120.568C45.4386 121.27 45.8059 121.946 46.2229 122.593C46.3773 122.447 46.5135 122.456 46.0413 121.512C45.808 120.994 45.5379 120.493 45.2331 120.014C44.5157 118.751 44.7246 118.443 43.417 116.917C44.2524 119.278 44.5611 119.015 45.1242 120.568ZM46.4046 115.328C48.8473 120.023 48.6294 120.204 49.4557 121.149C49.8734 120.731 48.702 119.215 48.0119 117.68C47.6576 116.786 47.1085 115.983 46.4046 115.328ZM55.3764 111.296C55.7033 112.822 56.0393 112.813 56.6478 114.22C56.9827 115.166 57.4406 116.064 58.0099 116.89C58.1461 116.763 58.2914 116.763 57.8192 115.827C57.5945 115.307 57.3272 114.806 57.0201 114.329C56.4752 113.23 56.4752 112.522 55.3764 111.296ZM67.79 116.136C67.9795 116.829 68.2572 117.494 68.6163 118.116C69.1975 119.251 69.5244 120.168 70.2509 120.277C71.283 120.11 72.2605 119.699 73.1022 119.078C72.7481 118.724 71.8945 119.887 70.269 119.986C69.6697 119.814 69.4517 119.078 69.1521 118.352C68.8524 117.625 66.9908 115.473 68.6163 114.819C69.1648 114.398 69.8319 114.16 70.5233 114.138C71.1226 114.229 71.3224 115.047 71.6493 115.673C72.8752 117.852 73.184 118.234 72.8389 118.842L73.0296 118.96C73.1532 118.775 73.228 118.561 73.2471 118.339C73.2661 118.116 73.2288 117.893 73.1386 117.689C72.6845 116.545 71.8582 114.883 71.9036 114.965C71.6584 114.429 71.395 113.83 70.6958 113.657C70.1249 113.65 69.5684 113.836 69.1158 114.184C68.1441 114.629 67.4267 115.165 67.79 116.136ZM76.4168 117.462L77.6154 116.854C77.7754 116.741 77.9109 116.597 78.014 116.431C78.117 116.265 78.1854 116.079 78.2151 115.886C78.2448 115.693 78.2351 115.495 78.1867 115.306C78.1382 115.116 78.0521 114.939 77.9333 114.783C77.6534 114.056 77.3227 113.348 76.9434 112.667C76.4894 111.678 76.2715 111.314 75.5904 111.214C74.9713 111.222 74.3705 111.426 73.8741 111.796L73.4382 112.032C73.1099 112.186 72.8523 112.46 72.7175 112.797C72.5827 113.134 72.5807 113.509 72.7118 113.848C73.4836 114.983 74.4008 118.842 76.4168 117.462ZM74.2918 112.013C75.3997 111.55 75.9536 111.342 76.3713 112.077C78.4599 115.709 78.7233 116.045 77.0252 116.772C74.8821 117.68 75.3906 117.444 73.856 114.738C73.3706 114.257 73.0934 113.605 73.0841 112.922C73.2294 112.477 73.7651 112.25 74.2918 112.032V112.013ZM32.974 136.123C32.0659 134.516 32.2657 134.116 31.2305 133.081C31.3561 133.752 31.6155 134.392 31.9932 134.961C32.747 136.268 32.9831 137.494 33.8639 138.593L33.9365 138.511C33.7128 137.68 33.3896 136.878 32.974 136.123ZM36.7062 137.349C36.7062 136.377 35.7255 135.024 35.3078 134.162C34.9663 133.251 34.5214 132.383 33.982 131.574C34.3906 133.39 34.6267 133.09 35.2805 134.598C35.6144 135.581 36.095 136.509 36.7062 137.349ZM42.1547 134.144C42.2773 133.845 42.3183 133.52 42.2737 133.201C42.229 132.882 42.1002 132.58 41.9005 132.327C41.283 131.147 41.2648 130.784 40.6745 129.694C39.7665 128.087 37.7959 129.794 37.9503 129.694C37.5045 129.821 37.1064 130.077 36.8061 130.429C36.4429 130.983 36.8061 131.601 37.0604 132.146C37.4024 133.074 37.7934 133.983 38.2318 134.87C38.9219 136.259 40.2023 135.233 40.7381 134.997C40.5383 135.206 40.4748 135.188 41.1467 134.87C41.5506 134.739 41.9032 134.485 42.1547 134.144ZM41.8732 134.053C41.7471 134.28 41.5491 134.459 41.3102 134.561C40.057 134.843 39.2579 135.633 38.5859 134.361C36.4429 130.611 36.6517 130.647 38.0865 129.739C40.2659 128.922 39.6484 129.358 41.401 132.291C42.2909 133.671 41.8641 133.88 41.8914 134.053H41.8732ZM43.4805 132.3C43.5614 132.458 43.6734 132.597 43.8098 132.71C43.9461 132.823 44.104 132.907 44.2738 132.957C44.4436 133.007 44.6219 133.022 44.7977 133.001C44.9735 132.981 45.1433 132.924 45.2967 132.836L46.1321 132.464C47.131 132.255 47.8847 131.392 47.3217 130.448C46.8705 129.292 46.3582 128.162 45.7871 127.06C45.0152 125.608 43.4805 126.77 42.9992 126.906C42.6147 127.072 42.2708 127.32 41.9913 127.633C41.8385 127.918 41.7726 128.242 41.8016 128.565C41.8307 128.888 41.9534 129.195 42.1547 129.449C42.6663 130.365 43.1094 131.318 43.4805 132.3ZM42.3636 127.95C42.7803 127.546 43.2976 127.261 43.8619 127.124L44.1979 126.997C44.9062 126.697 45.2785 127.088 45.6418 127.732C46.7769 130.23 47.4579 130.457 47.131 131.428C46.8975 131.852 46.5161 132.176 46.0595 132.336C43.9436 133.017 44.4976 132.79 42.7359 129.776C41.855 128.386 42.3636 128.041 42.3636 127.95ZM52.407 127.133C51.4989 125.317 51.0812 122.593 48.6021 124.409C48.1481 124.745 47.694 124.817 47.4579 125.226C47.0765 125.835 47.4579 126.343 47.7485 127.287C48.9381 129.394 48.9109 130.339 50.0369 130.393C50.5817 130.393 52.6522 129.594 52.7611 128.432C52.7977 128.202 52.785 127.968 52.7239 127.744C52.6629 127.52 52.5548 127.312 52.407 127.133ZM52.4978 128.868C52.3525 129.204 49.9098 130.684 49.1833 129.213C49.1379 129.122 47.7485 126.634 47.5487 126.116C47.4826 125.922 47.4731 125.713 47.5213 125.513C47.5695 125.314 47.6736 125.132 47.8212 124.99C48.3295 124.685 48.8721 124.441 49.4376 124.264C50.7361 123.782 50.836 125.235 51.9984 127.224C52.5069 128.041 52.7611 128.386 52.4978 128.849V128.868ZM62.7682 118.742C62.6575 118.553 62.5065 118.39 62.3257 118.265C62.145 118.14 61.9391 118.056 61.7225 118.02C61.5058 117.984 61.2839 117.995 61.0723 118.054C60.8607 118.113 60.6647 118.218 60.498 118.361C59.9295 118.575 59.4104 118.903 58.9724 119.324C58.8221 119.61 58.7583 119.935 58.789 120.257C58.8196 120.58 58.9433 120.886 59.145 121.14C60.1257 123.019 60.3346 124.518 61.6604 124.609C61.9964 124.609 62.0872 124.518 63.2041 123.964C65.2655 123.228 64.4664 122.22 62.7682 118.742ZM63.0861 123.828C61.9873 124.254 61.5877 125.09 60.6433 123.065C59.9895 121.676 58.4185 119.769 59.8805 119.269C60.4622 118.835 61.1621 118.588 61.8874 118.561C62.4141 118.633 62.3233 118.842 64.1849 122.266C64.4391 123.41 63.5129 123.501 63.0861 123.828ZM55.549 127.85C55.6398 127.76 55.6943 127.714 55.6852 127.614C55.6216 127.051 54.2776 124.981 53.869 123.882C53.6375 123.27 53.3128 122.697 52.9064 122.184C53.0418 122.908 53.3162 123.599 53.7146 124.218C54.3231 125.317 54.9224 127.224 55.549 127.85ZM58.7182 126.307C58.9634 126.062 58.7999 125.998 58.6274 125.562C58.2725 124.775 57.8754 124.009 57.4378 123.265C57.0819 122.352 56.6218 121.484 56.0666 120.677C56.4571 122.411 56.7476 122.266 57.3561 123.655C57.7007 124.591 58.1581 125.481 58.7182 126.307ZM67.3359 122.002C67.6265 121.721 67.3359 121.312 67.236 121.203C66.7638 120.059 66.4732 119.814 66.0464 118.924C65.6735 118.011 65.2144 117.135 64.6752 116.309C65.0748 118.125 65.32 117.834 65.9738 119.333C66.3087 120.279 66.7667 121.176 67.3359 122.002ZM70.5051 125.971C70.2327 125.471 70.042 124.563 69.1521 124.336C68.244 124.336 66.4278 125.308 66.2462 126.025C65.9919 126.933 67.7445 130.829 68.7253 130.965C69.6334 130.965 71.5313 130.057 71.6402 129.249C71.7492 128.441 70.8774 126.652 70.5051 125.971ZM68.6345 130.647C68.1986 130.502 67.9897 129.948 67.6083 129.049C67.4994 128.795 66.228 126.924 66.4823 126.071C66.6639 125.462 68.1169 124.89 68.9432 124.836C69.3973 124.908 69.6243 125.435 69.8513 125.898C70.269 126.942 71.4859 128.423 71.3587 129.231C71.2134 130.202 69.0794 130.765 68.6345 130.647ZM76.7437 125.889C76.2896 124.745 75.4724 123.083 75.5087 123.165C75.4275 122.866 75.2753 122.591 75.065 122.363C74.8547 122.135 74.5926 121.962 74.3009 121.857C73.7317 121.853 73.1779 122.042 72.7299 122.393C72.285 122.665 71.5857 122.938 71.3769 123.51C71.2704 123.784 71.2704 124.089 71.3769 124.363C71.7503 125.309 72.1747 126.234 72.6482 127.133C72.9025 127.696 73.2294 128.386 73.8741 128.486C74.7096 128.486 76.5257 127.705 76.8163 126.797C76.8655 126.649 76.8844 126.492 76.8719 126.336C76.8594 126.18 76.8158 126.028 76.7437 125.889ZM73.9377 128.105C73.4746 127.978 71.5131 124.527 71.6493 123.664C71.7855 122.802 73.3202 122.311 74.1829 122.257C74.6732 122.329 76.7891 126.116 76.5984 126.797C76.4077 127.478 74.7186 128.041 73.9377 128.105ZM81.1025 120.84C80.5576 119.632 80.3488 119.351 79.7494 119.206C79.0023 119.255 78.2887 119.534 77.7062 120.005C76.898 120.413 76.5984 120.994 76.8708 121.721C77.2301 122.665 77.6393 123.59 78.0967 124.491C78.4872 125.353 78.8232 125.762 79.3045 125.825C79.9764 125.916 82.1195 125.045 82.3193 124.1C82.3832 123.826 82.3545 123.539 82.2376 123.283C81.2024 120.559 80.9118 120.84 81.1025 120.84ZM79.3862 125.48C78.805 125.317 78.5871 124.572 78.2692 123.846C78.0422 123.31 76.8436 121.866 77.1341 120.958C77.3612 120.259 78.7324 119.687 79.6404 119.632C80.2307 119.723 80.4396 120.54 80.7574 121.167C81.4929 122.447 82.1468 123.383 82.0923 124.009C81.9833 124.836 80.0763 125.444 79.3862 125.48ZM82.3375 117.889C82.6735 119.496 83.6269 120.377 83.7904 121.258C83.291 121.439 82.5009 122.166 82.8006 122.42C83.2781 122.572 83.763 122.699 84.2535 122.802C84.6349 122.856 84.6622 122.802 84.98 123.455C85.1889 123.246 85.1979 123.192 85.0799 122.983C87.0958 122.983 87.8768 122.248 89.4296 120.686C89.7063 120.435 89.9615 120.162 90.1924 119.868C90.8916 120.677 94.7328 119.442 93.6613 117.671C94.4083 117.246 95.2387 116.989 96.0949 116.917C96.2325 117.217 96.4163 117.492 96.6398 117.734C96.8487 117.526 96.7851 117.408 96.4945 116.826C97.7555 116.654 99.0321 116.626 100.299 116.745C102.488 117.299 104.295 115.628 103.151 114.502C100.59 112.685 94.978 113.376 92.0177 114.384C91.7531 114.061 91.3993 113.824 91.0006 113.703C90.4309 113.695 89.8761 113.885 89.4296 114.238L88.9756 114.493C88.8191 114.546 88.6759 114.633 88.5558 114.746C88.4357 114.86 88.3414 114.998 88.2794 115.151C88.2174 115.305 88.1891 115.47 88.1964 115.635C88.2037 115.8 88.2464 115.962 88.3217 116.109C88.7213 116.726 88.4035 116.554 88.1583 117.017C85.9607 119.66 87.786 119.278 85.434 116.372C85.7337 117.789 86.0969 117.907 86.5782 119.042C85.9593 119.962 85.0851 120.682 84.0628 121.112C83.073 118.96 83.2274 118.779 82.3375 117.889ZM93.2345 117.616C93.3463 117.777 93.4248 117.959 93.4653 118.151C93.5058 118.343 93.5076 118.541 93.4706 118.733C92.7566 119.381 91.8515 119.779 90.8916 119.868C90.7195 119.785 90.558 119.681 90.4103 119.56C91.1888 118.69 92.1675 118.023 93.2617 117.616H93.2345ZM91.4183 114.039C92.2265 114.647 91.0823 114.039 88.6941 116.145C87.9313 114.674 90.9643 113.757 91.4365 114.039H91.4183ZM39.5939 141.236C39.3941 140.863 39.158 139.837 38.2409 139.601C37.4937 139.651 36.7801 139.93 36.1977 140.4C34.8991 140.854 35.1443 142.398 35.9343 143.515C36.6426 145.149 37.0876 146.139 37.8141 146.239C39.0309 146.239 41.1286 145.213 40.6291 143.66C40.375 142.816 40.0278 142.003 39.5939 141.236ZM37.7777 145.949C37.1875 145.785 36.9605 145.041 36.6608 144.314C36.5972 144.169 36.0887 143.342 36.1432 143.406C35.6528 142.325 35.0081 141.199 36.0978 140.763C36.6591 140.365 37.3183 140.126 38.0048 140.073C38.4588 140.146 38.6858 140.673 38.9129 141.136C39.5848 142.798 40.9742 143.951 40.2023 144.95C39.5264 145.518 38.6932 145.866 37.8141 145.949H37.7777ZM45.8506 140.936C44.2251 137.658 44.1979 137.304 43.3988 137.122C42.7971 137.105 42.2076 137.294 41.7279 137.658C40.8834 138.13 40.1024 138.629 40.5202 139.474C41.0378 140.782 41.8006 142.262 41.7552 142.198C42.0639 142.861 42.5089 143.751 43.2535 143.633C44.3886 143.479 46.3773 142.571 45.8506 140.936ZM42.9084 143.206C42.5634 143.079 42.3545 142.698 42.0912 142.053C41.6099 140.836 40.275 139.383 40.8925 138.484C41.5509 137.873 42.3946 137.499 43.2898 137.422C43.8982 137.513 44.098 138.402 44.4158 138.956C44.7337 139.51 45.2059 140.346 45.6054 141.136C46.3682 142.716 43.2172 143.324 42.9084 143.206ZM47.5397 134.806C47.1583 135.052 46.4318 135.151 46.0141 135.769C45.867 136.057 45.8052 136.381 45.8357 136.702C45.8663 137.024 45.988 137.33 46.1866 137.585C47.2127 139.138 47.5941 141.726 49.3104 140.845C50.6453 140.146 51.5443 140.001 51.3809 138.648C51.3356 138.241 51.1854 137.853 50.945 137.522C50.3275 136.677 49.8644 133.335 47.5397 134.806ZM49.2832 140.482C48.2752 140.691 47.9211 140.309 47.131 138.838C46.2229 137.122 45.7053 136.486 46.1321 135.969C46.7541 135.371 47.5612 135.002 48.4205 134.924C49.2741 134.924 49.2559 136.087 50.5182 137.858C51.9802 139.919 49.4194 140.464 49.2832 140.482ZM60.9793 129.058C60.8092 128.877 60.5871 128.753 60.3437 128.704C59.5869 128.722 58.8568 128.987 58.2641 129.458C56.9656 129.912 57.2017 131.456 57.9917 132.563C58.7 134.198 59.145 135.188 59.8805 135.288C60.9684 135.192 61.98 134.689 62.7138 133.88C62.7912 133.696 62.8311 133.499 62.8311 133.299C62.8311 133.099 62.7912 132.902 62.7138 132.718C62.2921 131.43 61.7094 130.2 60.9793 129.058ZM59.9169 135.043C59.3175 134.879 59.0996 134.134 58.7999 133.408C58.7363 133.263 57.5558 131.437 57.6285 130.529C57.8555 129.848 59.2085 129.267 60.1439 129.194C60.5979 129.267 60.8249 129.794 61.052 130.257C61.279 130.72 61.7421 131.465 62.4686 132.909C62.5834 133.129 62.6187 133.382 62.5685 133.626C62.3324 134.48 60.6706 134.988 59.9169 135.043ZM53.1698 136.123C52.1437 134.189 52.3888 134.044 51.4263 133.081C51.5505 133.753 51.81 134.392 52.1891 134.961C52.9518 136.268 53.1789 137.494 54.0597 138.593C54.3412 138.348 53.2243 136.214 53.1698 136.123ZM56.7476 135.478C56.4608 134.798 56.1364 134.134 55.776 133.49C55.5195 132.719 55.0909 132.018 54.5228 131.437C54.8316 132.89 55.2039 132.954 55.7851 134.316C57.6466 138.711 57.3833 136.614 56.7476 135.478ZM64.9567 130.239C63.9306 128.305 64.1758 128.159 63.2132 127.197C63.3457 127.866 63.6045 128.504 63.976 129.076C64.7206 130.384 64.9749 131.619 65.7922 132.709C65.9919 132.582 66.1191 132.418 64.9567 130.239ZM75.9082 138.194C76.3292 138.015 76.6848 137.71 76.9265 137.322C77.1683 136.933 77.2844 136.48 77.2592 136.023C77.2339 135.566 77.0684 135.129 76.7853 134.769C76.5022 134.41 76.1152 134.147 75.677 134.015C75.2389 133.884 74.7708 133.891 74.3367 134.035C73.9025 134.179 73.5234 134.453 73.2508 134.821C72.9783 135.188 72.8257 135.631 72.8137 136.088C72.8017 136.545 72.931 136.995 73.184 137.376C73.5079 137.765 73.9389 138.049 74.4232 138.194C74.9076 138.34 75.424 138.339 75.9082 138.194ZM76.2987 137.558C76.086 137.709 75.8444 137.815 75.5889 137.869C75.3334 137.923 75.0695 137.923 74.8138 137.87C74.5581 137.818 74.3161 137.713 74.1028 137.562C73.8896 137.411 73.7097 137.218 73.5744 136.995C73.3704 136.661 73.2694 136.275 73.2839 135.884C73.2985 135.493 73.428 135.115 73.6562 134.797C75.1545 132.736 78.6688 135.787 76.2987 137.558ZM86.9415 141.98C86.7871 141.826 86.4057 141.553 86.1877 141.599C85.8719 141.719 85.5679 141.868 85.2797 142.044C78.7414 145.15 76.7346 146.239 76.9344 146.13C74.7005 147.383 73.856 147.365 73.747 147.946C73.747 148.4 73.8469 148.264 74.0648 149.372C74.1575 150.253 74.337 151.123 74.6006 151.969H74.8458C75.0183 151.915 89.5113 144.705 89.6112 144.65C89.7111 144.596 89.9109 144.532 89.9563 144.405C90.0471 144.105 88.7849 143.56 86.9415 141.98ZM74.755 151.733C74.5643 150.889 74.4371 150.026 74.3282 149.154C74.3282 149.045 74.1193 147.883 74.1647 147.874C75.6358 147.293 83.5815 143.188 85.1525 142.425C85.4001 142.336 85.6426 142.233 85.879 142.117C86.3875 141.844 86.66 142.235 87.0413 142.534C88.4943 143.678 88.9937 144.06 89.5477 144.414C74.6369 151.742 78.8504 149.726 74.755 151.733ZM87.3319 34.5993C87.5408 34.5993 87.4227 34.5993 87.8132 34.5175C87.3111 34.3953 86.8581 34.1228 86.5147 33.7366V33.5459L86.4511 33.7638C86.324 34.227 86.887 34.563 87.3319 34.5993ZM89.3751 35.4166C89.283 35.4788 89.2125 35.5682 89.1734 35.6724C89.1344 35.7765 89.1287 35.8902 89.1572 35.9977C89.3479 36.361 89.8201 35.916 89.6748 35.4529C89.7745 35.4469 89.872 35.4205 89.9611 35.3752C90.0501 35.3299 90.1289 35.2667 90.1924 35.1895L90.3468 34.9443L90.0743 35.0352C89.92 35.0352 89.0028 35.1441 88.9211 35.0352L89.021 35.1986C89.139 35.3439 89.2571 35.3621 89.3751 35.4166Z" fill="black"/>
<path d="M86.6509 35.2791C86.9324 35.2791 87.1958 34.6434 86.887 34.4981C86.3967 34.2711 86.0788 35.2791 86.6509 35.2791ZM85.7882 37.9761C85.9387 38.2534 85.996 38.5718 85.9517 38.8842C86.0362 38.8254 86.1081 38.7503 86.1631 38.6633C86.2181 38.5763 86.2551 38.4791 86.2721 38.3776C86.289 38.2761 86.2854 38.1722 86.2616 38.072C86.2378 37.9719 86.1942 37.8775 86.1333 37.7945C85.9902 37.6336 85.8113 37.5086 85.6109 37.4297C85.4106 37.3509 85.1944 37.3203 84.9801 37.3404C85.3102 37.461 85.5933 37.6837 85.7882 37.9761ZM27.4529 58.1174C27.9768 58.4315 28.5892 58.5655 29.1964 58.4988H30.1045C30.2673 58.4713 30.4344 58.4824 30.5921 58.5313C30.7498 58.5802 30.8939 58.6655 31.0126 58.7803C30.6675 58.9347 30.2861 59.0528 30.2861 59.5159C31.2169 61.9541 32.3658 64.3035 33.7187 66.5354C35.5122 69.8633 38.0976 72.6982 41.2467 74.7899C43.3831 75.9596 45.6274 76.9206 47.9484 77.6594C47.6307 75.2695 47.182 72.8989 46.6044 70.5582C46.4773 69.9225 44.2979 62.6578 44.1344 62.6578C43.4357 62.8892 42.681 62.8892 41.9822 62.6578C40.6289 62.1678 39.3604 61.4692 38.2228 60.5874C37.4691 60.0607 36.6972 59.5976 35.9253 59.0618C35.6711 58.8893 34.763 59.1254 34.9355 58.5533C35.1444 55.6747 34.4088 55.2206 32.1114 55.8291C31.0671 56.0833 26.8172 56.8098 27.1169 57.8268C27.1972 57.9553 27.3142 58.0565 27.4529 58.1174ZM32.6017 55.9925C33.2283 55.9199 33.9911 55.82 34.4179 56.4284C34.6994 56.8643 34.5814 57.2457 34.5814 57.736V58.7258C33.514 58.6567 32.4432 58.6567 31.3758 58.7258C31.2559 58.5365 31.0818 58.3876 30.8761 58.2985C30.6704 58.2095 30.4427 58.1843 30.2225 58.2264C28.7515 58.2264 27.8706 58.2264 27.6708 57.8268C27.4711 57.4273 28.134 57.1549 28.4336 57.0459C29.7783 56.5408 31.177 56.1934 32.6017 56.0107V55.9925ZM123.882 127.323L122.693 126.333C122.306 126.043 121.832 125.895 121.349 125.915C120.98 125.958 120.632 126.108 120.346 126.344C120.06 126.581 119.849 126.895 119.738 127.25C119.627 127.604 119.62 127.982 119.719 128.34C119.818 128.698 120.018 129.019 120.295 129.266L121.476 130.256C121.643 130.411 121.841 130.53 122.057 130.603C122.273 130.677 122.502 130.704 122.729 130.682C123.12 130.681 123.501 130.558 123.818 130.331C124.136 130.103 124.375 129.783 124.502 129.413C124.629 129.043 124.637 128.643 124.526 128.269C124.415 127.894 124.19 127.563 123.882 127.323ZM123.746 129.62C123.527 129.881 123.214 130.046 122.875 130.08C122.536 130.114 122.197 130.014 121.93 129.802L120.74 128.812C120.471 128.593 120.299 128.275 120.263 127.93C120.228 127.584 120.331 127.238 120.55 126.968C120.769 126.699 121.086 126.527 121.432 126.491C121.778 126.455 122.123 126.559 122.393 126.778L123.574 127.768C123.829 127.999 123.987 128.319 124.017 128.662C124.048 129.005 123.948 129.347 123.737 129.62H123.746ZM128.732 116.725C128.328 116.428 127.824 116.3 127.328 116.367C126.831 116.434 126.38 116.691 126.069 117.084C125.758 117.478 125.612 117.976 125.661 118.475C125.711 118.974 125.952 119.434 126.334 119.758L127.624 120.748C129.676 122.274 131.855 119.286 130.021 117.724L128.732 116.725ZM129.876 120.012C129.651 120.285 129.327 120.458 128.975 120.494C128.623 120.53 128.271 120.425 127.996 120.203L126.697 119.213C126.459 118.986 126.315 118.676 126.297 118.347C126.278 118.018 126.385 117.694 126.597 117.44C126.808 117.187 127.108 117.024 127.435 116.984C127.763 116.944 128.093 117.03 128.359 117.225L129.649 118.224C129.911 118.434 130.081 118.738 130.123 119.072C130.166 119.406 130.077 119.743 129.876 120.012Z" fill="black"/>
<path d="M174.009 105.057C173.849 104.785 173.611 104.567 173.326 104.432C173.041 104.298 172.722 104.252 172.41 104.301C172.099 104.35 171.809 104.491 171.579 104.707C171.349 104.923 171.19 105.203 171.121 105.511H169.686C163.004 105.846 156.723 108.802 152.206 113.738C152.125 113.708 152.052 113.661 151.989 113.602C151.927 113.543 151.877 113.472 151.842 113.393C151.59 112.712 151.387 112.014 151.234 111.304C151.113 111.072 151.024 110.825 150.971 110.569C151.014 109.803 151.145 109.044 151.361 108.308C152.002 104.957 152.154 101.531 151.815 98.137C152.349 97.655 152.964 97.2707 153.631 97.0019C153.804 97.2011 154.022 97.3565 154.267 97.4554C154.511 97.5543 154.776 97.5939 155.039 97.5709C155.302 97.5479 155.555 97.4629 155.779 97.323C156.003 97.1831 156.19 96.9923 156.326 96.766C156.461 96.5398 156.542 96.2846 156.56 96.0214C156.578 95.7582 156.534 95.4944 156.43 95.2516C156.327 95.0089 156.167 94.7941 155.965 94.6248C155.763 94.4555 155.523 94.3365 155.266 94.2776C155.05 94.2216 154.824 94.2111 154.603 94.2467C154.383 94.2823 154.172 94.3632 153.984 94.4844C153.797 94.6056 153.636 94.7643 153.513 94.9507C153.389 95.1371 153.306 95.3469 153.268 95.5671C153.259 95.7153 153.259 95.8639 153.268 96.0121C152.662 96.2836 152.097 96.6382 151.588 97.0655C150.181 87.9846 144.587 78.9038 136.523 74.8991L132.055 72.8559C131.842 72.817 131.627 72.7927 131.411 72.7833C132.575 73.6548 133.505 74.8027 134.115 76.1233C134.726 77.4439 134.998 78.8956 134.907 80.3476C134.887 80.657 134.795 80.9573 134.637 81.2241C134.479 81.4909 134.26 81.7164 133.999 81.8823C134.432 82.687 134.738 83.5538 134.907 84.4522C135.675 87.5582 136.699 90.5955 137.967 93.533C137.713 92.9246 136.36 92.5432 135.824 92.2526C130.057 89.0017 123.501 87.8575 122.638 88.0028C122.121 87.0947 120.949 84.77 120.986 84.8608C120.568 83.8982 120.014 83.1082 118.961 83.2172C117.308 83.2172 115.092 81.401 114.711 78.8493C114.495 77.0421 114.681 75.2095 115.256 73.4825C112.603 75.2119 110.416 77.568 108.889 80.3427C107.363 83.1174 106.543 86.2254 106.502 89.3921C105.712 88.9926 104.232 89.9824 103.977 89.8734C103.886 89.8189 93.7613 69.3326 93.3981 68.3972C92.8623 67.244 92.1268 65.673 90.3197 65.9636C89.7251 66.0742 89.1576 66.2993 88.6488 66.6265C88.6488 66.6265 62.9591 79.2125 60.9613 80.2477C63.395 73.8911 64.1033 66.572 62.1691 57.9361C63.3835 62.4053 63.8499 67.0448 63.5494 71.6663C64.811 70.0327 65.9118 68.2811 66.8366 66.4358C67.5347 64.8812 68.0615 63.2552 68.4076 61.5866C71.6676 61.3687 77.7427 56.6648 80.1582 54.104C82.4368 55.92 84.9026 57.4877 87.5137 58.7806C93.9339 62.086 100.953 63.0849 105.494 62.3494C106.248 62.2223 107.201 62.4039 107.737 61.4413C107.777 61.6198 107.884 61.776 108.036 61.8772C108.763 62.304 109.081 62.0316 110.189 62.1314C110.443 62.9396 111.097 62.5401 110.897 62.1314C111.106 62.1314 111.215 62.2404 111.369 62.0497C111.476 61.8362 111.505 61.5921 111.451 61.3596C112.014 61.0871 112.123 60.4515 111.333 60.1518C111.389 59.9997 111.404 59.8352 111.375 59.6755C111.346 59.5158 111.275 59.3667 111.169 59.2437C111.028 59.1297 110.872 59.0351 110.706 58.9622C108.708 40.0922 109.798 47.9744 109.044 40.401C112.304 39.5565 113.122 35.4792 113.276 32.5642C113.631 30.2683 113.631 27.9315 113.276 25.6355C113.027 23.7433 112.35 21.9328 111.296 20.3414C110.922 19.7536 110.392 19.2812 109.765 18.9766C109.138 18.672 108.439 18.5472 107.746 18.616C107.591 18.616 107.591 18.7068 107.455 18.6796C105.387 18.7064 103.351 18.1629 101.571 17.1086C93.2165 12.4955 91.0643 7.47384 86.0063 5.30351C85.0586 4.83369 84.0263 4.55873 82.9705 4.49489C81.9147 4.43105 80.8568 4.57963 79.8594 4.93185C78.862 5.28407 77.9454 5.83276 77.1638 6.54546C76.3822 7.25817 75.7515 8.1204 75.3091 9.08115C72.267 15.3015 75.5724 22.3664 80.6123 26.4256C81.4114 27.0521 80.8302 27.3336 80.9937 28.1237C80.4772 28.253 80.01 28.5308 79.6497 28.9228C79.5119 29.135 79.447 29.3864 79.4651 29.6388C79.4831 29.8912 79.583 30.1308 79.7496 30.3212C79.5312 30.4101 79.3457 30.5642 79.2182 30.7626C79.0908 30.9609 79.0278 31.1937 79.0377 31.4293C79.0476 31.6648 79.1301 31.8915 79.2738 32.0784C79.4174 32.2653 79.6153 32.4033 79.8404 32.4734C79.5794 32.7414 79.4267 33.0965 79.4116 33.4703C79.3965 33.8441 79.5201 34.2103 79.7587 34.4984C79.8949 34.6891 80.249 34.6891 80.4125 34.8798C80.576 35.0705 80.3308 35.5246 80.0765 35.6971C79.7408 35.9179 79.3585 36.0578 78.9596 36.1057C78.4238 36.1057 78.1877 35.6426 77.9698 35.1977C76.7348 32.4189 75.2455 25.9988 69.6245 22.212C64.7369 19.1418 59.0485 17.5901 53.2789 17.7534C50.3186 17.7534 47.5762 17.5899 45.1062 19.4515C44.3704 18.8531 43.6002 18.2982 42.7996 17.7897C42.5165 17.6491 42.2073 17.5687 41.8915 17.5536C41.5556 17.5536 41.2831 17.8351 41.601 18.162C41.4048 18.1038 41.1987 18.0867 40.9956 18.1117C40.7925 18.1367 40.5967 18.2033 40.4205 18.3073C40.2479 18.5252 40.2933 18.8521 40.7928 19.061C40.4477 18.9793 40.1934 19.4242 40.4023 19.7875C40.704 20.1469 41.1052 20.4092 41.5556 20.5412C40.9653 20.4958 40.8927 21.5219 41.9824 21.64C42.6475 21.6482 43.3124 21.6057 43.9711 21.5128C44.269 22.7088 44.9637 23.7684 45.9416 24.5186C48.9767 26.5225 52.4314 27.8025 56.0395 28.2599C57.5469 28.4778 59.1724 28.2599 60.6435 28.5777C60.907 31.4529 61.8941 34.2145 63.513 36.6052C61.6969 37.1228 58.1099 39.8925 56.6842 41.0548C55.9396 41.6632 55.1223 42.5168 55.3675 43.4521C54.6862 43.5945 54.0224 43.8107 53.3879 44.0969C52.4873 44.5792 51.6224 45.1254 50.7999 45.7314C48.4148 47.4658 46.5853 49.8562 45.5341 52.6115C44.4829 55.3668 44.2554 58.3683 44.8791 61.2506C47.449 73.0557 50.7454 75.5711 47.6034 87.022C42.5908 89.4557 12.1881 104.43 11.1529 104.911C10.3823 105.237 9.64609 105.638 8.95532 106.11C7.46606 107.281 8.28334 108.898 8.95532 110.196C8.95532 110.196 30.8038 154.284 32.5655 157.98C32.7825 158.574 33.2267 159.059 33.8006 159.326C34.3744 159.593 35.0309 159.622 35.6258 159.405C35.6458 160.315 35.6125 161.224 35.5259 162.13C35.5259 168.613 35.3261 167.778 35.3261 172.246C35.2262 173.962 35.3987 173.154 34.9538 173.817C34.9538 174.244 35.208 174.271 35.3533 174.652L36.5883 177.077C36.7064 177.077 119.142 136.422 122.702 134.606C127.624 139.537 132.591 141.634 138.811 142.969C136.205 145.993 133.817 147.582 134.598 148.953C135.037 149.544 135.66 149.972 136.369 150.17C139.275 151.451 146.003 154.03 146.503 154.048C146.55 154.028 146.592 153.997 146.625 153.957C146.659 153.918 146.682 153.871 146.694 153.821C146.748 153.557 146.457 153.122 145.84 152.495C145.177 151.66 144.496 150.77 143.733 149.916C144.188 149.582 144.682 149.305 145.204 149.09C145.813 148.908 146.058 148.863 146.167 148.645C146.276 148.427 145.813 147.809 145.495 147.628C145.175 147.343 144.871 147.04 144.587 146.72C144.478 146.611 144.587 146.511 144.787 146.256C146.812 144.24 147.511 144.685 148.473 144.903C149.209 145.067 151.434 145.466 151.679 145.494C152.121 145.66 152.595 145.726 153.065 145.689C153.536 145.651 153.993 145.51 154.403 145.276C155.475 144.458 155.756 143.46 156.219 143.314C156.683 143.169 158.898 143.814 158.88 144.222C158.807 145.439 154.612 147.119 161.232 147.373C160.996 148.045 160.769 148.981 160.496 149.725C160.324 150.279 159.788 151.024 160.115 151.496C160.139 151.531 160.172 151.558 160.21 151.576C160.249 151.593 160.291 151.6 160.333 151.596C161.087 151.596 163.23 148.953 163.239 148.926C164.477 147.844 165.415 146.462 165.963 144.912C166.263 143.405 165.219 142.397 164.038 141.553C162.525 140.497 160.916 139.585 159.234 138.828C165.264 130.274 162.585 119.522 153.141 114.047C157.239 109.693 162.788 106.986 168.742 106.437C169.539 106.355 170.342 106.355 171.139 106.437C171.278 106.737 171.506 106.987 171.791 107.154C172.077 107.321 172.407 107.396 172.737 107.369C173.066 107.342 173.38 107.215 173.635 107.005C173.89 106.794 174.074 106.51 174.163 106.192C174.229 106.004 174.249 105.803 174.222 105.606C174.195 105.408 174.122 105.22 174.009 105.057ZM149.999 112.603C149.645 112.448 149.273 112.303 148.918 112.167C150.735 107.545 150.389 101.778 149.826 100.226C149.826 99.935 149.872 99.8533 150.081 99.7534L151.225 98.6909C151.566 103.364 151.152 108.061 149.999 112.603ZM145.259 107.608C145.277 107.738 145.277 107.869 145.259 107.999C145.383 109.059 145.227 110.133 144.805 111.114C144.608 111.065 144.408 111.035 144.205 111.023C144.478 109.862 144.83 108.721 145.259 107.608ZM144.024 108.153C143.706 109.143 143.506 110.133 143.261 111.059C143.001 111.059 142.744 111.003 142.507 110.896C142.244 110.551 142.317 109.443 142.262 109.016C141.726 105.52 140.582 101.688 139.983 99.263C141.754 100.861 143.226 102.762 144.333 104.875C144.768 106.174 145.032 105.22 144.024 108.153ZM145.531 110.296C145.794 109.556 145.92 108.775 145.904 107.99C145.958 107.082 145.531 106.755 145.904 106.174C146.365 105.029 146.947 103.936 147.638 102.914C148.038 104.749 148.155 106.636 147.983 108.507C147.87 109.579 147.666 110.639 147.375 111.677C147.375 111.767 146.912 111.531 145.313 111.277C145.005 111.25 145.141 111.395 145.531 110.296ZM148.083 102.705C148.043 102.608 148.022 102.505 148.022 102.4C148.022 102.296 148.043 102.193 148.083 102.096C148.215 101.884 148.378 101.691 148.564 101.524C148.829 101.177 149.114 100.847 149.418 100.534C150.218 104.408 149.98 108.424 148.728 112.176L147.611 111.795C148.62 108.869 148.783 105.719 148.083 102.705ZM148.292 88.8382C149.127 90.596 149.819 92.418 150.362 94.2867C150.655 95.3718 150.871 96.4764 151.007 97.5921C150.498 97.9666 150.015 98.3763 149.563 98.8181C147.629 91.2446 142.589 83.1627 138.003 77.9321C136.714 76.4832 135.253 75.1964 133.653 74.1C140.288 76.8866 145.55 82.185 148.292 88.8382ZM135.996 87.022C135.915 86.904 134.462 82.0639 134.434 81.9822C135.842 81.3556 135.143 78.3044 134.925 77.2511C134.665 75.9921 134.032 74.8404 133.109 73.9456C133.89 74.5177 134.389 75.0353 134.843 75.3622C137.301 77.5375 139.46 80.0292 141.263 82.7722C144.525 87.4249 147.029 92.5647 148.682 98.0008C149.1 99.2449 149.173 99.2267 148.682 99.5899C148.265 100.016 147.871 100.465 147.502 100.934C146.326 97.2403 144.222 93.9104 141.39 91.2628C140.144 90.0931 138.801 89.03 137.377 88.0845C137.041 87.7922 136.69 87.5193 136.323 87.2672H136.26C136.151 87.215 136.06 87.1331 135.996 87.0311V87.022ZM136.296 87.6305C144.333 93.079 145.885 98.8453 146.912 100.861C147.465 101.969 146.839 101.343 145.095 105.02C144.106 102.378 141.89 100.362 139.81 98.7272C135.188 84.2978 137.168 90.4092 136.296 87.6395V87.6305ZM139.02 110.696C135.96 110.832 134.843 111.604 134.28 111.059C131.365 108.335 128.714 105.72 127.224 102.042C126.652 100.616 126.589 98.5093 128.132 97.4105L128.023 97.238C127.414 97.6592 126.943 98.2514 126.67 98.9398C126.397 99.6283 126.334 100.382 126.489 101.106C126.802 102.583 127.421 103.978 128.305 105.202C129.769 107.502 131.681 109.485 133.926 111.032C134.316 111.413 134.244 111.35 134.335 111.413C133.063 111.722 133.127 111.722 132.9 111.667C132.673 111.613 130.62 109.951 130.729 110.042C127.956 107.817 125.32 105.424 122.838 102.877C119.533 99.481 116.327 95.2311 116.818 90.273C116.972 88.2351 117.763 86.2973 119.079 84.7337C119.334 84.3045 119.71 83.9601 120.159 83.7439C123.728 92.6249 132.518 102.923 138.975 110.705L139.02 110.696ZM114.702 74.4632C113.494 78.5405 115.001 81.7915 117.517 83.1264C118.204 83.4594 118.96 83.6273 119.723 83.6167C118.988 83.6167 114.048 89.5011 117.181 96.1665C119.851 102.36 126.262 106.891 131.183 110.877C131.783 111.259 131.91 111.459 132.546 111.849C131.046 112.288 129.602 112.898 128.241 113.665C120.686 108.852 113.085 100.652 110.706 92.0801C109.933 89.0281 109.891 85.8364 110.586 82.7654C111.28 79.6944 112.69 76.831 114.702 74.4087V74.4632ZM132.055 114.038C132.429 114.064 132.781 114.225 133.045 114.492L134.035 115.781C134.157 115.94 134.246 116.121 134.297 116.314C134.349 116.507 134.361 116.709 134.335 116.907C134.277 117.144 134.155 117.36 133.982 117.531C133.809 117.703 133.592 117.823 133.355 117.879C133.118 117.934 132.87 117.923 132.639 117.846C132.408 117.769 132.203 117.629 132.046 117.443L131.056 116.153C130.899 115.965 130.798 115.735 130.767 115.491C130.736 115.247 130.775 114.999 130.88 114.776C130.985 114.554 131.152 114.366 131.36 114.235C131.568 114.104 131.809 114.036 132.055 114.038ZM107.537 84.9789C108.236 81.3465 110.352 77.8504 114.257 74.5722C113.47 75.4411 112.79 76.4015 112.232 77.4327C106.184 88.0754 110.87 98.8181 119.687 107.318C122.179 109.824 124.988 111.995 128.042 113.774C126.958 114.41 125.912 115.107 124.909 115.863C122.445 114.287 120.172 112.431 118.134 110.333C113.793 106.081 110.452 100.916 108.354 95.213C107.096 91.9401 106.812 88.3731 107.537 84.9425V84.9789ZM89.3753 66.9625C92.8714 65.1463 91.1188 67.8161 103.414 90.0369C103.278 89.7735 99.6911 91.4444 98.9919 91.8076C97.4028 88.593 89.003 71.6391 88.8123 71.3213C88.6216 71.0034 88.5035 70.8854 88.1131 70.9489C87.1346 71.3022 86.1993 71.7652 85.3252 72.3292L58.7002 85.4783C58.856 85.1265 59.0319 84.7839 59.2269 84.4522C59.6264 83.7711 60.7706 81.1467 60.8614 80.9288C61.7332 80.6019 56.1485 84.3159 89.3753 66.9625ZM110.506 62.2858C110.492 62.187 110.448 62.0949 110.379 62.0225C110.307 61.9135 110.198 61.9226 109.063 61.9226C108.672 61.9226 108.154 61.9226 108.154 61.4504C108.146 61.345 108.16 61.239 108.194 61.1391C108.228 61.0391 108.283 60.9472 108.354 60.8692C108.388 61.1188 108.516 61.3461 108.712 61.5047C108.908 61.6633 109.156 61.7413 109.408 61.7228C109.762 61.6697 110.099 61.5395 110.397 61.3414C110.252 61.4231 110.497 62.0316 110.588 62.1224C110.679 62.2132 110.561 62.4674 110.525 62.2858H110.506ZM111.623 60.7693C111.623 60.9418 111.287 61.0236 111.287 61.0054L111.069 60.3788C111.296 60.4061 111.669 60.5695 111.642 60.7693H111.623ZM110.833 59.4526C110.888 59.456 110.941 59.4703 110.99 59.4947C111.039 59.5191 111.082 59.553 111.118 59.5945C111.154 59.636 111.18 59.6842 111.197 59.7362C111.214 59.7883 111.22 59.8431 111.215 59.8976C111.215 60.0428 111.142 60.1337 110.833 60.0247C110.812 59.8341 110.818 59.6415 110.852 59.4526H110.833ZM110.225 60.061C110.061 60.061 109.707 60.0065 109.68 60.061C109.653 60.1155 110.37 60.5241 110.588 60.6603C110.772 60.8027 110.919 60.9862 111.018 61.196C111.118 61.4058 111.166 61.636 111.16 61.8681C111.123 61.9026 111.075 61.9217 111.024 61.9217C110.973 61.9217 110.925 61.9026 110.888 61.8681C110.67 61.6683 110.679 61.3959 110.615 61.1416C110.552 60.8874 110.416 60.7784 110.189 60.9419C110.036 61.0894 109.849 61.1972 109.645 61.2558C109.441 61.3144 109.225 61.322 109.017 61.2778C108.327 61.0054 108.418 60.1246 108.772 59.5616C108.872 59.4526 109.108 59.4617 109.244 59.4435H110.152C110.217 59.6432 110.254 59.8511 110.261 60.061H110.225ZM110.143 59.0258C109.74 58.988 109.334 59.025 108.945 59.1348C109.281 58.8805 109.053 58.4537 108.727 58.2267C107.891 57.4276 107.165 56.5195 106.284 55.793C102.252 52.306 98.6196 51.071 93.7069 50.3445C91.591 47.6203 89.7204 44.896 86.1607 42.5531C85.9337 42.3988 85.4342 41.9992 85.1073 41.8085C85.5197 41.799 85.9204 41.6696 86.2606 41.4362C86.3919 41.5561 86.5534 41.6381 86.7278 41.6733C86.9021 41.7085 87.0828 41.6956 87.2504 41.636C87.3961 41.5542 87.5165 41.4338 87.5982 41.288C87.6799 41.1422 87.7198 40.9766 87.7135 40.8096C87.9279 40.8273 88.1427 40.7805 88.3303 40.6753C88.518 40.5702 88.67 40.4114 88.7669 40.2194C88.9667 40.3828 89.1846 40.2194 89.2936 40.0014C89.4025 39.7835 89.2936 39.502 89.3935 39.2205C89.478 38.939 89.6168 38.6768 89.8021 38.4486C90.3604 37.5508 90.826 36.5984 91.1915 35.6063C91.3808 35.2428 91.4922 34.8438 91.5184 34.4349C92.74 35.3201 94.0746 36.0378 95.4867 36.5689C96.1859 36.8413 96.8398 37.2045 97.5571 37.4769C100.728 38.6521 104.007 39.5129 107.346 40.0468C107.768 40.222 108.216 40.3263 108.672 40.3556C108.917 46.4034 110.08 57.9179 110.143 59.0258ZM84.1992 35.1613C84.2638 35.0024 84.273 34.8263 84.2252 34.6616C84.1774 34.4968 84.0755 34.3529 83.9359 34.2532C84.3263 33.6902 84.1266 33.7356 84.7985 32.6096C85.0074 32.201 85.2344 31.8105 85.4796 31.4291C85.7248 31.0477 86.0426 30.8479 86.5693 31.1204L89.7385 32.8366C90.02 32.991 91.2096 33.4087 91.3004 33.7447C91.3004 35.1432 89.6296 38.3759 88.4854 39.057C88.177 39.203 87.8357 39.2656 87.4956 39.2386C87.7317 39.2386 87.4956 38.2488 87.4956 38.158C87.444 37.9947 87.3771 37.8366 87.2958 37.6858C87.3641 37.7175 87.4384 37.7339 87.5137 37.7339C87.589 37.7339 87.6634 37.7175 87.7317 37.6858C88.2584 37.4497 88.3673 36.8958 88.4491 36.3872C88.5881 35.7898 88.5881 35.1685 88.4491 34.5711C88.0767 36.6052 88.0313 37.2953 87.6136 37.4406C87.1959 37.5859 86.9053 37.2318 86.651 36.9957C86.1204 36.5791 85.4976 36.2957 84.8349 36.1693H84.2719C84.3821 35.9886 84.4417 35.7816 84.4444 35.57C84.4898 35.4882 84.2174 35.0705 84.1992 35.1613ZM83.5908 41.2092C83.5908 41.3272 83.5908 41.2092 83.4818 41.7177C83.3089 41.6574 83.1583 41.5462 83.0497 41.3987C82.9411 41.2512 82.8797 41.0744 82.8734 40.8913L83.5908 41.2092ZM82.8825 40.6643V40.2648C83.4001 40.7915 83.4001 40.4555 83.3638 40.9004C83.1926 40.846 83.0304 40.7664 82.8825 40.6643ZM83.4909 25.5538C82.7317 24.9536 82.0323 24.2816 81.4023 23.5469C81.4023 23.2745 81.6566 22.3664 81.7928 21.5673C82.1742 20.1235 82.8734 18.8431 83.3184 17.4264C84.2914 18.3283 85.3098 19.18 86.3695 19.9782C86.1698 20.7591 85.8882 21.5219 85.7339 22.3119C85.6703 22.5934 85.5523 25.0362 85.4524 25.0362C85.1953 25.1677 84.9974 25.3915 84.8984 25.6628C84.4502 25.4887 83.9606 25.4508 83.4909 25.5538ZM81.3206 24.0827C81.366 24.2371 82.7009 25.4176 83.1367 25.8081C82.4648 26.48 82.6101 26.1259 81.593 26.589C81.6838 26.5164 81.2479 24.5186 81.3206 24.0827ZM103.36 27.9602C103.36 29.3587 102.888 32.8366 104.268 36.2329C103.178 35.9604 102.052 35.6789 101.035 35.3974C100.555 33.3563 100.323 31.2647 100.345 29.168C100.36 28.5902 100.412 28.0139 100.499 27.4426C100.463 27.1339 100.272 27.4335 103.36 27.9602ZM90.7102 25.7445C90.7533 24.8817 90.976 24.0373 91.364 23.2654C92.3108 23.6874 93.2219 24.1855 94.0883 24.7547C94.397 24.9363 95.2143 25.2178 95.3323 25.581C95.4504 25.9443 95.1689 26.4346 95.0872 26.8614C94.7152 29.0481 94.8487 31.2908 95.4776 33.4178L93.4889 32.5642C93.7886 32.6913 93.8521 31.6561 93.7795 31.5108L94.0247 31.2566C94.0802 31.1237 94.1069 30.9806 94.103 30.8367C94.099 30.6928 94.0646 30.5513 94.002 30.4217C93.9393 30.2921 93.8498 30.1773 93.7395 30.0848C93.6291 29.9923 93.5004 29.9244 93.3618 29.8854C93.4596 29.7979 93.5239 29.6791 93.5434 29.5494C93.6067 29.3836 93.6264 29.2044 93.6005 29.0288C93.5746 28.8533 93.504 28.6873 93.3955 28.5469C93.287 28.4065 93.1442 28.2963 92.9809 28.227C92.8176 28.1576 92.6392 28.1315 92.4628 28.1509C92.5206 27.9572 92.5229 27.7512 92.4695 27.5562C92.416 27.3613 92.309 27.1852 92.1605 27.0481C92.012 26.9109 91.828 26.8182 91.6294 26.7804C91.4308 26.7426 91.2256 26.7612 91.0371 26.8342C91.0476 26.4453 90.933 26.0633 90.7102 25.7445ZM90.2198 25.6355C90.0745 25.4721 88.9576 25.2541 89.0847 25.572C88.9967 25.3305 88.8414 25.1193 88.6371 24.9634C88.4327 24.8075 88.188 24.7135 87.9319 24.6925C87.6757 24.6715 87.4189 24.7243 87.1919 24.8448C86.9649 24.9653 86.7772 25.1483 86.651 25.3722C86.4694 25.0634 86.0335 25.2178 85.8428 24.9817C85.6521 24.7456 85.8428 23.8466 85.8428 23.5106C85.9104 22.3486 86.184 21.2078 86.651 20.1416C88.0495 21.195 89.4843 21.9578 90.7737 23.0202C90.6891 23.3992 90.6405 23.7854 90.6284 24.1735C90.5921 24.337 90.1835 25.5901 90.2198 25.6355ZM100.517 35.2521C100.309 35.2521 98.6196 34.5892 98.2019 34.4349C97.7842 34.2805 95.9044 33.7992 95.8499 33.5268C95.8396 33.412 95.8396 33.2965 95.8499 33.1817C95.3514 31.1868 95.2496 29.1135 95.5503 27.0794L95.8318 25.7082C96.8268 26.1199 97.8421 26.4806 98.8739 26.7888C99.3399 26.8622 99.7871 27.0257 100.191 27.2701C99.5472 29.9086 99.6605 32.6751 100.517 35.2521ZM92.3447 34.0807C93.0167 34.0807 93.2528 33.4541 93.3345 32.9365C94.0313 33.3193 94.7683 33.6239 95.5321 33.8446C95.7337 34.852 96.1085 35.8168 96.64 36.696C95.7465 36.3658 94.8705 35.99 94.0156 35.57C91.5365 34.3259 91.6364 34.2623 91.591 33.9263C91.8407 34.0218 92.1048 34.074 92.372 34.0807H92.3447ZM95.9771 34.1534C98.438 35.2158 100.636 35.906 100.517 35.8787C100.85 36.3436 101.154 36.8288 101.426 37.3317C101.804 37.8851 102.27 38.3728 102.806 38.7755C100.99 37.9492 100.935 38.4214 97.2666 36.8776C96.659 36.0695 96.2316 35.1406 96.0134 34.1534H95.9771ZM101.071 35.8424C101.289 35.915 102.506 36.1602 104.25 36.4508C104.635 37.7057 105.388 38.816 106.411 39.6382C105.381 39.4423 104.364 39.1783 103.369 38.8482C102.337 38.089 101.551 37.0439 101.108 35.8424H101.071ZM99.9363 26.6798C99.5272 26.655 99.1237 26.5724 98.7376 26.4346C97.7119 26.1555 96.7123 25.7878 95.75 25.3359C96.2205 23.4057 97.0966 21.5979 98.3199 20.0326C98.5379 19.9418 99.4914 20.4776 99.6911 20.5684C100.334 20.8298 100.959 21.1332 101.562 21.4765C100.91 23.1713 100.379 24.9101 99.9726 26.6798H99.9363ZM96.5219 22.2484C96.1224 22.9748 95.3232 24.228 95.4413 25.0998C94.6081 24.7449 93.8113 24.31 93.0621 23.8012C92.4809 23.4834 91.8634 23.1837 91.3004 22.8114C91.9618 20.9335 92.935 19.1806 94.1791 17.6262C94.1791 17.6262 97.8114 19.5514 98.0384 19.7875C98.0838 19.8329 96.6945 22.0123 96.5583 22.2484H96.5219ZM91.0008 22.766C86.6783 19.8874 86.987 20.1325 86.8508 19.9146C86.7146 19.6967 87.1686 18.9248 87.3049 18.6433C88.0264 17.2359 89.0385 15.9978 90.2743 15.0109C90.2743 15.0109 93.6796 17.2811 93.9066 17.5445C92.8714 18.7977 91.2732 21.0497 91.0371 22.766H91.0008ZM87.4229 17.7897C87.3321 17.935 86.4331 19.4969 86.5875 19.6058C85.4433 19.0065 84.6079 17.9259 83.5182 17.2357C83.6907 16.9361 83.8632 16.6364 84.0176 16.3277C84.9534 14.8527 86.1914 13.593 87.6499 12.6318C88.3844 13.3665 89.1638 14.055 89.9837 14.6931C88.9882 15.5895 88.1367 16.6339 87.4592 17.7897H87.4229ZM83.3729 16.7726C83.0913 16.3004 80.2581 13.9031 80.5124 13.4581C80.6679 13.2663 80.7934 13.0519 80.8847 12.8225C81.8277 11.4075 83.0366 10.1892 84.4444 9.23552C84.7441 9.04482 87.2413 12.1232 87.5591 12.4047C85.7777 13.4226 84.3347 14.9415 83.4092 16.7726H83.3729ZM83.5726 9.40806C82.4142 10.2199 81.4192 11.2426 80.6395 12.4229C80.4062 12.7121 80.2416 13.0506 80.1582 13.4127C79.3804 12.392 78.6705 11.3211 78.0333 10.2072C77.9986 10.1649 77.9797 10.112 77.9797 10.0573C77.9797 10.0027 77.9986 9.94974 78.0333 9.9075C78.8083 8.70145 79.8182 7.66377 81.0028 6.85634C81.1844 6.72921 81.2933 6.49311 81.5385 6.51127C81.6909 6.53533 81.8347 6.59784 81.9562 6.69288C82.8379 7.27529 83.6173 7.9994 84.2628 8.83596C84.0267 8.89953 83.8451 9.21736 83.609 9.40806H83.5726ZM79.2956 12.6318C79.6769 13.1221 79.7224 13.3219 79.9948 13.667C79.0982 15.5456 78.4861 17.5471 78.1786 19.6058C78.1786 19.3788 77.7155 19.0792 76.9164 17.6262C76.502 17.0381 76.1691 16.3966 75.9266 15.7192C76.1869 14.0599 76.7567 12.4642 77.6065 11.0154C77.6827 10.8481 77.7771 10.6897 77.888 10.5432C78.2964 11.2784 78.7674 11.9772 79.2956 12.6318ZM80.2944 13.9576C82.0471 16.3367 83.0187 16.6818 83.0187 17.2902C82.161 19.228 81.5508 21.266 81.2025 23.3562C81.2025 23.102 80.0311 22.0214 79.8767 21.8488C79.3306 21.2211 78.8242 20.5599 78.3602 19.8692C78.7587 17.8264 79.4084 15.8408 80.2944 13.9576ZM84.7168 36.9684H85.4342C85.4629 37.076 85.5249 37.1718 85.6113 37.2419C85.6978 37.3121 85.8043 37.353 85.9155 37.3589C86.0964 37.3481 86.2779 37.3696 86.4513 37.4225C86.428 37.4728 86.4219 37.5293 86.4338 37.5835C86.4456 37.6376 86.4749 37.6864 86.517 37.7224C86.5592 37.7584 86.612 37.7796 86.6673 37.7828C86.7226 37.7861 86.7775 37.7711 86.8236 37.7403C86.742 37.892 86.6809 38.0538 86.642 38.2216C86.5963 38.3508 86.5963 38.4919 86.642 38.6211C86.6578 38.6494 86.6793 38.6742 86.7052 38.6938C86.731 38.7134 86.7606 38.7275 86.7922 38.7352C86.8237 38.7429 86.8565 38.7439 86.8884 38.7384C86.9204 38.7328 86.9509 38.7207 86.978 38.7029C86.8865 38.895 86.8519 39.1092 86.8781 39.3204C86.8236 39.0843 86.1788 39.3204 86.0789 39.3204C86.0321 39.1694 85.938 39.0376 85.8104 38.9444C85.6828 38.8512 85.5286 38.8015 85.3706 38.8027H85.2072C85.2181 38.4968 85.1844 38.1909 85.1073 37.8947C84.9718 37.6595 84.7818 37.4602 84.5534 37.3135C84.6174 37.2067 84.6634 37.0901 84.6896 36.9684H84.7168ZM110.379 19.8964C112.195 21.7126 112.613 24.7184 112.877 27.1611C113.267 30.7934 112.786 36.242 110.37 39.0389C110.066 39.4517 109.63 39.7481 109.135 39.8786C108.639 40.0091 108.114 39.9659 107.646 39.7562C104.014 37.5314 103.478 32.7549 103.65 28.496C103.596 26.2068 104.068 23.9358 105.031 21.8579C105.34 21.1381 105.805 20.496 106.393 19.9782C106.917 19.4605 107.62 19.1635 108.356 19.1483C109.093 19.1331 109.807 19.4009 110.352 19.8964H110.379ZM106.747 18.9883C104.477 20.3959 103.36 24.9091 103.26 27.6061C102.308 27.2589 101.334 26.9738 100.345 26.7525C100.693 24.8829 101.241 23.0563 101.98 21.304C102.888 21.64 103.323 21.7126 104.277 22.0668C104.277 21.7398 104.522 22.0668 102.098 21.0406C102.613 20.088 103.375 19.2914 104.304 18.7341C105.107 18.8895 105.921 18.9836 106.738 19.0156L106.747 18.9883ZM100.99 17.1722C101.955 17.7412 102.97 18.2214 104.023 18.607C103.759 18.5071 102.424 19.7057 101.871 20.8772V20.9317C101.871 21.086 101.734 21.0043 101.634 21.0043C100.645 20.4685 99.5549 20.0962 98.5833 19.5695C99.2426 18.7569 99.9491 17.9837 100.699 17.2539L100.572 17.0995C100.399 17.2448 97.9204 19.3788 98.2019 19.5514L94.4606 17.4718C95.1559 16.546 96.0535 15.7913 97.0849 15.2652C96.2433 15.5182 95.4701 15.9592 94.8238 16.5547C94.6785 16.7 94.4787 17.1994 94.3698 17.2721C94.1064 17.4446 92.9713 16.4457 92.6262 16.2187C91.9633 15.7556 91.3004 15.3106 90.6466 14.7839C90.9288 14.5055 91.2659 14.289 91.6364 14.1483C92.0082 13.9298 92.3969 13.7415 92.7988 13.5852C93.2165 13.44 94.6149 12.9314 95.0417 13.2311C96.9504 14.6739 98.9327 16.0167 100.981 17.2539L100.99 17.1722ZM95.0327 12.8588C94.7058 12.5773 93.2165 13.0222 92.826 13.1221C91.9473 13.3421 91.1284 13.7546 90.4287 14.3299C89.5964 13.7371 88.8185 13.0716 88.104 12.3412C87.4047 11.8326 91.2732 10.2435 92.7261 10.9609C93.5677 11.5239 94.339 12.1854 95.0236 12.9314L95.0327 12.8588ZM92.6262 10.7702C91.3731 10.3071 88.9213 11.1062 87.6953 11.8417C84.6351 8.86321 84.8349 9.08115 84.8349 9.02666C86.1278 8.19435 87.6628 7.82021 89.1937 7.9642C90.396 8.84854 91.5396 9.81011 92.6172 10.8428L92.6262 10.7702ZM85.3979 5.55778C86.5421 5.7394 87.877 6.95623 88.7941 7.65545C88.1585 7.3013 87.1051 7.65545 86.4603 7.81891C85.7854 8.0526 85.1371 8.35698 84.5261 8.72699C83.858 7.69067 82.9147 6.86062 81.8019 6.32965C82.3165 6.0116 82.8917 5.80438 83.4909 5.72123C84.1141 5.56738 84.7576 5.51222 85.3979 5.55778ZM79.3864 5.58502C81.0801 4.90303 82.9585 4.83239 84.6987 5.38524C83.5867 5.45825 82.5031 5.76784 81.5204 6.29333C80.8152 5.9155 80.0317 5.70718 79.232 5.68491L79.3864 5.58502ZM78.6236 5.93917C79.4853 5.76909 80.3794 5.92783 81.1299 6.38414L81.3751 6.51127C80.7213 6.51127 79.8586 7.492 79.3954 7.90972C79.2048 8.08225 77.5793 9.64416 77.7518 9.88934C77.5157 9.53519 77.3069 9.17195 77.0617 8.8178C76.8165 8.46365 76.6712 8.23663 76.4805 7.90972C77.0249 7.08912 77.7603 6.41291 78.6236 5.93917ZM74.5826 11.8054C74.5823 11.996 74.6099 12.1857 74.6643 12.3684C74.8849 13.4733 75.1884 14.5601 75.5724 15.6194C75.2996 16.7807 75.3214 17.9919 75.636 19.1427C74.5804 16.8509 74.2144 14.3016 74.5826 11.8054ZM75.1729 13.5489C74.96 12.6561 74.8474 11.7424 74.8369 10.8247C74.926 10.5813 75.0385 10.3471 75.1729 10.1254C75.4998 9.40591 75.8887 8.71619 76.3352 8.06409C76.5895 8.50905 76.7892 8.97218 77.0344 9.42622C77.2796 9.88026 77.6701 10.1436 77.3613 10.7429C76.6299 12.1883 76.0634 13.7114 75.6723 15.2834C75.5567 14.6918 75.3896 14.1114 75.1729 13.5489ZM75.8176 16.4548C78.333 20.9952 78.1605 18.7341 77.9062 21.7398C77.813 22.2815 77.8858 22.8386 78.115 23.3381C77.2375 22.4385 76.575 21.3519 76.1771 20.1599C75.7792 18.9678 75.6563 17.7011 75.8176 16.4548ZM80.6304 26.1531C79.8227 25.3711 79.0843 24.5203 78.4238 23.6105C78.0158 22.8704 77.9147 21.9998 78.1423 21.1859C78.1622 20.9114 78.2141 20.6402 78.2967 20.3777C78.3799 20.7472 78.5583 21.0884 78.8143 21.3675C79.4556 22.2351 80.163 23.0517 80.9301 23.8103C80.9723 23.8378 81.0042 23.8787 81.0206 23.9264C81.0371 23.9741 81.0372 24.0259 81.0209 24.0736C81.0583 24.9526 81.183 25.8256 81.3932 26.6798C81.1849 26.4456 80.9233 26.2649 80.6304 26.1531ZM77.3795 34.7981C77.499 35.2629 77.7226 35.6945 78.0333 36.0603C78.167 36.2093 78.3428 36.3141 78.5373 36.3612C78.7318 36.4082 78.9361 36.3951 79.123 36.3237C79.6091 36.2003 80.0619 35.9708 80.4488 35.6517C80.6901 35.681 80.934 35.681 81.1753 35.6517C81.4368 35.5062 81.6656 35.3083 81.8473 35.0705C82.1547 34.7806 82.4178 34.4471 82.6282 34.0807C82.2984 33.8119 82.0735 33.4359 81.9926 33.0183C81.6384 31.6925 83.8087 30.9206 83.3184 33.9263C83.1549 34.9162 82.1833 35.3429 82.1833 36.3237C82.1833 36.5507 82.1833 36.5416 82.0289 36.7323C81.9307 36.8176 81.852 36.9229 81.7981 37.0412C81.7442 37.1594 81.7163 37.2879 81.7163 37.4179C81.7163 37.5479 81.7442 37.6764 81.7981 37.7947C81.852 37.913 81.9307 38.0183 82.0289 38.1035C81.86 38.2305 81.7309 38.4031 81.6569 38.601C81.5829 38.7989 81.567 39.0138 81.6112 39.2205C81.7655 39.8561 82.2559 39.8652 82.71 40.1286C82.6512 40.4276 82.6238 40.7319 82.6282 41.0366C82.6728 41.2275 82.7618 41.4051 82.8881 41.555C83.0143 41.7049 83.1742 41.8229 83.3547 41.8993C83.0702 42.6737 82.5019 43.3109 81.765 43.6819C81.0282 44.0528 80.1778 44.1298 79.3864 43.8971C78.3212 43.6943 77.3588 43.1297 76.6621 42.2989C76.2746 41.7493 76.0451 41.1041 75.9987 40.4332C75.9522 39.7624 76.0906 39.0917 76.3988 38.494C76.6921 37.7417 76.9467 36.9749 77.1616 36.1965C77.3069 35.7447 77.3804 35.2728 77.3795 34.7981ZM44.1799 21.1768C43.3623 21.2698 42.5367 21.2698 41.719 21.1768C41.6191 21.1768 41.492 21.0951 41.492 20.9861C41.492 20.8772 41.61 20.8136 41.719 20.7773C42.3547 20.5957 42.7542 20.7773 42.845 20.5684C42.1523 20.3091 41.496 19.9611 40.8927 19.5332C40.9072 19.5009 40.933 19.4751 40.9653 19.4606C41.3739 19.2426 41.9551 19.6967 42.2911 19.4606C42.0641 19.0065 41.7372 19.0792 41.1288 18.7886C40.9744 18.7886 40.9017 18.4344 41.2559 18.4707C41.7196 18.4903 42.1728 18.6145 42.5817 18.834C42.5817 18.3709 41.9188 18.3073 41.9188 17.9259C42.1218 17.9437 42.3178 18.009 42.4909 18.1166C43.3482 18.5334 44.1632 19.0322 44.9246 19.6058C44.8519 19.5423 44.416 20.3232 44.3797 20.3777C44.2342 20.6279 44.1648 20.9151 44.1799 21.2041V21.1768ZM56.7478 41.6723C58.814 39.6148 61.2076 37.9147 63.8309 36.6415C64.7682 37.8225 65.8411 38.8892 67.0273 39.8198L67.1454 39.6563C64.5672 37.563 62.6705 34.7495 61.6969 31.5744C60.7888 28.6413 61.2428 28.0692 60.7161 28.042C57.9224 28.0533 55.1379 27.7208 52.4253 27.0521C50.029 26.3481 47.7949 25.1786 45.8508 23.6105C45.1432 23.1066 44.6583 22.3483 44.4978 21.4947C44.3706 19.1609 47.7215 18.3254 50.1279 18.2165C51.4809 18.1529 52.8521 18.2165 54.1689 18.1347C60.6599 17.932 66.9663 20.3128 71.704 24.7547C74.737 27.6787 77.8335 33.0455 76.5622 37.032C76.2358 37.8944 75.9896 38.7851 75.8267 39.6927C74.9186 44.6599 82.601 46.1038 83.8269 41.1547C84.4989 41.8176 84.962 41.8812 85.8156 42.6076C90.6648 46.1492 92.3538 49.5272 93.5525 50.7168C95.7643 50.9593 97.9279 51.5285 99.9726 52.4059C103.323 53.8432 106.29 56.0451 108.636 58.8351C107.619 60.8692 107.446 61.3959 106.938 61.6774C106.301 61.9143 105.628 62.0403 104.949 62.0497C100.555 62.5032 96.1163 61.944 91.9724 60.4152C87.8197 58.885 83.95 56.6755 80.5215 53.877C82.0281 52.1226 83.3545 50.2212 84.4807 48.2014H84.3082C80.9003 53.7185 75.9191 58.0894 70.0058 60.7512C69.3153 61.1097 68.5279 61.2371 67.7595 61.1145C66.9912 60.9919 66.2825 60.6258 65.7379 60.0701C62.7412 57.6001 60.4074 53.6318 58.7274 50.1356C57.4552 48.1339 56.4623 45.9678 55.7762 43.6973C55.8243 42.9216 56.1729 42.1952 56.7478 41.6723ZM58.3914 86.2683L88.3582 71.521C89.1406 73.3169 90.0198 75.069 90.9917 76.7698C91.9543 78.5859 98.2564 91.4989 98.5833 92.1346C97.0749 92.9422 95.6407 93.8812 94.2971 94.9405C93.9777 94.1163 93.5167 93.3541 92.935 92.6885C93.1412 93.5769 93.514 94.4181 94.0338 95.1676C93.0862 95.9046 92.1769 96.6896 91.3095 97.5195C90.9826 97.5195 91.0734 96.3935 89.4933 94.5319C89.82 95.7166 90.3155 96.8482 90.9644 97.8918C90.0666 98.7636 89.2321 99.6983 88.4672 100.689C87.7161 99.1492 86.851 97.6679 85.8792 96.2573C86.5277 97.9501 87.2892 99.5974 88.1585 101.188C88.1585 101.279 86.4422 103.976 86.3423 104.067C87.7861 104.239 89.4025 103.967 91.7908 105.229C93.1348 105.847 92.4355 107.608 91.4094 108.244C90.4062 108.681 89.2812 108.752 88.2311 108.444L88.0495 108.135C89.0261 108.212 90.0088 108.142 90.9644 107.926C91.9633 107.527 92.7806 106.019 90.9644 105.311C88.8061 104.639 86.5488 104.341 84.29 104.43C82.9013 104.485 81.5436 104.858 80.3217 105.52C79.5537 103.705 78.6013 101.973 77.4794 100.353C78.1805 102.204 79.0182 104.001 79.9857 105.729C79.0877 106.342 78.1059 106.822 77.0707 107.154C76.3018 105.335 75.3463 103.6 74.2194 101.978C74.9088 103.76 75.7252 105.49 76.6621 107.154H75.0094C74.7535 107.109 74.49 107.164 74.2738 107.309C74.1558 107 73.9106 106.491 73.1297 104.811C72.8845 104.285 72.6211 103.685 71.9219 103.504C71.1748 103.553 70.4611 103.832 69.8787 104.303C69.0705 104.712 68.7709 105.302 69.0342 106.019C69.5881 107.463 70.3055 108.889 70.2692 108.798C70.5235 109.361 70.8504 110.051 71.4951 110.142C72.1398 110.233 74.2829 109.415 74.4736 108.326C75.298 109.058 76.3788 109.433 77.4794 109.37C78.2773 109.268 79.0645 109.095 79.8313 108.852C79.35 109.116 79.686 108.952 78.8324 109.424C78.1786 109.797 78.0333 110.478 78.3966 111.341C78.3966 111.431 79.3046 113.511 79.5952 113.947C79.9494 114.573 80.2854 115.173 81.0572 115.173C81.5567 115.173 81.6293 115.055 83.391 114.165C84.1357 113.638 83.9268 112.993 83.6271 112.267C83.294 111.447 82.915 110.647 82.492 109.869C82.2105 109.306 81.9108 108.607 80.9664 108.498C81.934 108.203 82.9345 108.029 83.9449 107.981C85.7611 111.867 85.7611 111.985 86.2787 112.657L86.3514 112.576C86.5057 112.421 86.3514 112.022 86.1788 111.858C86.0063 111.695 84.29 108.053 84.2355 107.962C85.1447 107.949 86.054 107.983 86.9598 108.062C87.2651 108.053 87.5704 108.084 87.8679 108.153C88.2748 109.186 88.7796 110.177 89.3753 111.114L89.457 111.041C89.6114 110.886 89.457 110.487 89.2754 110.314C90.0537 111.26 90.9137 112.135 91.8453 112.93C92.056 113.206 92.3325 113.426 92.6497 113.569C92.9668 113.711 93.3146 113.773 93.6615 113.747C96.4273 112.991 99.3404 112.953 102.125 113.638C102.75 113.812 103.315 114.154 103.759 114.628C103.876 114.827 103.948 115.048 103.97 115.278C103.991 115.507 103.963 115.738 103.886 115.956C103.809 116.173 103.685 116.37 103.524 116.535C103.362 116.699 103.167 116.826 102.951 116.907C101.135 117.688 99.9817 116.962 97.0032 117.134C98.4672 117.862 99.8809 118.687 101.235 119.604C101.144 119.604 37.1604 151.087 35.9527 151.614C34.8902 148.926 14.9124 109.17 14.5491 108.235C18.1815 106.419 20.9057 104.92 46.0597 92.18C45.8591 92.5538 45.6802 92.9388 45.5239 93.3332C45.4617 93.4458 45.4224 93.5695 45.4084 93.6973C45.3944 93.8252 45.4058 93.9545 45.4422 94.0779C45.5233 94.195 45.6284 94.2937 45.7505 94.3672C45.8726 94.4408 46.0089 94.4876 46.1505 94.5047C45.8326 94.4229 45.088 97.3379 45.0698 97.6012C44.6703 96.9383 44.4251 96.5388 43.5624 96.6931C42.6479 96.898 41.8514 97.4562 41.3467 98.246C40.82 99.7171 41.9733 101.106 42.6997 102.205C43.0721 102.795 43.3808 103.331 44.1708 103.195C44.7316 103.069 45.2745 102.874 45.7872 102.614C46.0009 102.532 46.1978 102.412 46.3684 102.26C47.0131 101.579 46.7589 100.834 46.3684 100.098L46.2231 99.826C45.9598 99.2812 45.5965 98.8362 45.315 98.3004C46.2602 99.0632 47.4332 99.4883 48.6477 99.5082C48.6935 99.5062 48.7389 99.5182 48.7778 99.5425C48.8167 99.5668 48.8473 99.6023 48.8656 99.6444C48.9928 99.8351 49.4196 100.952 49.6738 100.952C49.7737 100.952 49.7828 100.807 49.7465 100.725L49.3378 99.7261C49.4286 99.7261 49.3378 99.7261 51.045 99.8169C52.6433 99.9168 53.3062 99.0451 54.6138 98.5184C55.1133 98.3004 55.8488 97.9645 55.9396 97.356C55.9256 96.7612 55.7112 96.1884 55.3312 95.7306C54.3686 94.2776 54.2687 93.4422 53.5968 92.7793C55.5443 90.8893 57.1646 88.689 58.3914 86.2683ZM81.4659 108.97C81.5476 109.061 84.7077 113.511 82.7917 114.056C81.6112 114.682 81.0482 114.809 80.6214 114.555C80.1598 114.086 79.801 113.527 79.568 112.912C79.2592 111.94 78.9959 111.785 78.6599 110.868C78.1423 109.788 80.9119 108.644 81.4659 108.97ZM71.5587 109.552C70.9775 109.388 70.7505 108.644 70.4417 107.926C70.2056 107.39 69.016 105.937 69.2975 105.029C69.345 104.885 69.4232 104.753 69.5266 104.641C69.6301 104.53 69.7564 104.442 69.8969 104.385C70.4551 103.981 71.1165 103.745 71.8039 103.704C72.2579 103.767 74.065 107.336 74.1104 107.409C74.8459 108.662 72.5394 109.543 71.5587 109.588V109.552ZM46.4501 101.824C45.6056 102.632 43.8893 103.558 43.1447 102.269C41.7735 99.8624 41.0379 99.0905 41.601 98.3004C42.1121 97.8286 42.7385 97.4997 43.4171 97.347C44.6521 96.8838 44.752 98.1461 45.9961 100.171C46.3775 100.934 46.6408 101.379 46.4501 101.86V101.824ZM53.1609 93.6511C53.288 93.5148 53.6058 93.1244 53.6603 93.0517C53.8419 93.2697 54.6592 95.0949 54.7773 95.3583C55.168 95.8889 55.4038 96.5177 55.4583 97.1744C55.3766 97.6376 55.0315 97.8373 54.6138 98.0825C54.2142 98.3265 53.7792 98.5072 53.3243 98.6183C53.3091 98.4424 53.2586 98.2713 53.1759 98.1153C53.0933 97.9593 52.9801 97.8216 52.8431 97.7102C52.6796 97.5649 52.2437 97.4196 52.1438 97.2652L51.3175 95.7669C51.9836 95.1213 52.5999 94.4262 53.1609 93.6874V93.6511ZM50.0916 96.2573C50.236 96.3076 50.3907 96.3207 50.5415 96.2953C50.6924 96.2699 50.8343 96.2069 50.9542 96.112C51.1358 96.4843 51.2811 96.4752 51.3901 97.02C49.9735 96.7476 50.0916 96.3299 50.0916 96.2573ZM49.7465 96.0121V96.23C49.7404 96.4375 49.8056 96.6407 49.9312 96.8059C50.0568 96.9712 50.2351 97.0884 50.4366 97.1381C51.2855 97.347 52.0827 97.7271 52.7795 98.255C53.5968 99.1631 51.7897 99.0542 51.381 99.0542C49.1744 99.0542 48.0302 99.1995 46.4138 98.4367C45.7963 98.137 45.8871 97.7102 46.0415 97.0927C46.2281 96.3451 46.4647 95.611 46.7498 94.8951C47.3945 95.1948 48.1301 95.3038 48.7748 95.6307C49.0762 95.8032 49.4048 95.9229 49.7465 95.9848V96.0121ZM33.9821 159.015H33.9095C33.196 158.349 32.6646 157.511 32.3657 156.581C32.3203 156.491 10.7533 112.467 9.03705 109.225C8.82283 108.929 8.68996 108.582 8.65172 108.219C8.61348 107.855 8.67119 107.488 8.81911 107.154C9.19511 106.609 9.73619 106.198 10.3629 105.983C12.4605 105.075 45.306 88.8382 47.6579 87.7122C47.1766 89.2196 46.7498 90.2367 46.2504 91.7441C44.08 92.7884 14.0588 107.962 13.8136 107.962C13.8136 108.062 35.3443 151.841 35.4441 152.023C35.544 152.204 36.0253 152.023 36.1161 152.023C36.2069 152.023 101.298 119.995 101.807 119.704C101.898 119.704 104.604 121.52 104.785 121.611C105.242 121.923 105.732 122.182 106.248 122.383C107.73 121.785 109.295 121.415 110.888 121.284C112.586 121.211 115.428 121.511 115.265 123.218C115.167 123.703 114.888 124.132 114.484 124.417C113.993 124.826 106.829 128.276 106.738 128.322C107.655 127.171 108.819 126.24 110.143 125.597C111.197 125.071 112.386 124.971 114.057 123.781C114.765 123.327 114.729 122.673 114.275 122.383C111.76 120.83 106.674 121.547 103.95 125.37C33.4554 160.114 36.7064 158.516 36.5248 158.597C35.9436 158.915 34.8902 159.542 33.9821 159.015ZM113.748 126.406C112.45 127.059 107.074 129.657 105.675 130.356C105.851 129.786 106.108 129.245 106.438 128.749C110.071 127.05 111.396 126.388 112.795 125.597C112.904 125.688 113.576 126.297 113.73 126.406H113.748ZM35.4805 173.626C35.5804 171.892 36.0162 160.214 36.0162 160.214C35.98 160 35.98 159.782 36.0162 159.569C36.0798 159.306 36.2978 159.251 36.9243 158.942L103.569 126.106L102.788 127.668C98.3835 129.811 39.3671 159.124 39.0311 159.124C37.115 159.968 37.8597 159.451 37.7144 161.721V162.402C37.7144 162.965 37.6145 163.519 37.6236 164.082C37.6236 164.255 99.8455 133.552 99.9363 133.507C99.905 133.577 99.8888 133.653 99.8888 133.729C99.8888 133.806 99.905 133.882 99.9363 133.952C100.154 134.615 101.389 134.606 101.925 134.615C102.734 134.64 103.537 134.462 104.259 134.097C105.476 132.889 105.421 131.7 105.675 130.819C107.564 129.865 107.01 130.111 114.811 126.279C114.911 126.279 117.726 127.45 118.125 127.568C118.08 127.951 118.08 128.338 118.125 128.721C118.169 129.117 118.299 129.498 118.507 129.838C118.952 130.553 119.51 131.19 120.159 131.727C120.078 131.754 37.1513 172.636 35.4623 173.59L35.4805 173.626ZM40.5476 162.656C40.5667 162.276 40.5392 161.895 40.4659 161.521C40.4566 161.486 40.4566 161.448 40.4659 161.412C40.3841 161.294 101.625 131.137 101.516 131.2C101.24 131.811 100.882 132.382 100.454 132.898L40.5476 162.656ZM40.366 161.176L40.257 160.186C40.2025 159.959 35.7166 162.175 102.052 129.729C101.934 130.153 101.766 130.561 101.553 130.946C101.444 130.955 40.8382 160.849 40.3387 161.14L40.366 161.176ZM38.0413 161.176C38.3863 161.004 39.6849 160.341 39.9664 160.168V161.34C39.2309 161.658 37.9141 162.248 37.8052 162.248V161.213C37.8975 161.198 37.9886 161.177 38.0776 161.149L38.0413 161.176ZM38.1412 159.959C38.3863 159.76 39.4306 159.378 39.8574 159.142L39.921 159.95C39.921 160.041 39.9846 159.95 38.0413 160.995C38.0231 160.15 37.9686 160.05 38.123 159.905L38.1412 159.959ZM38.0413 162.429C38.7523 162.138 39.4465 161.808 40.1208 161.44C40.1753 161.875 40.2207 162.311 40.257 162.747C40.1934 162.747 37.8324 163.891 37.7961 163.919V162.502C37.8687 162.357 37.9323 162.384 38.0231 162.375L38.0413 162.429ZM40.2752 159.769V158.915C40.5294 158.915 100.409 129.393 102.77 128.276C102.552 128.848 102.497 128.985 102.406 129.184C93.3618 133.244 49.3197 155.328 40.257 159.714L40.2752 159.769ZM144.042 146.338C143.742 147.137 144.832 147.891 145.486 148.318C144.714 148.554 143.506 148.944 143.252 149.725C143.161 150.152 143.57 150.633 143.897 150.988C144.115 151.224 145.713 153.203 145.631 153.122C143.461 152.422 137.086 149.825 137.177 149.861C136.512 149.65 135.895 149.311 135.361 148.863C134.571 147.764 136.514 146.456 137.74 145.021C138.376 144.359 138.403 144.113 139.038 143.432C139.565 142.624 140.746 143.759 146.258 144.449C145.677 144.931 144.959 144.903 144.024 146.284L144.042 146.338ZM153.205 145.203C152.569 145.203 133.962 141.244 132.736 140.663C132.591 140.599 132.591 140.599 132.591 140.463C132.636 140.127 136.341 129.212 137.34 126.724C137.488 126.267 137.724 125.844 138.036 125.479C138.348 125.115 138.728 124.815 139.156 124.599C140.376 123.994 141.691 123.604 143.043 123.445C145.015 123.058 147.007 122.782 149.009 122.619C149.872 122.619 150.371 123.654 150.898 124.435C152.712 127.413 153.911 130.723 154.424 134.172C154.937 137.62 154.754 141.136 153.886 144.513C153.74 145.058 153.468 145.149 153.186 145.149L153.205 145.203ZM163.193 141.789C165.99 143.042 166.118 145.512 163.847 147.482C162.958 148.575 161.984 149.596 160.932 150.533C161.114 149.764 161.357 149.011 161.659 148.281C162.104 147.219 162.04 146.692 160.751 146.692C159.904 146.741 159.057 146.588 158.281 146.247L158.544 145.966C159.053 145.43 159.688 144.758 159.607 143.986C159.525 143.214 158.617 142.778 156.81 142.524C159.053 139.491 158.753 139.373 159.053 139.491C160.458 140.169 161.828 140.917 163.157 141.734L163.193 141.789ZM161.559 125.443C161.734 126.12 161.859 126.809 161.931 127.504C161.816 127.065 161.569 126.672 161.223 126.378C161.163 126.317 161.086 126.275 161.002 126.257C160.918 126.239 160.831 126.247 160.751 126.279C160.469 126.424 160.36 126.951 160.369 127.277C159.551 131.193 158.216 134.982 156.401 138.547C155.765 139.618 155.802 139.818 155.856 139.954C156.038 140.535 156.937 139.873 157.454 139.664L158.49 139.083C157.267 141.011 155.904 142.848 154.412 144.576C155.266 140.716 155.374 136.727 154.73 132.826C154.027 129.115 152.483 125.614 150.217 122.592C153.729 122.39 157.252 122.573 160.724 123.137C161.175 123.822 161.45 124.608 161.523 125.425L161.559 125.443ZM155.466 116.317C157.585 117.989 159.299 120.118 160.478 122.546C153.896 121.585 147.193 121.853 140.709 123.336C139.616 123.567 138.607 124.095 137.794 124.862C135.878 127.523 135.815 129.402 135.07 131.527C133.89 134.942 132.991 137.711 132.228 140.245C128.241 138.429 118.943 131.609 118.607 128.331C118.67 126.515 120.604 120.321 124.509 117.17C126.28 115.717 128.245 114.519 130.348 113.611C130.141 113.805 129.979 114.041 129.872 114.303C129.764 114.566 129.714 114.848 129.726 115.131C129.737 115.415 129.809 115.692 129.937 115.945C130.064 116.198 130.245 116.421 130.466 116.598L131.456 117.879C131.603 118.077 131.788 118.243 132.002 118.367C132.215 118.49 132.451 118.57 132.695 118.599C132.94 118.629 133.188 118.609 133.425 118.539C133.661 118.47 133.881 118.354 134.071 118.197C134.268 118.05 134.434 117.866 134.558 117.654C134.682 117.442 134.761 117.207 134.792 116.963C134.823 116.72 134.803 116.473 134.736 116.237C134.668 116.001 134.553 115.781 134.398 115.59L133.49 114.201C133.327 113.859 133.069 113.571 132.747 113.372C132.425 113.172 132.053 113.069 131.674 113.075C135.414 111.704 139.418 111.21 143.379 111.631C143.01 113.396 142.785 115.188 142.707 116.989C142.653 118.06 143.679 117.77 143.697 116.88C143.762 115.127 143.959 113.382 144.287 111.658C146.33 112.358 147.229 111.813 152.133 114.056C151.525 114.734 150.964 115.453 150.453 116.208V116.235C150.353 116.417 150.181 116.771 150.526 117.007C150.871 117.243 151.516 116.48 151.733 116.181C152.101 115.599 152.504 115.041 152.941 114.51C154.367 115.481 154.757 115.736 155.429 116.299L155.466 116.317Z" fill="black"/>
<path d="M163.157 141.733C163.212 141.769 163.212 141.769 163.157 141.733V141.733ZM122.166 123.108L122.012 123.589C123.265 124.156 124.445 124.873 125.526 125.723L125.835 125.251C124.675 124.434 123.448 123.717 122.166 123.108ZM126.089 121.928C125.481 121.564 125.181 121.283 124.164 120.584C123.977 120.483 123.801 120.364 123.637 120.229L123.329 120.684C123.746 121.047 124.319 121.319 124.981 121.837C125.492 122.235 126.025 122.602 126.58 122.936C126.689 122.936 126.58 123.008 126.952 122.482C126.678 122.276 126.39 122.091 126.089 121.928ZM150.144 138.101C147.584 134.141 145.359 129.928 143.216 125.832C143.08 125.578 142.943 125.46 142.789 125.46C142.417 125.515 142.199 126.277 142.017 127.086C142.017 127.794 140.037 132.08 138.848 136.348C138.612 137.147 139.12 137.465 139.583 137.656C142.94 139.326 146.588 140.335 150.326 140.625C150.644 140.625 151.034 140.625 151.161 140.407C151.189 140.34 151.198 140.267 151.188 140.196C151.179 140.124 151.151 140.056 151.107 139.999C150.888 139.319 150.563 138.679 150.144 138.101ZM147.075 130.554C147.266 131.027 147.983 131.045 148.891 131.335C149.423 131.551 150.002 131.626 150.571 131.553C150.744 131.499 150.825 131.417 150.807 131.308C150.807 131.018 149.808 130.863 149.808 130.863L149.327 130.809C149.051 130.831 148.773 130.798 148.51 130.712C148.246 130.627 148.003 130.49 147.792 130.309C147.384 129.61 147.602 129.238 147.547 128.493C147.547 127.095 147.611 126.849 147.32 126.341C147.175 126.187 146.921 126.041 146.839 126.495C146.808 127.852 146.887 129.21 147.075 130.554ZM157.981 126.087C157.881 125.814 157.609 125.179 157.346 125.315C157.082 125.451 157.346 126.059 157.754 127.131C157.96 127.579 158.092 128.057 158.145 128.548C158.145 129.083 157.682 129.356 157.237 129.646C156.91 129.755 156.328 129.964 156.183 130.3C156.179 130.352 156.19 130.405 156.214 130.451C156.238 130.498 156.274 130.537 156.319 130.564C156.807 130.527 157.274 130.35 157.663 130.055C158.045 129.882 158.726 129.437 158.798 128.993C158.65 127.993 158.376 127.017 157.981 126.087Z" fill="black"/>
</svg>
