<svg width="268" height="236" viewBox="0 0 268 236" fill="none" xmlns="http://www.w3.org/2000/svg">
<path fill-rule="evenodd" clip-rule="evenodd" d="M139.423 169.606C139.423 164.868 143.264 161.027 148.002 161.027H197.776C204.577 161.027 211.078 163.04 216.084 166.719C221.087 170.397 225.059 176.181 225.059 183.359C225.059 190.537 221.089 196.321 216.087 200.001C211.082 203.684 204.58 205.7 197.776 205.7H79.5065C74.7686 205.7 70.9277 201.859 70.9277 197.121C70.9277 192.383 74.7686 188.542 79.5065 188.542H197.776C201.305 188.542 204.155 187.479 205.919 186.181C207.686 184.881 207.901 183.785 207.901 183.359C207.901 182.935 207.687 181.842 205.922 180.544C204.158 179.248 201.307 178.185 197.776 178.185L147.5 176.5C142.763 176.5 139.423 174.344 139.423 169.606Z" fill="#31366D"/>
<path fill-rule="evenodd" clip-rule="evenodd" d="M221.387 66.5942C222.255 63.8848 225.196 62.0005 228.557 62.0005H258.578C262.677 62.0005 266 64.774 266 68.1953C266 71.6166 262.677 74.3901 258.578 74.3901H234.254L225.594 101.405C224.535 104.71 220.466 106.673 216.506 105.788C212.546 104.904 210.195 101.508 211.254 98.203L221.387 66.5942Z" fill="#31366D"/>
<path d="M108.077 235.364C119.619 235.364 128.977 226.007 128.977 214.464C128.977 202.922 119.619 193.564 108.077 193.564C96.534 193.564 87.1768 202.922 87.1768 214.464C87.1768 226.007 96.534 235.364 108.077 235.364Z" fill="#323552"/>
<path d="M211.799 85.8711H67.772C56.9756 85.8711 49.0008 95.0286 51.4423 104.608L63.1763 160.956C64.9419 167.874 71.7087 172.783 79.506 172.783L206.5 181L228.163 104.634C233.5 89.0003 222.621 85.8711 211.799 85.8711Z" fill="#31366D"/>
<path d="M107.5 225C113.299 225 118 220.299 118 214.5C118 208.701 113.299 204 107.5 204C101.701 204 97 208.701 97 214.5C97 220.299 101.701 225 107.5 225Z" fill="white"/>
<mask id="mask0_241_1128" style="mask-type:alpha" maskUnits="userSpaceOnUse" x="51" y="83" width="178" height="96">
<path d="M212.157 83.0005H67.8093C56.9889 83.0005 48.9964 92.1455 51.4432 101.712L63.2034 157.983C64.973 164.892 71.7547 169.794 79.5695 169.794L206.846 178L228.557 101.738C231.004 92.1455 223.003 83.0005 212.157 83.0005Z" fill="#292D52"/>
</mask>
<g mask="url(#mask0_241_1128)">
<rect width="12.0676" height="55.7063" rx="6.0338" transform="matrix(0.999966 0.00820831 -0.0123697 0.999923 151.439 126.145)" fill="#242A5E"/>
<rect width="11.9998" height="212.484" rx="5" transform="matrix(0.00665264 0.999978 -0.999997 0.00255512 256.455 86.2246)" fill="#6066A6"/>
<rect width="12.0676" height="55.7063" rx="6.0338" transform="matrix(0.999966 0.00820831 -0.0123697 0.999923 185.546 126.29)" fill="#242A5E"/>
<rect width="12.0676" height="55.7063" rx="6.0338" transform="matrix(0.999966 0.00820831 -0.0123697 0.999923 117.335 126)" fill="#242A5E"/>
<rect width="12.0676" height="55.7063" rx="6.0338" transform="matrix(0.999966 0.00820831 -0.0123697 0.999923 82.8633 126)" fill="#242A5E"/>
</g>
<path d="M177.297 20.393C179.181 19.3184 181.893 20.5234 183.354 23.0844C183.38 23.1293 183.404 23.1749 183.429 23.2201C184.131 22.7459 185.181 22.5889 186.251 22.8812C187.911 23.3354 188.987 24.6963 188.652 25.9203C188.317 27.1443 186.699 27.7689 185.039 27.3148C184.745 27.2344 184.47 27.1232 184.217 26.9916C184.067 28.1575 183.515 29.1396 182.588 29.6684C181.535 30.2692 180.223 30.1569 179.016 29.4945C179.044 29.9185 179.004 30.3714 178.879 30.8275C178.425 32.4881 177.064 33.5627 175.84 33.2279C174.616 32.8931 173.992 31.2752 174.446 29.6146C174.799 28.3238 175.7 27.3895 176.659 27.1937C176.615 27.1226 176.572 27.0503 176.53 26.977C175.069 24.4158 175.412 21.468 177.297 20.393Z" fill="#FA8232"/>
<path d="M95.4814 23.7287C97.5889 24.0555 98.9488 26.6041 98.5653 29.4587C99.3924 29.5464 100.282 30.0755 100.92 30.9476C101.937 32.3368 101.931 34.0706 100.907 34.8201C99.8826 35.5695 98.2285 35.0508 97.2118 33.6616C97.0823 33.4847 96.9695 33.302 96.8732 33.1166C96.0158 33.9909 94.9367 34.4498 93.8466 34.281C92.5836 34.0854 91.5897 33.0913 91.0773 31.7122C90.8449 32.0266 90.5519 32.3211 90.2042 32.5755C88.8149 33.5922 87.0812 33.5861 86.3317 32.5619C85.5827 31.5378 86.1011 29.8837 87.4902 28.8671C88.5934 28.0598 89.9128 27.8996 90.7851 28.3796C91.2442 25.4782 93.3433 23.3975 95.4814 23.7287Z" fill="#FA8232"/>
<path d="M18.968 96.4612C19.4856 94.3172 22.5352 94.3172 23.0528 96.4612L24.7947 103.677C24.9796 104.443 25.5778 105.042 26.344 105.227L33.56 106.968C35.7041 107.486 35.7041 110.536 33.56 111.053L26.344 112.795C25.5778 112.98 24.9796 113.578 24.7947 114.345L23.0528 121.561C22.5352 123.705 19.4856 123.705 18.968 121.561L17.2261 114.345C17.0411 113.578 16.4429 112.98 15.6767 112.795L8.46073 111.053C6.31671 110.536 6.3167 107.486 8.46073 106.968L15.6767 105.227C16.4429 105.042 17.0411 104.443 17.2261 103.677L18.968 96.4612Z" fill="#E4E4E4"/>
<path d="M240.968 168.461C241.486 166.317 244.535 166.317 245.053 168.461L246.795 175.677C246.98 176.443 247.578 177.041 248.344 177.226L255.56 178.968C257.704 179.486 257.704 182.535 255.56 183.053L248.344 184.795C247.578 184.98 246.98 185.578 246.795 186.344L245.053 193.56C244.535 195.704 241.486 195.704 240.968 193.56L239.226 186.344C239.041 185.578 238.443 184.98 237.677 184.795L230.461 183.053C228.317 182.535 228.317 179.486 230.461 178.968L237.677 177.226C238.443 177.041 239.041 176.443 239.226 175.677L240.968 168.461Z" fill="#CDF6FF"/>
<path fill-rule="evenodd" clip-rule="evenodd" d="M49.628 44.9874C52.0354 44.9874 53.9869 43.0359 53.9869 40.6285C53.9869 38.2212 52.0354 36.2696 49.628 36.2696C47.2207 36.2696 45.2692 38.2212 45.2692 40.6285C45.2692 43.0359 47.2207 44.9874 49.628 44.9874ZM49.628 48.2565C53.8409 48.2565 57.2561 44.8414 57.2561 40.6285C57.2561 36.4157 53.8409 33.0005 49.628 33.0005C45.4152 33.0005 42 36.4157 42 40.6285C42 44.8414 45.4152 48.2565 49.628 48.2565Z" fill="#E4E4E4"/>
<path d="M32.0142 157.053C31.6812 155.747 32.8869 154.571 34.1845 154.935L42.943 157.397C44.2406 157.761 44.6568 159.394 43.6922 160.335L37.1815 166.69C36.2169 167.631 34.595 167.175 34.262 165.869L32.0142 157.053Z" fill="#E4E4E4"/>
<path d="M258.713 127.018C260.019 126.687 261.194 127.894 260.828 129.191L258.356 137.947C257.989 139.244 256.356 139.658 255.416 138.692L249.07 132.173C248.13 131.207 248.588 129.586 249.894 129.255L258.713 127.018Z" fill="#CDF6FF"/>
<path fill-rule="evenodd" clip-rule="evenodd" d="M230.128 35.6298C232.062 35.6298 233.63 34.062 233.63 32.128C233.63 30.1941 232.062 28.6263 230.128 28.6263C228.194 28.6263 226.626 30.1941 226.626 32.128C226.626 34.062 228.194 35.6298 230.128 35.6298ZM230.128 38.2561C233.512 38.2561 236.256 35.5124 236.256 32.128C236.256 28.7436 233.512 26 230.128 26C226.744 26 224 28.7436 224 32.128C224 35.5124 226.744 38.2561 230.128 38.2561Z" fill="#E4E4E4"/>
<rect x="47" y="86.0005" width="189" height="10" rx="5" fill="#282842"/>
<path d="M93.1205 36.106C91.3993 42.9912 96.9748 57.4584 105.581 58.606C121.506 60.7293 118.581 42.106 109.081 45.606C97.775 49.7714 109.089 67.5896 124.581 71.606" stroke="#ACACAC" stroke-linecap="round" stroke-linejoin="round" stroke-dasharray="4 4"/>
<path d="M183.635 34.3675C193.099 52.7879 168.024 72.4538 161.082 76.0973" stroke="#ACACAC" stroke-linecap="round" stroke-linejoin="round" stroke-dasharray="4 4"/>
<path d="M174.57 235.364C186.113 235.364 195.47 226.007 195.47 214.464C195.47 202.922 186.113 193.564 174.57 193.564C163.027 193.564 153.67 202.922 153.67 214.464C153.67 226.007 163.027 235.364 174.57 235.364Z" fill="#323552"/>
<path d="M174.5 225C180.299 225 185 220.299 185 214.5C185 208.701 180.299 204 174.5 204C168.701 204 164 208.701 164 214.5C164 220.299 168.701 225 174.5 225Z" fill="white"/>
</svg>
