<svg width="295" height="181" viewBox="0 0 295 181" fill="none" xmlns="http://www.w3.org/2000/svg">
<path d="M109.45 58.84C110.84 36.4399 108.29 -4.29005 150.4 1.10995C195.53 6.87995 182.62 59.66 182.62 59.66L109.45 58.84Z" fill="#323552"/>
<path d="M138.51 45.3801C148.661 45.3801 156.89 37.1511 156.89 27.0001C156.89 16.8491 148.661 8.62012 138.51 8.62012C128.359 8.62012 120.13 16.8491 120.13 27.0001C120.13 37.1511 128.359 45.3801 138.51 45.3801Z" fill="white"/>
<path d="M140.93 8.64971C132.22 7.16971 122.93 13.5797 122 20.0797L156.51 23.2597C155.29 15.8497 147.83 9.82971 140.93 8.64971Z" fill="#323552"/>
<path d="M152.58 26.5401C152.33 31.3501 149.71 35.1201 146.73 34.9601C143.75 34.8001 141.53 30.7901 141.73 25.9601C141.93 21.1301 144.6 17.3801 147.58 17.5401C150.56 17.7001 152.82 21.7401 152.58 26.5401Z" fill="#323552"/>
<path d="M138.51 46.3801C134.677 46.3801 130.93 45.2435 127.743 43.114C124.556 40.9845 122.072 37.9578 120.606 34.4165C119.139 30.8753 118.755 26.9786 119.503 23.2193C120.251 19.4599 122.096 16.0067 124.807 13.2964C127.517 10.586 130.97 8.74029 134.73 7.99251C138.489 7.24473 142.386 7.62851 145.927 9.09534C149.468 10.5622 152.495 13.0462 154.624 16.2332C156.754 19.4202 157.89 23.1671 157.89 27.0001C157.885 32.1384 155.842 37.0647 152.208 40.698C148.575 44.3313 143.649 46.3748 138.51 46.3801ZM138.51 9.63013C135.073 9.63013 131.712 10.6497 128.854 12.5599C125.995 14.4701 123.768 17.185 122.452 20.3614C121.137 23.5378 120.794 27.0328 121.465 30.4045C122.136 33.7761 123.793 36.8729 126.224 39.3032C128.656 41.7334 131.754 43.3879 135.126 44.0574C138.498 44.7269 141.993 44.3813 145.168 43.0643C148.344 41.7473 151.058 39.5181 152.966 36.6587C154.875 33.7992 155.892 30.438 155.89 27.0001C155.885 22.3932 154.052 17.9766 150.793 14.72C147.535 11.4634 143.117 9.63277 138.51 9.63013Z" fill="#282842"/>
<path opacity="0.3" d="M177.49 58.2802H177.37C177.306 58.2661 177.245 58.2393 177.192 58.2012C177.138 58.1632 177.092 58.1147 177.058 58.0587C177.023 58.0027 177 57.9403 176.991 57.8753C176.981 57.8103 176.984 57.7439 177 57.6802C177 57.5502 180.22 43.9902 176.91 30.2802C176.878 30.1476 176.901 30.0078 176.972 29.8915C177.043 29.7752 177.158 29.692 177.29 29.6602C177.423 29.6284 177.563 29.6505 177.679 29.7218C177.795 29.793 177.878 29.9076 177.91 30.0402C181.28 44.0402 178.03 57.7802 178 57.9102C177.971 58.021 177.904 58.1183 177.811 58.1856C177.718 58.253 177.605 58.2864 177.49 58.2802Z" fill="white"/>
<path opacity="0.3" d="M174.7 22.76C174.604 22.7588 174.51 22.7311 174.429 22.6799C174.348 22.6287 174.283 22.5561 174.24 22.47C172.997 19.7228 171.404 17.148 169.5 14.81C169.417 14.7076 169.378 14.5767 169.391 14.4456C169.404 14.3145 169.469 14.1939 169.57 14.11C169.621 14.0674 169.68 14.0354 169.743 14.0158C169.807 13.9963 169.874 13.9896 169.94 13.9961C170.006 14.0026 170.07 14.0222 170.128 14.0538C170.187 14.0854 170.238 14.1282 170.28 14.18C172.231 16.5858 173.868 19.2305 175.15 22.05C175.179 22.1089 175.195 22.173 175.198 22.2383C175.202 22.3037 175.192 22.3691 175.169 22.4306C175.147 22.4922 175.113 22.5486 175.068 22.5966C175.023 22.6445 174.97 22.6831 174.91 22.71C174.844 22.7406 174.773 22.7576 174.7 22.76Z" fill="white"/>
<path d="M15.73 163.92H15.36C14.0339 163.883 12.7769 163.32 11.8655 162.357C10.9541 161.393 10.4629 160.106 10.5 158.78C10.5371 157.454 11.0995 156.197 12.0635 155.285C13.0274 154.374 14.3139 153.883 15.64 153.92H15.73C18.62 153.92 25.57 150.41 40.11 127.49C40.496 126.881 41.009 126.363 41.6139 125.971C42.2188 125.579 42.9012 125.323 43.6145 125.219C44.3278 125.116 45.0551 125.168 45.7464 125.372C46.4378 125.575 47.0769 125.926 47.62 126.4C59.0386 136.216 71.492 144.76 84.76 151.88C85.374 152.159 85.9252 152.56 86.3803 153.058C86.8354 153.556 87.1851 154.14 87.4083 154.777C87.6315 155.414 87.7236 156.089 87.6791 156.762C87.6345 157.435 87.4542 158.092 87.149 158.693C86.8439 159.295 86.4201 159.829 85.9033 160.262C85.3865 160.696 84.7873 161.02 84.1419 161.216C83.4964 161.412 82.818 161.475 82.1474 161.402C81.4768 161.329 80.828 161.121 80.24 160.79C67.9087 154.237 56.2525 146.487 45.44 137.65C33.25 156 24.21 163.92 15.73 163.92Z" fill="#323552"/>
<path d="M46.67 125.5H46.24C45.4542 125.386 44.7456 124.965 44.2695 124.33C43.7934 123.694 43.5886 122.896 43.7 122.11C44.41 117.11 43.53 98.4798 37.22 83.9798C36.9402 83.339 36.8929 82.6206 37.0864 81.9486C37.28 81.2767 37.7022 80.6935 38.28 80.2998C51.98 70.9698 81.16 69.8498 82.4 69.8098C82.794 69.7966 83.1867 69.8612 83.5557 69.9999C83.9247 70.1385 84.2628 70.3485 84.5506 70.6178C84.8385 70.887 85.0705 71.2104 85.2334 71.5693C85.3963 71.9283 85.4869 72.3158 85.5 72.7098C85.5132 73.1037 85.4486 73.4964 85.3099 73.8654C85.1713 74.2344 84.9614 74.5725 84.6921 74.8604C84.4228 75.1482 84.0994 75.3802 83.7405 75.5431C83.3815 75.706 82.994 75.7966 82.6 75.8098C82.33 75.8098 56.82 76.8098 43.72 84.0098C49.3 98.4498 50.57 116.44 49.64 122.95C49.5323 123.66 49.1733 124.308 48.6282 124.776C48.0832 125.244 47.3884 125.501 46.67 125.5Z" fill="#323552"/>
<path d="M51.7103 121.62C49.7103 116.91 40.7103 117.44 35.4403 121.48C32.6203 123.63 28.8003 130.12 28.4403 132.48C28.3202 133.041 28.3382 133.622 28.4926 134.174C28.647 134.727 28.9333 135.233 29.3268 135.65C29.7204 136.068 30.2093 136.383 30.7517 136.569C31.294 136.755 31.8735 136.807 32.4403 136.72C35.8903 136.42 40.6203 131.41 40.6203 131.41C37.4703 134.5 41.5403 136.68 47.6203 132.21C50.9403 129.72 53.9403 126.89 51.7103 121.62Z" fill="#282842"/>
<path d="M223.71 60.1601C223.664 60.1704 223.616 60.1704 223.57 60.1601C223.506 60.1429 223.447 60.113 223.395 60.0722C223.343 60.0314 223.3 59.9805 223.268 59.9226C223.236 59.8647 223.216 59.8009 223.21 59.7352C223.203 59.6695 223.21 59.6031 223.23 59.5401C224.56 54.9001 226.01 52.0701 227.92 50.5401C227.621 49.4646 227.677 48.3211 228.08 47.2801C228.546 46.0649 229.369 45.0191 230.44 44.2801C230.149 43.9654 229.942 43.5822 229.839 43.166C229.736 42.7499 229.74 42.3143 229.85 41.9001C230.212 40.6474 230.961 39.5413 231.99 38.7401C231.619 38.3251 231.416 37.7868 231.42 37.2301C231.42 34.2301 236.93 29.7101 243.18 28.8501C243.313 28.8315 243.447 28.8664 243.554 28.947C243.661 29.0277 243.731 29.1475 243.75 29.2801C243.769 29.4127 243.734 29.5472 243.653 29.6541C243.572 29.761 243.453 29.8315 243.32 29.8501C237.38 30.6601 232.4 34.9601 232.42 37.2301C232.418 37.5685 232.547 37.8947 232.78 38.1401C234.125 37.2279 235.639 36.5927 237.232 36.2716C238.825 35.9506 240.467 35.95 242.06 36.2701C245.13 36.8601 246.38 37.5101 246.24 38.4401C245.96 40.1901 239.43 40.5601 235.05 40.0401C234.265 39.9688 233.502 39.7482 232.8 39.3901C231.857 40.0613 231.156 41.0186 230.8 42.1201C230.714 42.4115 230.715 42.7216 230.802 43.0127C230.889 43.3038 231.058 43.5635 231.29 43.7601C233.15 42.7601 235.76 42.4001 239.21 43.1601C243.74 44.1601 243.91 44.7101 244.02 45.0401C244.055 45.1567 244.058 45.2807 244.028 45.3987C243.998 45.5168 243.937 45.6244 243.85 45.7101C242.9 46.7101 235.95 46.2401 232.46 45.3801C232.039 45.284 231.632 45.1327 231.25 44.9301C230.217 45.5578 229.422 46.5111 228.99 47.6401C228.701 48.3705 228.622 49.1669 228.76 49.9401C228.938 49.8336 229.122 49.7368 229.31 49.6501C231.38 48.6501 233.88 48.8301 236.97 50.1501C238.97 51.0201 239.97 51.8001 240.07 52.5901C240.074 52.7927 240.024 52.9928 239.923 53.1689C239.823 53.345 239.677 53.4906 239.5 53.5901C237.97 54.5901 232.63 54.4501 229.85 52.9701C229.211 52.6227 228.678 52.1076 228.31 51.4801C226.68 52.9801 225.36 55.6501 224.16 59.8401C224.124 59.931 224.062 60.0095 223.982 60.0662C223.902 60.123 223.808 60.1556 223.71 60.1601ZM229.13 50.8301C229.408 51.3474 229.833 51.7716 230.35 52.0501C232.61 53.2501 237.05 53.5201 238.71 52.8501C239.05 52.7101 239.1 52.6001 239.1 52.6001C239.1 52.6001 239.05 52.0401 236.6 50.9901C233.8 49.7901 231.6 49.6201 229.77 50.4701C229.549 50.5764 229.336 50.6967 229.13 50.8301ZM232.47 44.2601L232.72 44.3301C235.977 45.0806 239.328 45.3334 242.66 45.0801C241.478 44.6416 240.26 44.307 239.02 44.0801C236.866 43.4966 234.589 43.5592 232.47 44.2601ZM233.73 38.6401C234.192 38.8056 234.672 38.913 235.16 38.9601C240.16 39.5501 244.55 38.8601 245.16 38.2301C244.99 38.0801 244.32 37.6501 241.84 37.1801C239.049 36.6235 236.151 37.1453 233.73 38.6401Z" fill="#323552"/>
<path d="M93.5302 162.25C94.1902 162.04 93.9702 161.4 93.2302 161.4H79.6902C53.9102 158.67 35.9002 162.33 47.2502 163.19C58.6002 164.05 46.4502 163.87 38.1602 167.01C29.8702 170.15 99.8102 170.94 106.16 167.01C112 163.39 84.3902 165.18 93.5302 162.25Z" fill="#323552"/>
<path d="M190.47 166.24L72.6703 162.33L67.7803 48.1099L206.89 51.2199L190.47 166.24Z" fill="#282842"/>
<path d="M109.45 164.05C109.324 164.051 109.203 164.003 109.11 163.918C109.017 163.833 108.96 163.716 108.95 163.59L99.5103 48.8701C99.5019 48.738 99.5452 48.6078 99.631 48.5071C99.7169 48.4063 99.8385 48.3428 99.9703 48.3301C100.102 48.3242 100.231 48.3684 100.331 48.4537C100.431 48.5391 100.495 48.6593 100.51 48.7901L110 163.51C110.006 163.576 109.998 163.642 109.978 163.705C109.958 163.767 109.925 163.826 109.883 163.876C109.84 163.926 109.788 163.967 109.729 163.997C109.67 164.027 109.606 164.045 109.54 164.05H109.45Z" fill="#323552"/>
<path d="M190.47 166.24L222.13 161.42L232.1 55.2097L206.89 51.2197L190.47 166.24Z" fill="#282842"/>
<path opacity="0.2" d="M190.47 166.24L222.13 161.42L232.1 55.2097L206.89 51.2197L190.47 166.24Z" fill="#191C1F"/>
<path d="M82.73 140.32L79.83 72.4497C79.7585 70.7731 80.0316 69.0996 80.6326 67.5327C81.2336 65.9658 82.1496 64.5389 83.324 63.3401C84.4984 62.1413 85.9063 61.1962 87.4605 60.5631C89.0147 59.9301 90.6822 59.6226 92.36 59.6597L180.42 61.6597C182.154 61.6989 183.86 62.1052 185.425 62.8519C186.991 63.5986 188.38 64.6687 189.502 65.9916C190.624 67.3145 191.452 68.8602 191.933 70.5267C192.413 72.1932 192.535 73.9427 192.29 75.6597L182.53 144C182.108 146.993 180.595 149.725 178.283 151.672C175.971 153.619 173.021 154.643 170 154.55L94.61 152.05C91.5151 151.954 88.5708 150.692 86.3675 148.517C84.1641 146.341 82.8648 143.413 82.73 140.32Z" fill="#323552"/>
<path d="M92.2502 80.4897L105.87 80.9198L105.76 84.4297L97.2302 84.1598L97.1502 86.7798L105.06 87.0298L104.95 90.3898L97.0402 90.1298L96.9402 93.3798L105.71 93.6598L105.59 97.3798L91.7202 96.9398L92.2502 80.4897Z" fill="white"/>
<path d="M108.4 97.47L108.92 81.02L117.4 81.29C118.616 81.2838 119.826 81.4591 120.99 81.81C121.816 82.0863 122.521 82.6369 122.99 83.37C123.338 83.904 123.572 84.5038 123.677 85.132C123.783 85.7603 123.758 86.4036 123.604 87.0219C123.45 87.6401 123.171 88.2201 122.783 88.7256C122.395 89.231 121.908 89.6513 121.35 89.96C120.782 90.2528 120.171 90.4552 119.54 90.56C120.005 90.7098 120.447 90.9253 120.85 91.2C121.142 91.471 121.404 91.7727 121.63 92.1C121.888 92.4113 122.116 92.7461 122.31 93.1L124.62 97.95L118.88 97.76L116.32 92.65C116.117 92.162 115.818 91.72 115.44 91.35C115.081 91.0905 114.653 90.9442 114.21 90.93H113.76L113.55 97.6L108.4 97.47ZM113.82 87.85L115.96 87.92C116.415 87.8924 116.866 87.8289 117.31 87.73C117.645 87.6791 117.949 87.5042 118.16 87.24C118.377 86.9734 118.5 86.6432 118.51 86.3C118.529 86.0714 118.497 85.8414 118.416 85.6269C118.334 85.4123 118.206 85.2187 118.04 85.06C117.482 84.6995 116.823 84.5277 116.16 84.57L113.92 84.5L113.82 87.85Z" fill="white"/>
<path d="M126.28 97.9998L126.8 81.5498L135.27 81.8198C136.486 81.8127 137.696 81.988 138.86 82.3398C139.687 82.6132 140.394 83.1644 140.86 83.8998C141.368 84.7011 141.606 85.6436 141.54 86.5898C141.543 87.3879 141.33 88.1718 140.923 88.8585C140.517 89.5451 139.932 90.1088 139.23 90.4898C138.661 90.7809 138.051 90.9833 137.42 91.0898C137.882 91.2389 138.32 91.4545 138.72 91.7298C139.019 91.9929 139.285 92.2918 139.51 92.6198C139.766 92.9325 139.993 93.2671 140.19 93.6198L142.5 98.4598L136.76 98.2798L134.2 93.1698C133.996 92.6826 133.697 92.2408 133.32 91.8698C132.963 91.6 132.528 91.4527 132.08 91.4498H131.64L131.42 98.1298L126.28 97.9998ZM131.69 88.3798L133.84 88.4398C134.295 88.4226 134.747 88.3623 135.19 88.2598C135.523 88.2103 135.824 88.0349 136.03 87.7698C136.254 87.5076 136.378 87.1746 136.38 86.8298C136.402 86.6018 136.372 86.3719 136.292 86.1572C136.213 85.9424 136.085 85.7485 135.92 85.5898C135.363 85.2203 134.697 85.0478 134.03 85.0998L131.8 85.0298L131.69 88.3798Z" fill="white"/>
<path d="M143.32 90.3597C143.243 89.2118 143.421 88.0611 143.841 86.9901C144.262 85.9192 144.914 84.9547 145.752 84.1659C146.589 83.3771 147.591 82.7837 148.685 82.4281C149.779 82.0726 150.939 81.9639 152.08 82.1097C153.232 82.0716 154.379 82.2652 155.455 82.6792C156.53 83.0932 157.511 83.7191 158.34 84.5197C159.08 85.3715 159.638 86.3648 159.982 87.4392C160.326 88.5137 160.448 89.6468 160.34 90.7697C160.348 92.4034 159.964 94.0152 159.22 95.4697C158.546 96.6598 157.538 97.6263 156.32 98.2497C154.885 98.9358 153.297 99.239 151.71 99.1297C150.128 99.1431 148.563 98.8014 147.13 98.1297C145.91 97.4679 144.915 96.4585 144.27 95.2298C143.514 93.7239 143.185 92.0394 143.32 90.3597ZM148.4 90.5397C148.25 91.8003 148.536 93.0741 149.21 94.1497C149.525 94.5017 149.908 94.7866 150.336 94.9873C150.764 95.1881 151.228 95.3008 151.7 95.3185C152.172 95.3362 152.643 95.2587 153.084 95.0905C153.526 94.9224 153.929 94.667 154.27 94.3397C155.011 93.2171 155.363 91.8818 155.27 90.5397C155.404 89.3345 155.11 88.1203 154.44 87.1097C154.137 86.7603 153.762 86.4803 153.341 86.2888C152.92 86.0972 152.463 85.9986 152 85.9997C151.533 85.9662 151.065 86.0387 150.63 86.2119C150.196 86.3851 149.806 86.6544 149.49 86.9997C148.733 88.0205 148.348 89.2698 148.4 90.5397Z" fill="white"/>
<path d="M162.91 99.21L163.43 82.75L171.9 83.02C173.116 83.018 174.325 83.1932 175.49 83.54C176.313 83.8206 177.018 84.3701 177.49 85.1C177.995 85.9024 178.233 86.844 178.17 87.79C178.175 88.5898 177.963 89.3758 177.556 90.0644C177.149 90.7529 176.563 91.3182 175.86 91.7C175.288 91.983 174.679 92.1817 174.05 92.29C174.513 92.4422 174.951 92.6612 175.35 92.94C175.649 93.203 175.914 93.502 176.14 93.83C176.398 94.1412 176.625 94.476 176.82 94.83L179.13 99.68L173.39 99.5L170.83 94.38C170.627 93.8952 170.327 93.4565 169.95 93.09C169.591 92.8215 169.158 92.6713 168.71 92.66H168.27L168.05 99.34L162.91 99.21ZM168.32 89.58L170.47 89.65C170.925 89.6327 171.377 89.5725 171.82 89.47C172.151 89.4167 172.451 89.242 172.66 88.98C172.896 88.7013 173.021 88.3451 173.01 87.98C173.032 87.7535 173.002 87.5251 172.922 87.312C172.842 87.0989 172.715 86.9067 172.55 86.75C171.992 86.3805 171.327 86.208 170.66 86.26L168.43 86.19L168.32 89.58Z" fill="white"/>
<path d="M171 127.16C170.813 127.163 170.626 127.127 170.454 127.053C170.282 126.978 170.127 126.868 170 126.73L161.44 117.36L152.2 125.8C151.944 126.034 151.606 126.158 151.259 126.143C150.912 126.128 150.585 125.976 150.35 125.72L141.79 116.35L132.55 124.79C132.294 125.024 131.956 125.148 131.609 125.133C131.262 125.118 130.935 124.966 130.7 124.71L122.13 115.34L112.9 123.78C112.766 123.902 112.608 123.995 112.436 124.053C112.264 124.112 112.081 124.134 111.9 124.12C111.553 124.099 111.227 123.945 110.99 123.69L102.43 114.33L93.2003 122.76C92.9426 122.995 92.6024 123.119 92.2538 123.104C91.9053 123.089 91.5769 122.936 91.3403 122.68C91.2236 122.553 91.1332 122.404 91.0744 122.242C91.0157 122.08 90.9897 121.908 90.9981 121.736C91.0065 121.564 91.049 121.395 91.1232 121.239C91.1974 121.084 91.3018 120.945 91.4303 120.83L101.63 111.5C101.888 111.265 102.228 111.141 102.577 111.156C102.925 111.171 103.254 111.323 103.49 111.58L112.05 120.95L121.28 112.51C121.542 112.28 121.882 112.158 122.23 112.17C122.578 112.188 122.905 112.343 123.14 112.6L131.7 121.97L140.94 113.53C141.066 113.412 141.215 113.321 141.376 113.262C141.538 113.202 141.71 113.175 141.882 113.183C142.054 113.19 142.223 113.232 142.379 113.305C142.535 113.378 142.675 113.482 142.79 113.61L151.35 122.98L160.59 114.54C160.846 114.305 161.185 114.182 161.532 114.197C161.879 114.212 162.206 114.364 162.44 114.62L172 125C172.171 125.191 172.283 125.427 172.321 125.681C172.36 125.934 172.324 126.193 172.218 126.426C172.112 126.659 171.941 126.857 171.724 126.994C171.508 127.131 171.257 127.203 171 127.2V127.16Z" fill="white"/>
<path d="M12.7502 168.67L6.49015 165.68L0.910156 138.51L3.94016 135.18L12.7502 168.67Z" fill="#282842"/>
<path d="M12.7499 168.67L21.0599 163.81L13.9399 141.43L3.93994 135.18L12.7499 168.67Z" fill="#282842"/>
<path opacity="0.2" d="M12.7499 168.67L21.0599 163.81L13.9399 141.43L3.93994 135.18L12.7499 168.67Z" fill="#191C1F"/>
<path d="M149 173.61H148.31C146.984 173.574 145.727 173.013 144.814 172.05C143.902 171.087 143.409 169.801 143.445 168.475C143.481 167.149 144.042 165.891 145.005 164.979C145.968 164.067 147.254 163.574 148.58 163.61C156.28 163.86 172.58 159.13 181.9 150.09C182.463 149.538 183.148 149.127 183.9 148.89C199.69 144.15 205.56 153.72 205.8 154.13L197.2 159.22C197.23 159.284 197.267 159.344 197.31 159.4C197.22 159.27 194.98 156.4 187.86 158.16C176.17 168.82 158.23 173.61 149 173.61Z" fill="#323552"/>
<path d="M148.39 180.25L130.18 179.11L128.75 145.53L153.22 146.44L148.39 180.25Z" fill="#282842"/>
<path d="M148.39 180.25L152.65 176.01L155.29 155.08L153.22 146.44L148.39 180.25Z" fill="#282842"/>
<path opacity="0.2" d="M148.39 180.25L152.65 176.01L155.29 155.08L153.22 146.44L148.39 180.25Z" fill="#191C1F"/>
<path d="M253.91 167.54C253.256 167.539 252.621 167.325 252.1 166.93C241.7 159.03 227.65 145 222.26 131.47C222.179 131.274 222.122 131.069 222.09 130.86C219.46 115.22 216.95 82.31 216.84 80.92C216.81 80.526 216.859 80.1301 216.982 79.7548C217.106 79.3795 217.302 79.0322 217.56 78.7327C218.08 78.1279 218.819 77.7546 219.615 77.695C220.411 77.6353 221.197 77.8941 221.802 78.4145C222.407 78.9349 222.78 79.6743 222.84 80.4699C222.84 80.7999 225.41 114.03 227.97 129.54C233.35 142.7 247.97 156.21 255.75 162.15C256.251 162.53 256.62 163.058 256.804 163.659C256.989 164.26 256.98 164.904 256.779 165.5C256.578 166.095 256.195 166.613 255.683 166.979C255.172 167.345 254.559 167.541 253.93 167.54H253.91Z" fill="#323552"/>
<path d="M267.78 169.05C265.46 169.05 262.83 168 259.96 165.93C259.316 165.463 258.883 164.759 258.757 163.974C258.632 163.188 258.823 162.384 259.29 161.74C259.757 161.095 260.461 160.663 261.246 160.537C262.032 160.412 262.836 160.603 263.48 161.07C265.96 162.86 267.31 163.07 267.78 163.07C268.576 163.07 269.339 163.386 269.901 163.949C270.464 164.511 270.78 165.274 270.78 166.07C270.78 166.866 270.464 167.629 269.901 168.191C269.339 168.754 268.576 169.07 267.78 169.07V169.05Z" fill="#323552"/>
<path d="M260.8 165.84C264.01 156.31 277.17 158.19 281.71 159.61C285.588 160.736 289.308 162.349 292.78 164.41C295.23 166.01 295.27 168.7 292 170.23C288 172.11 277.84 170.44 277.84 170.44C283.08 172.73 277.84 176.44 268.63 172.8C265.64 171.62 259.67 169.34 260.8 165.84Z" fill="#282842"/>
<path d="M228.86 85C227.67 93.1 220.96 99.07 215.5 98.27C210.04 97.47 209.82 90.27 211.01 82.13C212.2 73.99 214.36 68.13 219.82 68.93C225.28 69.73 230.05 76.93 228.86 85Z" fill="#323552"/>
<path d="M96.8801 52.7001C97.3329 52.7001 97.7001 52.3329 97.7001 51.8801C97.7001 51.4272 97.3329 51.0601 96.8801 51.0601C96.4272 51.0601 96.0601 51.4272 96.0601 51.8801C96.0601 52.3329 96.4272 52.7001 96.8801 52.7001Z" fill="#323552"/>
<path d="M105.21 57.78C105.21 57.9421 105.162 58.1007 105.072 58.2355C104.982 58.3704 104.854 58.4755 104.704 58.5375C104.554 58.5996 104.389 58.6159 104.23 58.5842C104.071 58.5526 103.925 58.4745 103.81 58.3598C103.696 58.2451 103.618 58.099 103.586 57.9399C103.554 57.7809 103.571 57.616 103.633 57.4662C103.695 57.3163 103.8 57.1883 103.935 57.0982C104.07 57.0081 104.228 56.96 104.39 56.96C104.608 56.96 104.816 57.0464 104.97 57.2001C105.124 57.3539 105.21 57.5625 105.21 57.78Z" fill="#323552"/>
<path d="M106.13 154.68C106.13 154.842 106.082 155.001 105.992 155.135C105.902 155.27 105.774 155.375 105.624 155.437C105.474 155.5 105.309 155.516 105.15 155.484C104.991 155.452 104.845 155.374 104.73 155.26C104.616 155.145 104.538 154.999 104.506 154.84C104.474 154.681 104.491 154.516 104.553 154.366C104.615 154.216 104.72 154.088 104.855 153.998C104.99 153.908 105.148 153.86 105.31 153.86C105.528 153.86 105.736 153.946 105.89 154.1C106.044 154.254 106.13 154.462 106.13 154.68Z" fill="#323552"/>
<path d="M113.64 160.59C113.64 160.752 113.592 160.911 113.502 161.046C113.412 161.18 113.284 161.286 113.134 161.348C112.984 161.41 112.819 161.426 112.66 161.394C112.501 161.363 112.355 161.285 112.24 161.17C112.125 161.055 112.047 160.909 112.016 160.75C111.984 160.591 112 160.426 112.062 160.276C112.124 160.126 112.23 159.998 112.364 159.908C112.499 159.818 112.658 159.77 112.82 159.77C113.037 159.77 113.246 159.856 113.4 160.01C113.554 160.164 113.64 160.373 113.64 160.59Z" fill="#323552"/>
</svg>
