<svg width="120" height="23" viewBox="0 0 120 23" fill="none" xmlns="http://www.w3.org/2000/svg">
<rect width="40" height="23" rx="6" fill="#FF3333"/>
<path d="M9.45312 10.4297C9.44531 10.5977 9.44141 10.7617 9.44141 10.9219C9.44141 12.1641 9.70117 13.0547 10.2207 13.5938C10.4551 13.8398 10.7305 13.9922 11.0469 14.0508C11.1445 14.0703 11.2422 14.0801 11.3398 14.0801C11.5234 14.0801 11.707 14.0469 11.8906 13.9805C12.1523 13.8828 12.3887 13.6836 12.5996 13.3828C12.8145 13.0781 12.9551 12.7422 13.0215 12.375C13.0488 12.2305 13.0625 12.0898 13.0625 11.9531C13.0625 11.7188 13.0215 11.498 12.9395 11.291C12.7949 10.9238 12.5293 10.6445 12.1426 10.4531C11.9121 10.3398 11.6797 10.2832 11.4453 10.2832C11.1719 10.2832 10.8965 10.3633 10.6191 10.5234C10.3652 10.6758 10.1602 10.8496 10.0039 11.0449C9.99219 10.9707 9.98633 10.8945 9.98633 10.8164C9.98633 10.668 10.0078 10.5117 10.0508 10.3477C10.1875 9.84766 10.5234 9.51172 11.0586 9.33984C11.2539 9.27734 11.4512 9.24609 11.6504 9.24609C12.1035 9.24609 12.5605 9.40234 13.0215 9.71484C13.7129 10.1797 14.0977 10.793 14.1758 11.5547C14.1875 11.6836 14.1934 11.8086 14.1934 11.9297C14.1934 12.6953 13.9551 13.3789 13.4785 13.9805C12.9316 14.6602 12.2754 15 11.5098 15C10.2246 15 9.33789 14.502 8.84961 13.5059C8.51758 12.8262 8.35156 11.8496 8.35156 10.5762C8.35156 10.3145 8.35938 10.041 8.375 9.75586C8.43359 8.49805 8.77539 7.59375 9.40039 7.04297C9.71289 6.76562 10.0195 6.61523 10.3203 6.5918C9.80078 7.9043 9.51172 9.18359 9.45312 10.4297ZM20.0469 12.9727C20.0586 13.0469 20.0645 13.123 20.0645 13.2012C20.0645 13.4004 20.0215 13.6074 19.9355 13.8223C19.6895 14.4199 19.1406 14.793 18.2891 14.9414C18.0742 14.9805 17.8652 15 17.6621 15C17.291 15 16.9434 14.9336 16.6191 14.8008C16.1738 14.6211 15.8027 14.332 15.5059 13.9336C15.2363 13.5664 15.0566 13.1504 14.9668 12.6855C14.9238 12.4785 14.9023 12.2773 14.9023 12.082C14.9023 11.8555 14.9316 11.6348 14.9902 11.4199C15.1465 10.8457 15.4629 10.3574 15.9395 9.95508C16.1777 9.75586 16.4004 9.61328 16.6074 9.52734C16.8262 9.41797 17.0957 9.33789 17.416 9.28711C17.5723 9.26367 17.7246 9.25195 17.873 9.25195C18.3379 9.25195 18.7695 9.36719 19.168 9.59766C19.6914 9.90625 20.0352 10.3184 20.1992 10.834C20.2617 11.0371 20.293 11.2207 20.293 11.3848C20.293 11.4355 20.291 11.4824 20.2871 11.5254V11.543C20.2871 11.7617 20.207 11.9941 20.0469 12.2402C19.7227 12.7402 19.1465 13.0391 18.3184 13.1367C18.1934 13.1523 18.0762 13.1602 17.9668 13.1602C17.4863 13.1602 17.1465 13.0215 16.9473 12.7441C16.8379 12.5918 16.7832 12.4316 16.7832 12.2637V12.2168C16.8691 12.3027 17.0098 12.3691 17.2051 12.416C17.3105 12.4395 17.4219 12.4512 17.5391 12.4512C17.8477 12.4512 18.1934 12.3691 18.5762 12.2051C18.9668 12.0332 19.1621 11.7441 19.1621 11.3379C19.1621 11.2949 19.1602 11.252 19.1562 11.209C19.1406 11.0137 19.0605 10.8359 18.916 10.6758C18.7715 10.5156 18.5898 10.3945 18.3711 10.3125C18.1914 10.25 18.0137 10.2188 17.8379 10.2188C17.5059 10.2188 17.1797 10.3301 16.8594 10.5527C16.5781 10.752 16.3535 11.0273 16.1855 11.3789C16.0293 11.7031 15.9512 12.0332 15.9512 12.3691V12.457C15.9668 12.8516 16.0898 13.1836 16.3203 13.4531C16.5859 13.7578 16.9707 13.9512 17.4746 14.0332C17.5996 14.0527 17.7266 14.0625 17.8555 14.0625C18.3438 14.0625 18.8301 13.9062 19.3145 13.5938C19.6191 13.3984 19.8633 13.1914 20.0469 12.9727ZM23.6855 9.25195C24.9941 9.25195 25.9082 9.75391 26.4277 10.7578C26.748 11.3828 26.9082 12.1875 26.9082 13.1719C26.9082 13.5859 26.8809 14.0312 26.8262 14.5078C26.6621 15.875 26.1836 16.7969 25.3906 17.2734C24.957 17.5391 24.3477 17.6719 23.5625 17.6719C22.918 17.6719 22.4219 17.4375 22.0742 16.9688C21.8984 16.7344 21.7891 16.5 21.7461 16.2656C22.3203 16.582 22.9023 16.7402 23.4922 16.7402C23.5469 16.7402 23.6016 16.7383 23.6562 16.7344C24.9531 16.668 25.6504 15.6992 25.748 13.8281C25.7559 13.6523 25.7598 13.4824 25.7598 13.3184C25.7598 12.084 25.5 11.1973 24.9805 10.6582C24.7422 10.4121 24.4648 10.2598 24.1484 10.2012C24.0508 10.1816 23.9551 10.1719 23.8613 10.1719C23.6738 10.1719 23.4883 10.207 23.3047 10.2773C23.043 10.3711 22.8047 10.5703 22.5898 10.875C22.3789 11.1758 22.2383 11.5098 22.168 11.877C22.1406 12.0254 22.127 12.168 22.127 12.3047C22.127 12.5391 22.168 12.7598 22.25 12.9668C22.3984 13.334 22.666 13.6133 23.0527 13.8047C23.2832 13.918 23.5156 13.9746 23.75 13.9746C24.0234 13.9746 24.2988 13.8945 24.5762 13.7344C24.8301 13.582 25.0352 13.4062 25.1914 13.207C25.207 13.2852 25.2148 13.3652 25.2148 13.4473C25.2148 13.5957 25.1914 13.75 25.1445 13.9102C25.0078 14.4141 24.6719 14.75 24.1367 14.918C23.9414 14.9805 23.7441 15.0117 23.5449 15.0117C23.0918 15.0117 22.6328 14.8555 22.168 14.543C21.4766 14.0781 21.0918 13.4648 21.0137 12.7031C21.002 12.5742 20.9961 12.4492 20.9961 12.3281C20.9961 11.5586 21.2363 10.875 21.7168 10.2773C22.2598 9.59375 22.916 9.25195 23.6855 9.25195ZM27.8633 11.2793C27.8516 11.2051 27.8457 11.1289 27.8457 11.0508C27.8457 10.8516 27.8887 10.6445 27.9746 10.4297C28.2207 9.83203 28.7676 9.45898 29.6152 9.31055C29.834 9.27148 30.043 9.25195 30.2422 9.25195C30.6172 9.25195 30.9668 9.31836 31.291 9.45117C31.7363 9.63086 32.1074 9.91992 32.4043 10.3184C32.6738 10.6855 32.8535 11.1016 32.9434 11.5664C32.9863 11.7734 33.0078 11.9746 33.0078 12.1699C33.0078 12.3965 32.9785 12.6172 32.9199 12.832C32.7637 13.4062 32.4473 13.8945 31.9707 14.2969C31.7324 14.4961 31.5098 14.6387 31.3027 14.7246C31.084 14.834 30.8145 14.9141 30.4941 14.9648C30.3379 14.9883 30.1855 15 30.0371 15C29.5723 15 29.1406 14.8848 28.7422 14.6543C28.2188 14.3496 27.875 13.9375 27.7109 13.418C27.6484 13.2148 27.6172 13.0312 27.6172 12.8672C27.6172 12.8203 27.6191 12.7754 27.623 12.7324V12.7148C27.623 12.4922 27.7031 12.2578 27.8633 12.0117C28.1875 11.5117 28.7637 11.2129 29.5918 11.1152C29.7168 11.0996 29.834 11.0918 29.9434 11.0918C30.4238 11.0918 30.7637 11.2305 30.9629 11.5078C31.0723 11.6602 31.127 11.8203 31.127 11.9883V12.0352C31.0371 11.9492 30.8965 11.8848 30.7051 11.8418C30.5957 11.8145 30.4805 11.8008 30.3594 11.8008C30.0547 11.8008 29.7129 11.8828 29.334 12.0469C28.9434 12.2188 28.748 12.5078 28.748 12.9141C28.748 12.957 28.75 13 28.7539 13.043C28.7695 13.2383 28.8496 13.418 28.9941 13.582C29.1348 13.7422 29.3164 13.8613 29.5391 13.9395C29.7188 14.0059 29.8984 14.0391 30.0781 14.0391C30.4062 14.0391 30.7305 13.9258 31.0508 13.6992C31.3281 13.5 31.5527 13.2246 31.7246 12.873C31.8809 12.541 31.959 12.2051 31.959 11.8652V11.7949C31.9434 11.4004 31.8184 11.0684 31.584 10.7988C31.3223 10.4941 30.9395 10.3008 30.4355 10.2188C30.3066 10.1992 30.1797 10.1895 30.0547 10.1895C29.5625 10.1895 29.0742 10.3457 28.5898 10.6582C28.2852 10.8535 28.043 11.0605 27.8633 11.2793Z" fill="#F4F4F4"/>
<path d="M50.732 15.12C49.424 15.12 48.116 14.712 47.42 14.112L47.96 12.9C48.632 13.44 49.7 13.824 50.732 13.824C52.04 13.824 52.592 13.356 52.592 12.732C52.592 10.92 47.6 12.108 47.6 8.988C47.6 7.632 48.68 6.48 50.984 6.48C51.992 6.48 53.048 6.744 53.78 7.224L53.288 8.436C52.532 7.992 51.704 7.776 50.972 7.776C49.676 7.776 49.148 8.28 49.148 8.916C49.148 10.704 54.128 9.54 54.128 12.624C54.128 13.968 53.036 15.12 50.732 15.12ZM59.0829 8.52C60.9549 8.52 62.3349 9.816 62.3349 11.796C62.3349 13.788 60.9549 15.084 59.0829 15.084C58.2669 15.084 57.5469 14.808 57.0309 14.22V17.328H55.5309V8.592H56.9589V9.432C57.4629 8.82 58.2069 8.52 59.0829 8.52ZM58.9149 13.8C59.9949 13.8 60.8109 13.02 60.8109 11.796C60.8109 10.572 59.9949 9.792 58.9149 9.792C57.8349 9.792 57.0069 10.572 57.0069 11.796C57.0069 13.02 57.8349 13.8 58.9149 13.8ZM66.6374 15.084C64.6694 15.084 63.2294 13.716 63.2294 11.796C63.2294 9.876 64.6694 8.52 66.6374 8.52C68.6294 8.52 70.0574 9.876 70.0574 11.796C70.0574 13.716 68.6294 15.084 66.6374 15.084ZM66.6374 13.8C67.7294 13.8 68.5454 13.02 68.5454 11.796C68.5454 10.572 67.7294 9.792 66.6374 9.792C65.5574 9.792 64.7414 10.572 64.7414 11.796C64.7414 13.02 65.5574 13.8 66.6374 13.8ZM72.9198 9.528C73.3518 8.856 74.1318 8.52 75.1998 8.52V9.948C75.0678 9.924 74.9598 9.912 74.8518 9.912C73.7118 9.912 72.9918 10.584 72.9918 11.892V15H71.4918V8.592H72.9198V9.528ZM80.1387 13.584L80.5587 14.652C80.1987 14.94 79.6587 15.084 79.1187 15.084C77.7147 15.084 76.9107 14.34 76.9107 12.924V9.84H75.8547V8.64H76.9107V7.176H78.4107V8.64H80.1267V9.84H78.4107V12.888C78.4107 13.512 78.7227 13.848 79.2987 13.848C79.6107 13.848 79.9107 13.764 80.1387 13.584ZM83.7726 15.084C82.7046 15.084 81.6366 14.772 81.0606 14.364L81.6366 13.224C82.2006 13.596 83.0646 13.86 83.8686 13.86C84.8166 13.86 85.2126 13.596 85.2126 13.152C85.2126 11.928 81.2526 13.08 81.2526 10.524C81.2526 9.312 82.3446 8.52 84.0726 8.52C84.9246 8.52 85.8966 8.724 86.4726 9.072L85.8966 10.212C85.2846 9.852 84.6726 9.732 84.0606 9.732C83.1486 9.732 82.7166 10.032 82.7166 10.452C82.7166 11.748 86.6766 10.596 86.6766 13.104C86.6766 14.304 85.5726 15.084 83.7726 15.084ZM98.9004 6.6H100.388L97.6044 15H95.9484L93.8724 8.784L91.7604 15H90.0924L87.3084 6.6H88.9284L91.0164 12.984L93.1884 6.6H94.6284L96.7524 13.02L98.9004 6.6ZM103.483 8.52C105.331 8.52 106.399 9.396 106.399 11.244V15H104.983V14.22C104.623 14.772 103.927 15.084 102.967 15.084C101.503 15.084 100.579 14.28 100.579 13.164C100.579 12.096 101.299 11.256 103.243 11.256H104.899V11.16C104.899 10.284 104.371 9.768 103.303 9.768C102.583 9.768 101.839 10.008 101.359 10.404L100.771 9.312C101.455 8.784 102.451 8.52 103.483 8.52ZM103.279 13.992C104.011 13.992 104.647 13.656 104.899 12.996V12.252H103.351C102.331 12.252 102.055 12.636 102.055 13.104C102.055 13.644 102.511 13.992 103.279 13.992ZM109.752 9.528C110.184 8.856 110.964 8.52 112.032 8.52V9.948C111.9 9.924 111.792 9.912 111.684 9.912C110.544 9.912 109.824 10.584 109.824 11.892V15H108.324V8.592H109.752V9.528ZM119.27 11.832C119.27 11.952 119.258 12.132 119.246 12.276H114.218C114.398 13.212 115.178 13.812 116.294 13.812C117.014 13.812 117.578 13.584 118.034 13.116L118.838 14.04C118.262 14.724 117.362 15.084 116.258 15.084C114.11 15.084 112.718 13.704 112.718 11.796C112.718 9.888 114.122 8.52 116.03 8.52C117.902 8.52 119.27 9.828 119.27 11.832ZM116.03 9.72C115.058 9.72 114.35 10.344 114.206 11.28H117.842C117.722 10.356 117.014 9.72 116.03 9.72Z" fill="#F4F4F4"/>
</svg>
