<svg width="9" height="8" viewBox="0 0 9 8" fill="none" xmlns="http://www.w3.org/2000/svg">
<path d="M2.60986 0.280273H6.60986L8.60986 3.77026L6.60986 7.26028H2.60986L0.609863 3.77026L2.60986 0.280273ZM4.60986 5.59027C4.97024 5.59225 5.32311 5.4872 5.62372 5.28842C5.92433 5.08964 6.15918 4.80611 6.29846 4.47372C6.43775 4.14134 6.47522 3.77509 6.40613 3.42139C6.33704 3.06769 6.16447 2.74244 5.91034 2.48691C5.65621 2.23137 5.33195 2.05706 4.97864 1.98602C4.62532 1.91498 4.25886 1.95044 3.92572 2.08789C3.59258 2.22534 3.30773 2.45861 3.1073 2.75812C2.90687 3.05763 2.79987 3.40988 2.79987 3.77026C2.79854 4.00964 2.84474 4.24691 2.93573 4.46832C3.02672 4.68973 3.16072 4.89091 3.32999 5.06018C3.49925 5.22945 3.7004 5.36344 3.92181 5.45444C4.14323 5.54543 4.3805 5.5916 4.61987 5.59027H4.60986Z" fill="#323552"/>
</svg>
